FluxischElse-Light.sfdir
StartChar: uni0023
Encoding: 35 35 4
Width: 564
GlyphClass: 2
Flags: W
LayerCount: 2
Fore
SplineSet
276 419 m 0
 272 420 264.999 420.999 259.999 420.999 c 0
 251.999 420.999 248.999 420.999 247.999 417.999 c 0
 246.999 415.999 242.999 413.999 237.999 413.999 c 1
 233.999 412.999 229.999 411.999 228.999 409.999 c 1
 226.999 408.999 225.999 403.999 225.999 397.999 c 1
 224.999 392.999 223.999 386.999 222.999 383.999 c 1
 220.999 381.999 219.999 373.999 220.999 360.999 c 0
 220.999 344.999 220.999 340.999 217.999 338.999 c 0
 215.999 336.999 214.999 332.999 214.999 329.999 c 0
 214.999 327.999 213.999 321.999 212.999 318.999 c 0
 211.999 314.999 209.999 309.999 208.999 307.999 c 0
 206.999 304.999 206.999 296.999 205.999 281.999 c 0
 205.999 260.999 205.999 260.999 258.999 260.999 c 0
 287.999 260.999 313.999 259.999 316.999 258.999 c 0
 318.656 258.585 319.97 258.343 320.94 258.343 c 0
 322.313 258.343 323 258.828 323 260 c 0
 323 261 328 267 333 274 c 0
 344 286 344 286 345 308 c 0
 345 321 346 331 347 332 c 1
 347 333 347 335 346 337 c 1
 344 339 345 341 348 344 c 0
 351 346 353 349 353 350 c 0
 353 351 354 355 356 358 c 0
 359 363 359 368 359 387 c 0
 359 406 359 409 356 413 c 0
 353 416 351 418 343 418 c 1
 337 419 330 420 327 421 c 1
 323 421 319 421 314 418 c 0
 307 415 304 415 294 416 c 0
 288 417 280 418 276 419 c 0
252.999 676.999 m 1
 253.999 678.999 257 679.999 259 679.999 c 0
 261 679.999 265 676.999 268 674.999 c 0
 273 670.999 274 667.999 275 660.999 c 0
 276 653.999 275 650.999 273 648.999 c 1
 272 646.999 271 641.999 271 636.999 c 0
 271 631.999 270 622.999 269 616.999 c 2
 269 610.999 266 603.999 264 599.999 c 0
 261 593.999 261 590.999 262 580.999 c 0
 263 571.999 262 566.999 261 563.999 c 1
 259 560.999 258 555.999 257 552.999 c 1
 257 548.999 254 543.999 252 540.999 c 0
 248 535.999 248 533.999 249 515.999 c 0
 249 500.999 248 494.999 246 491.999 c 0
 245 489.999 244 485.999 244 482.999 c 0
 244 480.999 245 475.999 246 472.999 c 0
 247 468.999 250 466.999 252 465.999 c 0
 254 464.999 258 465.999 262 467.999 c 0
 267 470.999 273 470.999 312 470.999 c 0
 337 470.999 358 470.999 360 471.999 c 1
 362 471.999 365 475.999 368 479.999 c 0
 371 483.999 374 488.999 374 491.999 c 0
 374 494.999 376 499.999 378 502.999 c 0
 383 508.999 383 509.999 381 516.999 c 0
 380 520.999 379 526.999 379 528.999 c 0
 379 530.999 381 534.999 383 537.999 c 0
 385 540.999 386 544.999 386 550.999 c 0
 386 555.999 386 560.999 385 562.999 c 0
 384 565.999 385 566.999 389 568.999 c 0
 393 570.999 394 571.999 393 579.999 c 0
 393 584.999 394 588.999 396 593.999 c 1
 399 597.999 400 604.999 402 622.999 c 0
 403 635.999 404 649.999 404 652.999 c 2
 405 656.999 406 661.999 406 664.999 c 1
 407 667.999 409 670.999 410 672.999 c 1
 412 674.999 416 674.999 426 674.999 c 0
 438 674.999 441 674.999 445 670.999 c 0
 448 667.999 450 666.999 455 667.999 c 0
 459 667.999 462 667.999 463 666.999 c 1
 464 664.999 465 655.999 466 646.999 c 0
 467 630.999 466 628.999 463 625.999 c 0
 460 621.999 459 618.999 459 607.999 c 0
 459 597.999 458 593.999 454 589.999 c 1
 451 584.999 451 582.999 452 575.999 c 0
 453 571.999 454 563.999 453 558.999 c 2
 453 553.999 451 547.999 449 544.999 c 0
 446 541.999 445 535.999 444 528.999 c 1
 444 520.999 442 514.999 440 511.999 c 0
 438 508.999 437 505.999 438 502.999 c 1
 438 500.999 439 495.999 440 491.999 c 0
 441 487.999 445 480.999 448 476.999 c 0
 453 469.999 453 469.999 474 470.999 c 0
 485 471.999 496 471.999 499 471.999 c 0
 502 471.999 507 473.999 510 475.999 c 0
 515 478.999 517 478.999 520 477.999 c 0
 523 476.999 526 472.999 528 468.999 c 0
 531 462.999 532 459.999 531 452.999 c 0
 530 445.999 530 441.999 533 436.999 c 0
 534.5 433.499 535.25 431.749 535.25 429.999 c 0
 535.25 428.249 534.5 426.499 533 422.999 c 0
 531 418.999 528 414.999 525 412.999 c 0
 522 410.999 520 410.999 513 411.999 c 1
 509 413.999 503 415.999 501 416.999 c 1
 499 418.999 489 419.999 469 419.999 c 0
 460.348 420.308 454.369 420.521 450.002 420.521 c 0
 440.236 420.521 438.528 419.454 433 415.999 c 0
 424 410.999 424 410.999 424 395.999 c 0
 424 384.999 423 380.999 421 377.999 c 0
 419 375.999 418 372.999 417 370.999 c 0
 416 368.999 414 365.999 412 363.999 c 0
 409 361.999 409 358.999 409 343.999 c 0
 409 330.999 408 324.999 406 321.999 c 0
 404 318.999 403 313.999 403 308.999 c 0
 403 304.999 402 297.999 401 294.999 c 0
 400 290.999 400 286.999 402 280.999 c 0
 404 271.999 404 271.999 415 266.999 c 0
 421 263.999 428 260.999 431 260.999 c 1
 434 261.999 439 261.999 442 261.999 c 0
 446 261.999 458 260.999 470 260.999 c 0
 487 259.999 493 258.999 495 256.999 c 0
 497 254.999 499 252.999 499 250.999 c 2
 500 248.999 499 243.999 497 239.999 c 0
 495 234.999 493 227.999 493 218.999 c 0
 492 210.999 491 204.999 491 203.999 c 1
 490 202.999 488 203.999 487 205.999 c 0
 486 207.999 484 209.999 484 210.999 c 0
 484 211.999 480 210.999 476 209.999 c 0
 473 208.999 468 206.999 465 204.999 c 0
 463 202.999 459 201.999 455 201.999 c 0
 452 201.999 448 202.999 445 204.999 c 0
 442 207.999 438 208.999 422 208.999 c 0
 417.037 209.26 413.37 209.453 410.465 209.453 c 0
 402.249 209.453 400.126 207.909 391.999 201.999 c 0
 379.999 193.999 379.999 193.999 380.999 183.999 c 0
 381.999 178.999 381.999 168.999 380.999 162.999 c 0
 379.999 156.999 378.999 149.999 377.999 146.999 c 2
 377.999 143.999 376.999 140.999 375.999 139.999 c 0
 373.999 137.999 373.999 134.999 374.999 130.999 c 1
 374.999 124.999 374.999 122.999 370.999 116.999 c 0
 366.999 111.999 365.999 108.999 366.999 100.999 c 0
 367.999 95.999 368.999 87.999 368.999 82.999 c 1
 369.999 75.999 369.999 74.999 365.999 70.999 c 0
 362.999 68.999 360.999 64.999 360.999 61.999 c 1
 359.999 58.999 358.999 53.999 356.999 51.999 c 1
 355.999 49.999 353.999 44.999 353.999 38.999 c 0
 353.999 34.999 352.999 26.999 351.999 22.999 c 1
 349.999 18.999 346.999 14.999 344.999 14.999 c 2
 343.999 13.999 333.999 12.999 324.999 12.999 c 0
 315.999 12.999 303.999 12.999 298.999 13.999 c 0
 291.999 14.999 289.999 15.999 287.999 19.999 c 0
 284.999 23.999 284.999 24.999 289.999 27.999 c 0
 294.999 31.999 294.999 32.999 294.999 57.999 c 0
 295.999 81.999 295.999 84.999 299.999 88.999 c 0
 301.999 91.999 302.999 95.999 302.999 96.999 c 0
 302.999 97.999 304.999 102.999 306.999 107.999 c 0
 309.999 113.999 310.999 118.999 309.999 129.999 c 0
 309.999 142.999 309.999 144.999 313.999 146.999 c 1
 316.999 149.999 316.999 150.999 316.999 172.999 c 0
 315.999 194.999 315.999 196.999 310.999 202.999 c 0
 308.999 205.999 304.999 208.999 302.999 209.999 c 1
 299.999 209.999 289.999 210.999 278.999 209.999 c 0
 262.999 209.999 259.999 208.999 254.999 205.999 c 0
 251.999 203.999 246.999 201.999 244.999 201.999 c 0
 242.999 201.999 237.999 202.999 233.999 203.999 c 1
 230.999 205.999 226.999 206.999 225.999 205.999 c 1
 224.999 205.999 221.999 205.999 219.999 207.999 c 0
 216.999 209.999 214.999 209.999 209.999 208.999 c 1
 206.999 206.999 202.999 205.999 201.999 204.999 c 1
 199.999 204.999 197.999 201.999 195.999 197.999 c 0
 194.999 194.999 191.999 188.999 189.999 183.999 c 1
 186.999 178.999 185.999 171.999 185.999 160.999 c 0
 185.999 147.999 184.999 143.999 180.999 138.999 c 0
 176.999 132.999 176.999 130.999 176.999 118.999 c 0
 176.999 111.999 176.999 100.999 175.999 94.999 c 0
 174.999 85.999 173.999 81.999 169.999 78.999 c 0
 166.999 75.999 164.999 71.999 163.999 65.999 c 1
 163.999 60.999 162.999 50.999 162.999 42.999 c 0
 162.999 34.999 161.999 25.999 160.999 21.999 c 0
 159.999 18.999 157.999 14.999 156.999 14.999 c 1
 156.999 13.999 146.999 12.999 136.999 12.999 c 0
 119.999 12.999 116.999 12.999 109.999 16.999 c 0
 105.999 18.999 100.999 20.999 98.999 20.999 c 0
 97.999 20.999 95.999 21.999 94.999 22.999 c 0
 93.999 23.999 92.999 27.999 91.999 31.999 c 0
 90.999 37.999 91.999 40.999 95.999 46.999 c 0
 98.999 51.999 102.999 58.999 103.999 62.999 c 1
 105.999 66.999 108.999 72.999 110.999 75.999 c 0
 114.999 80.999 114.999 80.999 110.999 86.999 c 0
 106.999 92.999 106.999 94.999 108.999 97.999 c 0
 110.999 99.999 111.999 106.999 112.999 116.999 c 0
 112.999 126.999 113.999 132.999 115.999 134.999 c 0
 117.999 136.999 119.999 142.999 119.999 149.999 c 1
 120.999 155.999 122.999 162.999 124.999 163.999 c 1
 126.999 166.999 126.999 170.999 126.999 182.999 c 0
 126.999 191.999 125.999 199.999 124.999 200.999 c 1
 124.999 202.999 121.999 203.999 118.999 203.999 c 0
 115.999 203.999 112.999 204.999 111.999 205.999 c 0
 110.999 206.999 106.999 208.999 102.999 209.999 c 1
 97.999 209.999 94.999 209.999 90.999 206.999 c 0
 88.999 204.999 83.999 202.999 79.999 202.999 c 2
 76.999 201.999 72.999 200.999 71.999 201.999 c 1
 71.999 201.999 63.999 202.999 55.999 202.999 c 0
 47.999 202.999 40.999 203.999 39.999 203.999 c 1
 38.999 204.999 35.999 208.999 33.999 212.999 c 0
 29.999 219.999 28.999 223.999 28.999 235.999 c 0
 28.999 247.999 29.999 250.999 32.999 254.999 c 0
 34.999 256.999 38.999 259.999 41.999 260.999 c 0
 45.999 262.999 47.999 262.999 51.999 261.999 c 0
 54.999 260.999 67.999 259.999 82.999 259.999 c 0
 104.999 259.999 109.999 259.999 113.999 256.999 c 0
 116.999 254.999 119.999 254.999 123.999 255.999 c 2
 127.999 255.999 132.999 257.999 134.999 258.999 c 0
 137.999 260.999 139.999 262.999 139.999 263.999 c 0
 139.999 264.999 140.999 270.999 140.999 276.999 c 0
 140.999 283.999 142.999 289.999 144.999 293.999 c 0
 147.999 297.999 148.999 301.999 148.999 307.999 c 1
 147.999 311.999 148.999 316.999 150.999 318.999 c 0
 151.999 319.999 153.999 328.999 153.999 337.999 c 0
 154.999 345.999 156.999 354.999 158.999 357.999 c 0
 159.999 359.999 160.999 362.999 160.999 365.999 c 0
 160.999 367.999 160.999 379.999 161.999 393.999 c 0
 161.999 409.999 161.999 417.999 160.999 418.999 c 1
 158.999 419.999 146.999 420.999 133.999 420.999 c 0
 116.999 419.999 106.999 418.999 100.999 416.999 c 0
 95.999 415.999 89.999 413.999 87.999 413.999 c 0
 84.999 413.999 80.999 415.999 79.999 416.999 c 1
 78.999 418.999 75.999 423.999 72.999 426.999 c 1
 69.999 432.999 68.999 435.999 69.999 445.999 c 0
 69.999 451.999 69.999 458.999 70.999 461.999 c 2
 70.999 463.999 71.999 467.999 72.999 468.999 c 0
 74.4629 470.463 79.1426 471.391 97.6299 471.391 c 0
 104.396 471.391 113.013 471.267 123.999 470.999 c 0
 151.999 470.999 173.999 471.999 175.999 472.999 c 1
 179.999 473.999 180.999 476.999 180.999 483.999 c 1
 181.999 489.999 182.999 495.999 184.999 498.999 c 0
 185.999 500.999 187.999 506.999 188.999 511.999 c 0
 189.999 517.999 189.999 522.999 188.999 525.999 c 0
 187.999 528.999 188.999 530.999 191.999 534.999 c 0
 193.999 536.999 196.999 540.999 196.999 543.999 c 2
 197.999 545.999 197.999 552.999 196.999 557.999 c 0
 195.999 562.999 194.999 568.999 195.999 569.999 c 2
 195.999 571.999 198.999 574.999 200.999 575.999 c 1
 203.999 578.999 204.999 579.999 203.999 604.999 c 0
 203.692 612.667 203.443 617.999 203.443 621.999 c 0
 203.443 629.999 204.332 632.666 206.999 637.999 c 0
 208.999 642.999 209.999 648.999 209.999 651.999 c 0
 209.999 654.999 211.999 657.999 213.999 659.999 c 0
 215.999 661.999 218.999 665.999 219.999 668.999 c 0
 221.999 674.999 221.999 674.999 235.999 674.999 c 0
 244.999 674.999 251.999 675.999 252.999 676.999 c 1
EndSplineSet
Validated: 33
EndChar
StartChar: uni0029
Encoding: 41 41 10
Width: 300
GlyphClass: 2
Flags: W
LayerCount: 2
Fore
SplineSet
65 812 m 1
 68 812 71 812 72 813 c 1
 74 813 80 811 86 808 c 0
 93 805 99 800 102 797 c 2
 106 791 l 1
 106 790 108 787 110 783 c 1
 113 780 114 776 114 775 c 1
 113 774 115 770 117 767 c 0
 120 764 121 760 121 754 c 0
 121 749 123 743 125 740 c 0
 127 736 128 731 128 729 c 0
 128 727 130 721 133 717 c 1
 135 712 137 706 138 703 c 1
 138 700 141 693 144 689 c 0
 147 684 149 678 149 675 c 0
 149 673 151 667 153 664 c 0
 155 660 157 654 157 652 c 0
 157 649 158 645 159 643 c 1
 161 642 162 638 162 636 c 0
 162 634 163 631 165 629 c 1
 167 628 169 622 170 616 c 2
 172 610 172 604 171 602 c 1
 171 600 172 597 175 593 c 1
 179 589 179 586 179 582 c 1
 178 578 178 575 180 573 c 0
 182 571 183 568 183 565 c 0
 183 563 185 557 188 552 c 0
 193 545 193 543 192 535 c 0
 191 529 192 526 194 523 c 0
 195 522 197 515 198 509 c 1
 198 502 200 497 202 494 c 0
 203 493 205 488 205 485 c 0
 205 482 207 477 209 474 c 0
 211 470 212 466 211 450 c 0
 211 433 211 430 215 424 c 0
 218 418 218 417 216 414 c 0
 215 412 214 406 214 400 c 2
 213 394 214 389 215 386 c 1
 217 383 218 375 218 368 c 2
 218 347 l 2
 218 342 217 337 215 334 c 0
 212 330 211 326 211 321 c 2
 211 299 l 2
 211 290 210 279 208 270 c 0
 206 263 204 252 204 247 c 0
 204 241 203 237 201 235 c 0
 198 232 198 228 198 218 c 0
 197 209 196 202 195 199 c 0
 193 195 192 191 192 188 c 0
 192 185 190 180 188 176 c 0
 186 171 185 168 187 165 c 1
 187 163 187 160 186 158 c 1
 186 156 185 152 185 150 c 0
 185 147 183 139 181 132 c 0
 179 125 175 116 172 113 c 0
 168 107 167 105 168 100 c 0
 169 94 168 92 164 87 c 0
 161 84 158 79 157 76 c 1
 155 73 155 68 156 61 c 0
 157 52 156 50 153 46 c 0
 151 43 149 39 149 37 c 0
 149 35 148 31 146 27 c 0
 144 24 142 18 142 16 c 0
 142 12 141 10 139 10 c 1
 137 9 135 7 134 3 c 1
 134 0 132 -3 131 -4 c 1
 129 -5 128 -8 128 -10 c 0
 128 -12 126 -16 124 -18 c 0
 120 -21 120 -24 120 -29 c 0
 120 -33 119 -38 117 -41 c 0
 116 -43 114 -47 114 -50 c 1
 113 -53 110 -56 108 -57 c 0
 105 -59 98 -65 93 -71 c 0
 83 -83 82 -83 74 -83 c 0
 66 -83 65 -82 58 -73 c 0
 53 -68 49 -62 49 -60 c 0
 49 -57 51 -54 53 -52 c 0
 55 -50 56 -47 56 -43 c 0
 56 -39 58 -34 60 -32 c 0
 62 -29 64 -25 66 -21 c 0
 67 -18 70 -13 72 -9 c 0
 74 -5 76 0 76 5 c 0
 76 10 77 16 78 19 c 0
 79 21 83 28 85 33 c 0
 87 39 90 46 91 49 c 1
 91 52 91 60 90 66 c 0
 88 77 88 78 92 81 c 0
 96 84 97 87 97 94 c 1
 98 100 99 107 101 111 c 0
 103 115 104 120 104 124 c 0
 104 127 106 134 108 139 c 0
 111 145 112 150 111 155 c 0
 111 159 111 163 113 165 c 1
 114 167 116 172 117 175 c 0
 118 179 118 187 118 194 c 0
 118 204 119 208 122 213 c 0
 125 220 126 222 126 265 c 0
 126 303 127 311 130 318 c 0
 132 324 133 329 132 346 c 2
 132 372 l 2
 132 374 132 380 133 385 c 0
 134 392 134 394 130 400 c 0
 125 406 125 407 126 423 c 0
 126 433 126 443 125 445 c 0
 124 448 125 454 126 459 c 0
 127 467 127 468 123 476 c 1
 118 483 118 486 118 500 c 0
 118 512 117 518 115 522 c 0
 113 525 111 534 111 545 c 0
 110 555 108 570 107 578 c 0
 105 587 103 597 101 601 c 1
 100 605 98 611 98 615 c 1
 97 619 96 623 94 625 c 0
 92 628 91 632 90 640 c 0
 90 648 89 656 86 664 c 0
 83 671 81 677 81 679 c 0
 81 681 80 683 78 685 c 0
 76 687 75 689 76 698 c 0
 77 708 77 709 73 713 c 1
 69 715 67 719 67 724 c 1
 66 728 65 735 64 740 c 0
 63 745 61 752 58 756 c 0
 56 760 55 766 55 770 c 0
 55 773 53 777 51 779 c 0
 49 781 48 784 48 789 c 0
 48 792 49 798 50 800 c 0
 52 803 55 807 57 808 c 2
 59 810 63 811 65 812 c 1
EndSplineSet
Validated: 33
EndChar
StartChar: uni002B
Encoding: 43 43 12
Width: 690
GlyphClass: 2
Flags: W
LayerCount: 2
Fore
SplineSet
341 570 m 1
 353.999 570.002 l 2
 356.124 570.238 357.858 570.362 359.308 570.362 c 0
 363.999 570.362 365.707 569.058 367.999 566.002 c 2
 370.999 564.002 373.999 560.002 375.999 557.002 c 0
 378.999 554.002 380.999 548.002 381.999 543.002 c 0
 382.999 538.002 382.999 535.002 381.999 532.002 c 0
 380.999 530.002 379.999 526.002 379.999 523.002 c 0
 379.999 519.002 380.999 515.002 381.999 512.002 c 0
 382.999 509.002 381.999 506.002 378.999 500.002 c 0
 374.999 492.002 374.999 489.002 373.999 469.002 c 0
 373.999 446.002 373.999 446.002 377.999 443.002 c 1
 381.999 439.002 382.999 439.002 379.999 431.002 c 1
 378.999 426.002 376.999 417.002 375.999 411.002 c 0
 374.999 400.002 374.999 398.002 376.999 394.002 c 1
 378.999 392.002 379.999 389.002 379.999 387.002 c 0
 379.999 385.002 378.999 382.002 376.999 380.002 c 0
 373.999 376.002 373.999 375.002 374.999 369.002 c 0
 375.999 365.002 375.999 362.002 374.999 358.002 c 1
 372.999 354.002 372.999 352.002 375.999 345.002 c 0
 377.999 340.002 380.999 334.002 380.999 331.002 c 1
 382.999 327.002 383.999 325.002 387.999 325.002 c 1
 390.999 324.002 395.999 322.002 398.999 320.002 c 0
 400.999 318.002 403.999 316.002 404.999 316.002 c 0
 405.999 316.002 408.999 318.002 410.999 319.002 c 0
 414.999 322.002 417.999 323.002 431.999 323.002 c 0
 441.999 323.002 449.999 324.002 451.999 325.002 c 0
 454.999 327.002 457.999 327.002 465.999 325.002 c 0
 470.999 324.002 477.999 321.002 479.999 320.002 c 0
 482.999 318.002 489.999 317.002 500.999 316.002 c 0
 515.999 316.002 516.999 316.002 518.999 320.002 c 0
 521.999 324.002 522.999 324.002 557.999 324.002 c 0
 580.999 323.002 593.999 323.002 597.999 321.002 c 0
 600.999 320.002 603.999 317.002 604.999 314.002 c 2
 606.171 312.244 606.656 309.114 606.656 304.812 c 0
 606.656 301.771 606.414 298.144 606 294.001 c 0
 605 285.001 604 277.001 604 274.001 c 1
 603 272.001 601 270.001 599 269.001 c 0
 596 268.001 593 267.001 592 267.001 c 0
 590 267.001 587 265.001 584 263.001 c 0
 578 259.001 577 259.001 535 259.001 c 0
 504 259.001 490 258.001 485 257.001 c 1
 480 255.001 478 255.001 472 257.001 c 0
 467 258.001 455 259.001 428 259.001 c 0
 407 259.001 388 258.001 386 257.001 c 0
 383 256.001 382 255.001 382 249.001 c 0
 382 245.001 381 241.001 380 239.001 c 0
 379 236.001 379 233.001 380 230.001 c 0
 380.5 229.001 380.75 224.001 380.75 216.626 c 0
 380.75 209.251 380.5 199.501 380 189.001 c 2
 380 146.001 l 1
 381 144.001 381 127.001 381 110.001 c 0
 380 94.001 379 78.001 378 77.001 c 1
 377 75.001 376 72.001 376 70.001 c 0
 376 69.001 375 65.001 374 61.001 c 1
 374 58.001 374 53.001 375 50.001 c 1
 375 47.001 376 41.001 375 37.001 c 1
 375 31.001 374 29.001 370 28.001 c 0
 367 27.001 363 25.001 360 23.001 c 1
 357 22.001 348 21.001 340 21.001 c 0
 336.75 20.751 334.188 20.626 332.109 20.626 c 0
 325.875 20.626 324 21.751 321 24.001 c 1
 319 27.001 316 32.001 315 36.001 c 0
 314 40.001 312 46.001 311 49.001 c 0
 310 52.001 309 62.001 309 70.001 c 0
 308 78.001 308 87.001 308 89.001 c 0
 308 92.001 309 125.001 309 164.001 c 0
 309.268 179.81 309.392 192.244 309.392 202.074 c 0
 309.392 228.93 308.464 236.341 307 240.001 c 0
 306 244.001 302 249.001 300 251.001 c 0
 297 254.001 293 257.001 290 258.001 c 0
 287 259.001 283 262.001 281 263.001 c 0
 278 265.001 272 266.001 253 266.001 c 0
 239 266.001 222 265.001 213 265.001 c 2
 180 265.001 l 2
 161 266.001 161 266.001 156 261.001 c 0
 150 256.001 150 256.001 140 258.001 c 0
 134 259.001 127 262.001 125 264.001 c 1
 121 266.001 117 267.001 111 266.001 c 0
 104 265.001 103 265.001 95 273.001 c 0
 89 279.001 87 282.001 85 290.001 c 0
 84.1719 293.729 83.6865 295.912 83.6865 297.404 c 0
 83.6865 299.515 84.6572 300.242 87 302 c 0
 89 304 91 308 92 310 c 1
 93 315 94 315 103 316 c 0
 108 317 116 319 119 320 c 0
 124 322 135 323 155 324 c 0
 170 324 184 325 186 326 c 1
 187 326 191 325 195 323 c 0
 199 321 206 319 211 318 c 1
 218 318 223 318 225 319 c 0
 228 321 230 321 234 318 c 0
 237 316 241 316 262 316 c 0
 283 317 286 318 290 321 c 0
 292 323 295 325 296 325 c 0
 297 325 301 327 304 329 c 0
 308 332 310 335 310 338 c 0
 310 340 311 343 313 345 c 0
 316 348 317 351 317 428 c 2
 317 514 l 2
 317 516 316 527 316 536 c 0
 315 548 316 555 317 558 c 0
 319 562 321 564 328 566 c 0
 333 568 339 569 341 570 c 1
EndSplineSet
Validated: 33
EndChar
StartChar: uni002C
Encoding: 44 44 13
Width: 314
GlyphClass: 2
Flags: W
LayerCount: 2
Fore
SplineSet
164 115 m 1
 167 116 170 117.001 171 117.001 c 2
 171 117.001 175 116.001 180 115.001 c 0
 184 114.001 190 111.001 193 109.001 c 0
 196 107.001 200 105.001 202 105.001 c 0
 203 105.001 205 104.001 205 103.001 c 0
 205 102.001 206 96.001 207 90.001 c 0
 207.274 87.2578 207.474 85.2676 207.474 83.6992 c 0
 207.474 79.5498 206.08 78.3555 201 74.001 c 0
 196 69.001 194 66.001 193 59.001 c 0
 192 54.001 190 50.001 188 47.001 c 1
 185 45.001 183 42.001 183 41.001 c 0
 183 39.001 184 37.001 185 35.001 c 0
 187 32.001 187 31.001 184 28.001 c 0
 182 25.001 178 17.001 175 9.00098 c 0
 172 2.00098 169 -6.99902 168 -10.999 c 1
 166 -14.999 164 -18.999 161 -19.999 c 1
 158 -22.999 157 -24.999 157 -31.999 c 0
 157 -37.999 156 -40.999 153 -42.999 c 0
 151 -44.999 150 -48.999 150 -52.999 c 0
 150 -56.999 148 -60.999 147 -63.999 c 1
 145 -65.999 143 -68.999 142 -70.999 c 1
 142 -72.999 138.96 -80.9844 136 -88.999 c 0
 131.945 -99.9785 129 -104.999 122 -110.999 c 0
 118 -114.999 112 -119.999 109 -122.999 c 0
 106.333 -125.666 105 -126.555 101.741 -126.555 c 0
 100.111 -126.555 98 -126.332 95 -125.999 c 0
 90 -125.999 81 -122.999 77 -120.999 c 0
 71.5352 -118.267 66.6084 -115.65 66.6084 -107.627 c 0
 66.6084 -103.784 67.5361 -98.124 69 -93 c 0
 70 -87 72 -77 72 -70 c 1
 73 -64 74 -58 76 -56 c 1
 77 -54 79 -49 79 -44 c 0
 79 -39 81 -33 83 -31 c 2
 84 -28 87 -24 89 -23 c 0
 93 -20 93 -18 93 12 c 0
 93 40 93 45 96 49 c 0
 98 51 99 56 99 60 c 0
 99 64 101 68 105 74 c 0
 108 78 112 84 114 87 c 0
 116 90 120 95 124 99 c 1
 130 103 134 105 142 106 c 0
 148 107 154 108 155 110 c 1
 157 111 161 113 164 115 c 1
EndSplineSet
Validated: 1
EndChar
StartChar: uni002F
Encoding: 47 47 16
Width: 274
GlyphClass: 2
Flags: W
LayerCount: 2
Fore
SplineSet
275 787 m 1
 276 789 277 790.001 278 790.001 c 0
 279 790.001 282 789.001 285 788.001 c 0
 287 787.001 291 784.001 293 782.001 c 0
 297 779.001 297 777.001 297 767.001 c 0
 297 758.001 297 756.001 294 753.001 c 0
 291 751.001 290 747.001 289 741.001 c 0
 288 735.001 286 729.001 285 727.001 c 0
 283 724.001 282 720.001 282 717.001 c 0
 282 714.001 279 710.001 275 706.001 c 1
 272 702.001 269 698.001 269 697.001 c 0
 269 695.001 268 691.001 266 688.001 c 0
 264 684.001 262 678.001 262 675.001 c 0
 262 671.001 264 666.001 266 664.001 c 1
 269 659.001 269 659.001 266 656.001 c 0
 264 654.001 262 647.001 260 642.001 c 0
 258 636.001 258 631.001 258 629.001 c 1
 259 628.001 256 624.001 253 621.001 c 0
 249 617.001 246 613.001 246 612.001 c 0
 246 611.001 244 607.001 242 603.001 c 0
 239 598.001 238 596.001 239 593.001 c 0
 240 591.001 241 589.001 241 587.001 c 0
 241 585.001 239 582.001 237 578.001 c 1
 233 574.001 232 571.001 232 561.001 c 0
 232 552.001 232 547.001 229 543.001 c 0
 226 538.001 225 535.001 226 528.001 c 0
 227 521.001 226 518.001 224 515.001 c 0
 222 512.001 220 509.001 220 508.001 c 0
 220 507.001 218 504.001 216 502.001 c 0
 213 500.001 211 496.001 211 494.001 c 0
 211 493.001 210 489.001 208 485.001 c 0
 207 482.001 205 477.001 205 473.001 c 0
 205 468.001 203 463.001 201 461.001 c 0
 198 457.001 198 454.001 198 448.001 c 1
 199 441.001 199 439.001 197 437.001 c 1
 195 436.001 194 434.001 194 433.001 c 0
 194 432.001 192 429.001 190 426.001 c 0
 187 423.001 185 418.001 184 414.001 c 0
 183 409.001 181 404.001 180 402.001 c 0
 178 399.001 175 393.001 173 388.001 c 0
 171 382.001 170 377.001 170 373.001 c 0
 171 367.001 170 365.001 165 358.001 c 0
 162 353.001 159 349.001 159 348.001 c 1
 159 348.001 157 344.001 154 341.001 c 1
 151 335.001 150 332.001 150 322.001 c 0
 150 313.001 149 308.001 147 306.001 c 1
 146 303.001 143 298.001 142 294.001 c 0
 141 290.001 139 284.001 137 280.001 c 0
 136 277.001 133 272.001 131 269.001 c 0
 129 266.001 127 263.001 127 261.001 c 0
 127 259.001 125 254.001 123 250.001 c 0
 121 245.001 120 241.001 121 237.001 c 1
 121 233.001 121 230.001 118 227.001 c 0
 116 225.001 115 220.001 115 216.001 c 0
 115 211.001 114 208.001 110 205.001 c 0
 107 202.001 106 199.001 106 194.001 c 0
 106 191.001 105 187.001 104 186.001 c 1
 102 185.001 101 180.001 100 176.001 c 0
 99 172.001 97 165.001 95 161.001 c 1
 92 158.001 90 154.001 90 153.001 c 0
 90 151.001 89 147.001 87 144.001 c 0
 85 140.001 82 136.001 81 135.001 c 1
 79 134.001 78 131.001 78 129.001 c 0
 78 127.001 76 123.001 75 120.001 c 1
 72 116.001 71 111.001 71 103.001 c 0
 71 94.001 70 90.001 68 86.001 c 0
 66 83.001 64 78.001 63 75.001 c 1
 63 72.001 59 63.001 56 56.001 c 0
 51 46.001 50 41.001 50 36.001 c 1
 51 32.001 50 28.001 48 24.001 c 0
 46 21.001 44 16.001 44 13.001 c 0
 44 9.00098 43 5.00098 41 3.00098 c 0
 39 1.00098 37 -1.99902 37 -3.99902 c 0
 37 -5.99902 34 -10.999 30 -15.999 c 0
 26 -19.999 23 -25.999 22 -29.999 c 1
 22 -33.999 20 -39.999 18 -43.999 c 0
 16 -47.999 12 -52.999 9 -55.999 c 1
 5 -57.999 0 -60.999 -4 -62.999 c 0
 -6.61914 -64.3086 -8.09473 -65.0469 -9.42578 -65.0469 c 0
 -11.1436 -65.0469 -12.6191 -63.8174 -16 -61 c 0
 -21 -58 -22 -56 -23 -48 c 0
 -23 -44 -23 -35 -22 -28 c 0
 -21 -18 -19 -14 -15 -9 c 0
 -12 -5 -9 0 -8 3 c 0
 -7 7 -6 12 -6 15 c 0
 -6 18 -5 23 -3 27 c 0
 0 32 1 35 0 40 c 0
 -1 46 0 49 3 55 c 0
 6 60 8 66 8 69 c 0
 8 73 11 82 15 91 c 0
 19 99 24 108 27 111 c 0
 30 114 33 120 34 124 c 0
 35 128 35 135 35 139 c 0
 34 146 34 148 37 151 c 0
 39 153 41 158 42 163 c 0
 43 167 45 173 45 176 c 1
 46 179 49 183 52 186 c 1
 57 189 57 190 56 199 c 0
 55 206 56 211 59 218 c 0
 61 222 62 228 62 229 c 0
 62 231 64 234 65 236 c 1
 67 237 69 241 70 244 c 0
 71 247 74 254 77 260 c 0
 82 269 83 273 84 284 c 0
 85 292 86 300 89 304 c 2
 90 307 94 311 95 313 c 1
 98 314 99 317 99 325 c 0
 99 331 100 338 102 342 c 0
 104 346 106 352 106 355 c 0
 106 358 108 363 109 366 c 1
 112 369 113 374 113 379 c 0
 113 384 114 388 115 389 c 1
 116 389 119 394 121 399 c 0
 123 405 125 410 124 413 c 0
 123 416 124 419 126 422 c 0
 128 425 131 431 134 435 c 0
 136 439 138 448 139 454 c 0
 140 463 141 465 147 471 c 0
 153 478 153 480 154 488 c 2
 154 501 l 1
 153 503 155 510 157 516 c 0
 159 522 163 530 166 533 c 0
 169 536 172 541 173 543 c 0
 174 546 174 551 174 555 c 0
 174 559 176 564 178 566 c 0
 180 569 182 574 183 578 c 0
 184 582 186 588 187 591 c 0
 188 595 191 600 192 602 c 1
 194 604 196 607 196 609 c 0
 196 611 198 614 201 618 c 0
 205 623 206 625 205 632 c 0
 204 640 204 641 209 647 c 0
 212 651 215 657 216 661 c 0
 217 665 218 671 218 674 c 0
 218 679 220 683 222 685 c 0
 224 687 225 691 225 695 c 0
 225 699 227 704 228 707 c 0
 229 710 231 716 232 720 c 1
 232 724 234 729 236 732 c 0
 237 734 239 741 239 751 c 0
 239 759 241 767 242 768 c 2
 243 770 245 771 247 771 c 0
 248 771 253 774 257 778 c 0
 261 782 266 785 268 785 c 0
 271 785 273 786 275 787 c 1
EndSplineSet
Validated: 33
EndChar
StartChar: uni0037
Encoding: 55 55 24
Width: 543
GlyphClass: 2
Flags: W
LayerCount: 2
Fore
SplineSet
83 738 m 1
 85 738 92.335 738.442 101.149 738.442 c 0
 105.557 738.442 110.334 738.331 115.001 737.998 c 0
 139.001 737.998 140.001 737.998 147.001 732.998 c 0
 151.001 730.998 155.001 728.998 156.001 728.998 c 0
 157.001 728.998 159.001 729.998 161.001 730.998 c 0
 162.759 732.17 166.231 732.655 176.244 732.655 c 0
 183.324 732.655 193.675 732.413 209.001 731.999 c 0
 243.001 730.999 255.001 729.999 260.001 727.999 c 0
 265.001 725.999 273.001 724.999 293.001 724.999 c 0
 299.164 724.731 303.963 724.607 307.763 724.607 c 0
 318.145 724.607 321.072 725.535 324 726.999 c 0
 327 728.999 332 730.999 337 730.999 c 0
 341 730.999 350 728.999 356 726.999 c 0
 365 723.999 369 722.999 382 723.999 c 0
 390 724.999 398 725.999 401 725.999 c 0
 403 725.999 409 724.999 414 723.999 c 0
 419 722.999 424 723.999 427 724.999 c 0
 433 726.999 433 726.999 436 722.999 c 0
 438 719.999 441 717.999 443 717.999 c 0
 444 717.999 448 716.999 450 714.999 c 0
 453 712.999 456 710.999 457 710.999 c 0
 459 710.999 463 707.999 466 704.999 c 0
 469 700.999 473 696.999 475 694.999 c 0
 477 692.999 479 687.999 479 681.999 c 2
 480 676.999 479 668.999 478 665.999 c 0
 477 661.999 477 657.999 479 653.999 c 1
 479.707 651.171 480.414 646.843 480.414 642.429 c 0
 480.414 640.601 480.293 638.758 480 637 c 0
 480 632 478 627 477 626 c 0
 476 625 474 620 473 616 c 0
 472 611 470 606 469 604 c 1
 467 603 466 599 466 597 c 0
 466 595 464 591 462 589 c 0
 460 586 458 582 458 574 c 1
 457 568 456 561 454 558 c 0
 453 556 451 549 450 543 c 0
 449 538 448 531 447 528 c 1
 447 526 444 522 442 520 c 0
 440 517 438 514 438 513 c 0
 438 511 436 508 434 505 c 0
 433 503 430 498 429 494 c 0
 428 490 425 484 422 481 c 2
 420 477 416 473 414 470 c 0
 412 467 409 460 408 454 c 0
 407 449 405 443 404 441 c 0
 403 439 403 436 403 434 c 0
 403 432 401 429 398 427 c 1
 395 423 394 421 395 417 c 1
 395 413 395 411 392 408 c 0
 390 406 387 401 386 397 c 2
 384 394 383 389 382 387 c 1
 382 385 379 381 377 379 c 0
 374 376 373 373 373 369 c 0
 373 365 370 357 366 349 c 0
 363 342 358 332 356 327 c 0
 353 321 350 314 348 310 c 0
 346 307 345 303 345 301 c 0
 345 300 343 297 341 294 c 0
 339 292 338 287 338 284 c 0
 338 280 337 275 335 272 c 0
 334 270 332 265 332 261 c 1
 331 257 329 252 327 250 c 0
 325 247 324 243 324 240 c 0
 324 238 321 230 318 223 c 0
 316 216 311 208 309 205 c 1
 306 203 304 199 304 197 c 0
 304 195 303 192 302 191 c 1
 300 190 296 183 292 175 c 0
 288 167 285 160 283 159 c 1
 282 158 281 156 281 154 c 0
 281 152 280 148 279 147 c 0
 277 145 276 141 276 139 c 0
 276 137 274 133 272 131 c 0
 269 127 268 123 268 114 c 0
 268 108 267 101 266 99 c 0
 265 97 264 92 263 88 c 1
 263 84 261 79 260 77 c 0
 258 74 256 67 255 60 c 0
 254 54 251 45 250 42 c 0
 248 38 246 34 246 33 c 0
 246 31 244 27 242 24 c 0
 237 19 237 19 219 19 c 2
 195 19 l 1
 174 19 l 2
 166 19 158 20 156 21 c 1
 155 22 152 25 150 29 c 1
 146 34 146 37 147 46 c 0
 147 52 149 60 150 65 c 1
 152 69 155 75 158 77 c 1
 160 80 162 84 162 86 c 0
 162 87 163 90 165 92 c 1
 166 94 167 99 167 103 c 0
 167 110 168 112 174 117 c 0
 180 123 181 125 181 131 c 0
 181 135 182 139 184 140 c 1
 186 142 187 144 186 147 c 1
 186 150 187 152 190 155 c 1
 194 157 195 160 195 163 c 0
 195 166 197 170 199 173 c 0
 201 175 203 180 204 183 c 0
 205 186 207 191 208 195 c 0
 209 198 211 204 213 207 c 0
 215 211 216 215 216 216 c 0
 216 217 220 225 224 234 c 0
 229 243 233 254 234 259 c 0
 235 264 236 270 237 272 c 1
 237 275 240 279 242 281 c 0
 244 283 246 286 246 288 c 0
 246 290 248 294 249 297 c 1
 251 300 253 306 253 309 c 1
 254 312 256 319 258 324 c 0
 260 329 264 338 267 342 c 0
 270 347 273 352 273 353 c 0
 273 355 275 361 279 368 c 0
 282 375 286 381 287 382 c 0
 288 383 289 387 289 391 c 0
 289 394 290 399 291 401 c 1
 293 403 294 406 294 408 c 0
 294 410 295 413 297 415 c 0
 299 417 301 420 301 423 c 1
 302 425 304 433 306 439 c 0
 308 445 311 452 312 455 c 0
 313 457 315 462 315 464 c 1
 316 467 318 474 321 479 c 2
 323 485 327 492 329 496 c 0
 332 500 335 506 336 510 c 0
 337 514 339 519 341 521 c 0
 343 524 345 529 347 534 c 0
 349 538 352 544 355 547 c 0
 359 550 361 554 361 557 c 0
 361 560 362 565 364 569 c 0
 366 572 369 580 373 586 c 0
 376 591 378 599 378 602 c 0
 378 606 379 608 382 610 c 0
 386 612 387 614 387 622 c 0
 387 627 386 633 384 637 c 0
 383 640 381 643 379 643 c 0
 378 643 372 645 367 648 c 0
 361 651 356 653 355 653 c 0
 353 653 350 651 347 649 c 0
 342 646 340 645 334 646 c 0
 330 646 322 648 317 650 c 0
 312 652 304 653 298 653 c 0
 292 653 281 655 274 657 c 0
 267 659 259 660 256 660 c 0
 253 660 250 659 247 656 c 0
 244 652 242 651 237 652 c 0
 234 653 229 655 226 656 c 0
 222 658 213 659 186 659 c 0
 166 660 149 660 148 661 c 1
 148 661 140 661 131 660 c 0
 118 659 114 659 108 662 c 0
 104 664 97 666 93 666 c 0
 89 666 84 667 80 668 c 1
 77 670 72 671 71 671 c 0
 69 671 66 673 64 675 c 1
 63 678 60 680 57 681 c 1
 55 681 53 683 52 684 c 1
 52 686 51 691 50 696 c 1
 50 710 l 1
 51 713 54 718 58 722 c 2
 61 726 67 730 70 733 c 1
 74 735 79 737 83 738 c 1
EndSplineSet
Validated: 33
EndChar
StartChar: uni003B
Encoding: 59 59 28
Width: 345
GlyphClass: 2
Flags: W
LayerCount: 2
Fore
SplineSet
202 117 m 1
 208 119 213 120 224 120 c 0
 232 120 240 119 241 118 c 1
 242 118 243 114 243 111 c 0
 243 107 241 100 239 96 c 1
 238 92 235 84 235 78 c 0
 234 69 232 66 228 61 c 0
 224 57 222 53 222 53 c 1
 222 52 219 47 215 43 c 0
 209 36 208 36 208 22 c 0
 208 9 208 9 201 2 c 0
 195 -4 194 -6 194 -11 c 0
 194 -14 192 -19 191 -20 c 1
 190 -22 188 -26 188 -28 c 0
 188 -31 187 -35 185 -37 c 0
 183 -39 181 -42 181 -44 c 0
 181 -45 179 -48 177 -50 c 0
 174 -53 172 -56 172 -60 c 0
 172 -64 171 -70 170 -75 c 1
 168 -80 164 -85 160 -88 c 1
 156 -92 153 -95 153 -98 c 0
 153 -100 152 -103 150 -105 c 0
 148 -107 145 -110 143 -111 c 0
 141 -112 135 -113 130 -113 c 0
 124 -113 119 -112 117 -110 c 1
 115 -109 112 -107 110 -107 c 0
 108 -107 104 -105 101 -102 c 0
 99 -99 97 -95 97 -94 c 0
 97 -92 98 -89 100 -86 c 0
 101 -84 102 -80 102 -77 c 0
 102 -75 103 -71 105 -68 c 1
 106 -65 107 -61 107 -58 c 0
 107 -56 109 -48 111 -41 c 0
 113 -33 116 -22 117 -15 c 0
 119 -8 121 4 122 12 c 0
 124 26 124 27 131 34 c 0
 137 40 138 41 137 48 c 0
 136 54 136 57 140 65 c 0
 143 70 144 76 144 81 c 0
 144 87 145 90 148 92 c 0
 150 93 151 96 151 99 c 0
 151 102 153 107 155 109 c 0
 158 113 159 113 176 113 c 0
 190 113 196 114 202 117 c 1
221 520 m 0
 224 525 225.999 526.999 229.999 526.999 c 0
 231.999 526.999 235.999 524.999 238.999 521.999 c 0
 241.999 518.999 243.999 514.999 243.999 512.999 c 0
 243.999 510.999 245.999 507.999 246.999 505.999 c 0
 250.223 499.553 251.36 494.938 251.36 492.173 c 0
 251.36 488.416 250.056 485.583 247 480.999 c 0
 243 473.999 243 471.999 244 463.999 c 0
 244 458.999 246 453.999 248 450.999 c 0
 250 446.999 250 444.999 248 437.999 c 0
 247 433.999 244 427.999 243 424.999 c 1
 241 421.999 235 416.999 229 412.999 c 0
 221 407.999 217 405.999 212 405.999 c 0
 208 405.999 201 406.999 196 408.999 c 0
 191 410.999 181 412.999 173 413.999 c 0
 159 414.999 159 414.999 154 422.999 c 0
 150.545 428.527 149.478 430.235 149.478 437.691 c 0
 149.478 441.026 149.691 445.511 150 452 c 0
 150.5 458 150.75 464.75 150.75 470.875 c 0
 150.75 477 150.5 482.5 150 486 c 0
 150 494 150 500 151 502 c 0
 153 505 154 506 159 505 c 0
 163 504 166 505 171 508 c 0
 176 512 180 513 187 513 c 2
 206 513 l 2
 216 513 216 513 221 520 c 0
EndSplineSet
Validated: 33
EndChar
StartChar: uni003C
Encoding: 60 60 29
Width: 754
GlyphClass: 2
Flags: W
LayerCount: 2
Fore
SplineSet
602 558 m 0
 609.5 560.25 614.75 561.374 620.281 561.374 c 0
 622.125 561.374 624 561.249 626 560.999 c 0
 631 560.999 636 558.999 637 557.999 c 0
 638 556.999 638 552.999 636 549.999 c 1
 635 546.999 634 541.999 634 538.999 c 0
 634 535.999 632 532.999 631 531.999 c 1
 629 530.999 627 526.999 626 522.999 c 1
 624 519.999 620 513.999 616 510.999 c 2
 612 506.999 606 503.999 602 502.999 c 1
 599 502.999 594 501.999 591 501.999 c 0
 588 501.999 581 499.999 576 496.999 c 0
 571 493.999 564 487.999 560 483.999 c 1
 557 479.999 553 475.999 553 474.999 c 0
 553 473.999 551 471.999 550 469.999 c 1
 548 467.999 544 466.999 539 466.999 c 0
 531 466.999 530 465.999 526 461.999 c 1
 523 456.999 522 455.999 515 456.999 c 0
 511 457.999 506 458.999 503 458.999 c 0
 500 458.999 497 457.999 497 455.999 c 1
 496 454.999 494 451.999 492 449.999 c 0
 489 446.999 486 445.999 480 445.999 c 0
 473 445.999 472 444.999 467 438.999 c 0
 464 434.999 460 431.999 458 431.999 c 0
 456 431.999 452 430.999 449 428.999 c 1
 446 427.999 441 425.999 438 425.999 c 1
 436 424.999 430 420.999 424 416.999 c 0
 419 412.999 414 408.999 413 408.999 c 0
 412 408.999 408 406.999 405 403.999 c 0
 401 400.999 397 398.999 395 398.999 c 0
 392 398.999 386 396.999 381 393.999 c 1
 376 391.999 369 389.999 366 389.999 c 0
 362 389.999 359 387.999 355 382.999 c 0
 349 376.999 347 375.999 341 375.999 c 0
 337 375.999 332 374.999 331 374.999 c 1
 329 373.999 327 370.999 325 367.999 c 1
 324 364.999 320 361.999 316 360.999 c 1
 313 358.999 310 356.999 309 354.999 c 1
 309 353.999 305 349.999 301 347.999 c 0
 294 342.999 292 341.999 279 341.999 c 0
 266 341.999 264 341.999 259 336.999 c 0
 256 334.999 251 330.999 248 328.999 c 1
 245 327.999 237 322.999 231 318.999 c 0
 224 313.999 217 310.999 216 310.999 c 0
 215 310.999 212 307.999 210 305.999 c 0
 207 302.999 202 298.999 199 297.999 c 0
 196 296.999 193 294.999 192 293.999 c 1
 192 292.999 191 290.999 191 287.999 c 0
 191 285.999 194 280.999 197 276.999 c 0
 200 271.999 203 268.999 204 268.999 c 0
 205 268.999 209 264.999 213 261.999 c 1
 219 255.999 222 254.999 227 254.999 c 0
 231 254.999 235 252.999 238 249.999 c 0
 241 246.999 244 245.999 248 245.999 c 0
 252 245.999 256 243.999 258 241.999 c 0
 260 239.999 264 238.999 266 238.999 c 0
 269 238.999 275 236.999 280 235.999 c 1
 285 233.999 290 230.999 291 229.999 c 1
 292 227.999 298 222.999 304 218.999 c 0
 311 213.999 319 209.999 322 208.999 c 1
 325 208.999 329 205.999 330 203.999 c 1
 333 200.999 335 199.999 340 199.999 c 0
 345 199.999 347 198.999 351 194.999 c 0
 353 191.999 356 189.999 358 189.999 c 0
 359 189.999 363 187.999 365 184.999 c 0
 368 181.999 370 180.999 375 181.999 c 0
 379 182.999 382 181.999 386 178.999 c 0
 389 176.999 392 174.999 393 174.999 c 0
 394 174.999 395 173.999 396 172.999 c 0
 397 171.999 401 168.999 404 166.999 c 0
 408 163.999 414 160.999 418 158.999 c 1
 422 157.999 426 155.999 427 155.999 c 0
 428 155.999 432 152.999 436 149.999 c 1
 440 145.999 444 143.999 448 143.999 c 0
 451 143.999 457 142.999 461 141.999 c 1
 465 139.999 470 137.999 471 135.999 c 1
 471 134.999 475 132.999 479 131.999 c 0
 482 130.999 490 126.999 495 122.999 c 0
 500 118.999 507 113.999 509 111.999 c 0
 511 108.999 518 104.999 524 101.999 c 0
 529 98.999 535 95.999 536 95.999 c 0
 537 95.999 542 93.999 546 89.999 c 1
 553 84.999 556 83.999 563 82.999 c 1
 569 82.999 574 81.999 577 79.999 c 0
 580 77.999 585 73.999 589 71.999 c 0
 593 69.999 599 67.999 604 65.999 c 0
 608 64.999 613 62.999 616 60.999 c 0
 618 58.999 623 56.999 627 55.999 c 0
 634 54.999 635 54.999 642 41.999 c 0
 647 33.999 653 24.999 656 20.999 c 0
 659 16.999 662 11.999 663 8.99902 c 1
 663 6.99902 663 1.99902 662 -2.00098 c 0
 661 -6.00098 658 -11.001 655 -13.001 c 0
 651.181 -16.0566 649.695 -17.3613 642.965 -17.3613 c 0
 640.885 -17.3613 638.305 -17.2363 635 -17 c 0
 627 -16 619 -15 617 -14 c 1
 616 -13 613 -9 611 -4 c 0
 609 1 606 3 604 3 c 0
 602 3 599 6 596 9 c 0
 593 12 588 15 585 17 c 1
 582 18 577 19 574 19 c 0
 570 19 564 22 556 27 c 0
 550 32 543 36 542 38 c 1
 541 39 537 40 531 40 c 0
 526 40 521 41 518 44 c 1
 515 45 511 47 508 48 c 0
 504 49 500 52 497 56 c 0
 495 59 488 66 483 71 c 0
 476 77 471 81 467 81 c 1
 463 82 458 82 455 82 c 0
 451 82 446 84 442 87 c 0
 439 90 434 93 433 94 c 2
 431 95 428 98 426 101 c 1
 425 104 420 109 415 112 c 0
 409 116 405 118 398 118 c 0
 389 118 388 118 381 125 c 0
 374 131 373 132 366 131 c 0
 359 130 357 130 353 133 c 0
 350 135 346 137 344 137 c 0
 342 137 337 140 332 144 c 0
 327 149 321 154 317 156 c 0
 314 158 310 159 308 159 c 1
 306 158 305 159 303 161 c 1
 302 163 298 167 295 168 c 0
 291 170 286 175 283 179 c 0
 278 187 278 187 266 186 c 0
 256 186 254 186 252 189 c 0
 251 191 247 194 244 196 c 1
 240 197 234 200 230 203 c 1
 225 205 219 207 215 207 c 0
 208 207 206 208 196 219 c 0
 189 225 183 230 182 230 c 0
 181 230 176 234 171 239 c 0
 166 244 160 248 158 249 c 1
 155 249 152 250 150 251 c 0
 148 252 142 255 137 258 c 0
 133 261 127 263 126 263 c 0
 125 263 120 267 116 271 c 0
 111 277 108 279 104 279 c 0
 101 279 97 281 96 282 c 0
 94 284 92 287 92 290 c 2
 91 293 92 297 93 300 c 1
 95 302 97 306 99 307 c 2
 101 309 107 312 113 314 c 0
 121 316 125 319 134 327 c 1
 139 333 145 337 146 337 c 0
 147 337 150 338 152 339 c 0
 155 341 161 342 165 343 c 0
 170 344 176 346 179 348 c 1
 182 349 188 352 193 353 c 2
 197 355 203 357 207 357 c 1
 210 358 216 361 219 364 c 0
 223 368 229 372 233 374 c 0
 236 376 242 378 245 378 c 1
 248 379 251 380 252 381 c 1
 252 382 257 385 261 387 c 0
 266 390 272 392 273 392 c 0
 274 392 281 397 287 403 c 0
 298 413 300 414 306 414 c 0
 310 414 317 416 323 418 c 0
 328 420 335 424 339 426 c 0
 343 429 346 432 346 434 c 1
 347 436 349 438 350 439 c 0
 351 440 358 443 364 445 c 1
 371 446 379 449 382 449 c 1
 386 450 392 452 396 454 c 0
 401 456 405 458 407 459 c 1
 408 460 413 462 418 465 c 1
 423 467 427 469 428 469 c 0
 429 469 434 472 439 475 c 0
 443 478 447 482 448 483 c 2
 454 487 l 2
 456 489 464 494 471 497 c 0
 478 500 486 503 489 503 c 1
 492 504 496 506 498 508 c 0
 499 509 505 512 509 514 c 1
 513 515 522 517 528 518 c 1
 538 518 539 519 543 525 c 0
 545 529 551 534 555 537 c 0
 560 541 564 545 565 548 c 0
 566 551 568 554 570 555 c 0
 572 556 576 556 581 555 c 0
 588 554 592 554 602 558 c 0
EndSplineSet
Validated: 33
EndChar
StartChar: uni0042
Encoding: 66 66 35
Width: 705
GlyphClass: 2
Flags: W
LayerCount: 2
Fore
SplineSet
287 353 m 1
 283 356 280.001 355.999 259.001 356.999 c 0
 236.001 356.999 236.001 356.999 224.001 350.999 c 0
 217.001 347.999 210.001 342.999 207.001 340.999 c 0
 204.001 337.999 202.001 334.999 202.001 332.999 c 0
 202.001 330.999 201.001 325.999 199.001 321.999 c 0
 196.001 316.999 196.001 312.999 196.001 297.999 c 0
 197.001 288.999 197.001 274.999 198.001 267.999 c 2
 198.001 259.999 199.001 252.999 200.001 249.999 c 1
 202.001 246.999 202.001 244.999 200.001 239.999 c 1
 198.001 236.999 197.001 230.999 197.001 225.999 c 0
 197.001 220.999 198.001 213.999 200.001 210.999 c 1
 202.001 205.999 203.001 199.999 203.001 170.999 c 0
 203.001 141.999 202.001 134.999 200.001 129.999 c 0
 198.001 125.999 197.001 120.999 198.001 114.999 c 2
 198.001 109.999 199.001 104.999 200.001 103.999 c 0
 201.001 102.999 202.001 95.999 204.001 89.999 c 0
 207.001 78.999 207.001 78.999 216.001 73.999 c 0
 222.001 70.999 227.001 68.999 229.001 68.999 c 0
 230.001 68.999 233.001 70.999 236.001 72.999 c 0
 238.001 74.999 243.001 75.999 247.001 75.999 c 0
 250.001 75.999 255.001 74.999 257.001 73.999 c 0
 260.001 71.999 270.001 70.999 296.001 69.999 c 0
 301.858 69.7061 307.459 69.585 312.525 69.585 c 0
 324.758 69.585 333.879 70.292 336 70.999 c 0
 338 71.999 345 70.999 353 69.999 c 0
 364 68.999 366 68.999 374 73.999 c 1
 381 76.999 384 77.999 388 76.999 c 0
 391 75.999 399 75.999 407 75.999 c 0
 415 75.999 422 76.999 424 76.999 c 1
 425 77.999 427 79.999 429 82.999 c 1
 430 86.999 431 86.999 439 85.999 c 0
 446 84.999 450 85.999 459 89.999 c 0
 468 93.999 472 95.999 474 100.999 c 0
 476 104.999 479 106.999 482 106.999 c 1
 485 107.999 491 111.999 498 118.999 c 0
 506 125.999 510 132.999 513 138.999 c 1
 515 144.999 519 151.999 521 155.999 c 0
 524 161.999 525 164.999 524 169.999 c 0
 523 174.999 524 177.999 527 181.999 c 0
 531 186.999 532 189.999 532 206.999 c 0
 532.236 211.485 532.36 215.022 532.36 217.916 c 0
 532.36 227.278 531.056 229.889 528 236 c 0
 525 242 524 247 524 253 c 0
 524 258 522 263 521 265 c 0
 520 267 518 270 518 272 c 0
 518 274 517 277 515 279 c 0
 513 281 511 284 510 287 c 1
 510 290 507 293 505 294 c 0
 502 296 498 300 495 305 c 0
 490 312 487 315 478 320 c 0
 471 323 464 328 462 330 c 0
 460 332 457 334 456 334 c 0
 455 334 451 336 447 339 c 0
 443 342 438 343 433 343 c 0
 429 343 423 344 419 346 c 0
 416 348 410 349 402 349 c 0
 394 349 390 350 386 353 c 0
 382 355 378 356 365 356 c 0
 356 355 346 355 342 355 c 0
 338 355 333 353 330 352 c 1
 328 350 320 349 308 349 c 0
 293 349 290 349 287 353 c 1
259.001 667.999 m 0
 252.001 669.999 241.001 671.999 233.001 671.999 c 0
 230.001 672.249 227.626 672.374 225.673 672.374 c 0
 219.813 672.374 217.751 671.249 214.001 668.999 c 1
 212.001 665.999 209.001 664.999 208.001 664.999 c 0
 207.001 664.999 205.001 662.999 205.001 660.999 c 1
 204.001 657.999 202.001 653.999 199.001 650.999 c 1
 196.751 646.499 195.626 644.249 195.626 637.077 c 0
 195.626 634.687 195.751 631.749 196.001 627.999 c 0
 196.001 616.999 197.001 608.999 199.001 604.999 c 0
 201.001 600.999 202.001 589.999 203.001 546.999 c 0
 203.001 498.999 203.001 493.999 200.001 487.999 c 0
 198.001 482.999 197.001 476.999 197.001 466.999 c 0
 197.001 458.999 198.001 451.999 199.001 449.999 c 0
 200.001 447.999 202.001 439.999 203.001 433.999 c 0
 204.001 423.999 206.001 420.999 209.001 417.999 c 0
 212.001 415.999 219.001 414.999 234.001 413.999 c 0
 245.001 412.999 256.001 412.999 257.001 412.999 c 0
 259.001 412.999 289.001 413.999 323.001 413.999 c 0
 377.001 413.999 385.001 414.999 389.001 416.999 c 1
 392.001 419.999 397.001 419.999 410.001 419.999 c 0
 427.001 419.999 427.001 419.999 439.001 433.999 c 0
 450.001 443.999 454.001 446.999 461.001 448.999 c 0
 470.001 451.999 471.001 452.999 473.001 458.999 c 0
 474.001 462.999 478.001 470.999 482.001 475.999 c 0
 486.001 479.999 490.001 484.999 492.001 485.999 c 1
 493.001 486.999 496.001 488.999 497.001 490.999 c 2
 498.001 491.999 499.001 495.999 499.001 499.999 c 0
 499.001 502.999 500.001 507.999 501.001 510.999 c 0
 502.001 512.999 503.001 526.999 503.001 541.999 c 0
 503.334 550.333 503.557 555.999 503.557 560.073 c 0
 503.557 568.222 502.668 569.999 500.001 573.999 c 0
 497.001 576.999 495.001 581.999 495.001 584.999 c 0
 495.001 587.999 494.001 593.999 492.001 596.999 c 0
 490.001 600.999 486.001 605.999 483.001 608.999 c 0
 480.001 611.999 478.001 614.999 478.001 615.999 c 0
 478.001 617.999 475.001 621.999 471.001 625.999 c 0
 467.001 629.999 463.001 632.999 462.001 632.999 c 0
 461.001 632.999 460.001 634.999 459.001 636.999 c 0
 457.001 640.999 456.001 641.999 452.001 641.999 c 0
 449.001 641.999 446.001 642.999 445.001 643.999 c 0
 443.001 645.999 438.001 648.999 432.001 651.999 c 0
 423.001 656.999 418.001 657.999 405.001 658.999 c 0
 394.001 659.999 388.001 660.999 384.001 662.999 c 0
 380.001 665.999 375.001 665.999 360.001 665.999 c 0
 345.001 665.999 340.001 666.999 333.001 669.999 c 0
 329.197 671.901 326.197 672.598 320.688 672.598 c 0
 317.508 672.598 313.491 672.365 308.001 671.999 c 0
 299.001 671.999 289.001 669.999 287.001 668.999 c 0
 284.001 667.999 280.001 665.999 276.001 665.999 c 2
 273.001 664.999 267.001 664.999 259.001 667.999 c 0
286.001 731.999 m 1
 302.002 731.999 l 2
 310.002 730.999 321.002 729.999 326.002 728.999 c 0
 333.002 726.999 337.002 725.999 340.002 727.999 c 1
 343.002 728.999 351.002 729.999 358.002 729.999 c 0
 366.002 729.999 385.002 729.999 401.002 728.999 c 0
 423.002 727.999 432.002 726.999 435.002 724.999 c 0
 438.002 722.999 441.002 722.999 444.002 722.999 c 1
 447.002 723.999 454.002 723.999 460.002 722.999 c 0
 468.002 720.999 471.002 719.999 475.002 714.999 c 0
 478.002 709.999 481.002 708.999 483.002 708.999 c 1
 485.002 709.999 488.002 708.999 490.002 705.999 c 0
 493.002 702.999 496.002 700.999 501.002 700.999 c 0
 504.002 700.999 509.002 699.999 511.002 698.999 c 1
 512.002 696.999 515.002 695.999 517.002 695.999 c 0
 519.002 695.999 529.002 687.999 540.002 677.999 c 0
 559.002 659.999 560.002 658.999 566.002 643.999 c 0
 570.002 633.999 573.002 627.999 576.002 625.999 c 1
 579.002 624.999 581.002 622.999 581.002 622.999 c 1
 582.002 622.999 582.002 618.999 582.002 615.999 c 0
 582.002 610.999 583.002 605.999 585.002 601.999 c 0
 588.002 596.999 589.002 591.999 590.002 582.999 c 0
 590.002 573.999 591.002 570.999 594.002 566.999 c 0
 597.002 562.999 597.002 560.999 596.002 556.999 c 2
 596.002 553.999 594.002 548.999 592.002 545.999 c 0
 589.002 541.999 589.002 536.999 589.002 523.999 c 0
 589.002 508.999 588.002 506.999 585.002 503.999 c 0
 583.002 501.999 581.002 497.999 581.002 493.999 c 1
 580.002 489.999 578.002 484.999 577.002 481.999 c 0
 576.002 479.999 575.002 476.999 575.002 474.999 c 0
 575.002 472.999 573.002 469.999 571.002 468.999 c 1
 569.002 466.999 568.002 464.999 568.002 463.999 c 0
 568.002 462.999 565.002 457.999 561.002 452.999 c 1
 557.002 445.999 552.002 441.999 547.002 439.999 c 0
 543.002 437.999 536.002 432.999 532.002 427.999 c 0
 528.002 423.999 523.002 419.999 521.002 419.999 c 0
 519.002 419.999 515.002 418.999 512.002 416.999 c 0
 509.002 414.999 506.002 412.999 504.002 412.999 c 0
 502.002 412.999 499.002 410.999 497.002 407.999 c 0
 495.002 404.999 491.002 399.999 488.002 396.999 c 0
 485.002 394.999 483.002 390.999 483.002 388.999 c 0
 483.002 386.999 485.002 381.999 487.002 377.999 c 0
 489.002 374.999 492.002 369.999 494.002 368.999 c 2
 496.002 366.999 501.002 365.999 504.002 365.999 c 0
 508.002 365.999 514.002 363.999 519.002 361.999 c 1
 523.002 358.999 528.002 356.999 530.002 356.999 c 0
 533.002 356.999 539.002 352.999 546.002 346.999 c 0
 553.002 340.999 561.002 334.999 565.002 331.999 c 0
 570.002 328.999 575.002 323.999 577.002 318.999 c 0
 579.002 313.999 583.002 308.999 586.002 307.999 c 1
 589.002 305.999 590.002 304.999 590.002 301.999 c 1
 589.002 298.999 590.002 295.999 597.002 290.999 c 0
 602.002 286.999 604.002 283.999 604.002 280.999 c 0
 604.002 278.999 606.002 274.999 607.002 273.999 c 1
 608.002 271.999 610.002 266.999 610.002 263.999 c 0
 610.002 260.999 611.002 254.999 613.002 251.999 c 0
 615.002 248.999 617.002 243.999 617.002 241.999 c 0
 617.002 238.999 618.002 233.999 620.002 229.999 c 0
 622.002 225.999 624.002 219.999 624.002 215.999 c 0
 624.002 210.999 623.002 205.999 622.002 202.999 c 0
 621.002 199.999 619.002 188.999 618.002 178.999 c 0
 617.002 161.999 616.002 157.999 612.002 150.999 c 0
 610.002 146.999 608.002 140.999 608.002 136.999 c 0
 608.002 132.999 607.002 127.999 606.002 124.999 c 1
 604.002 121.999 602.002 117.999 600.002 116.999 c 1
 599.002 114.999 597.002 112.999 597.002 110.999 c 0
 597.002 108.999 595.002 102.999 592.002 96.999 c 0
 589.002 91.999 585.002 85.999 583.002 83.999 c 1
 581.002 82.999 570.002 71.999 558.002 60.999 c 0
 539.002 41.999 538.002 40.999 531.002 40.999 c 0
 526.002 40.999 522.002 39.999 519.002 36.999 c 0
 516.002 34.999 512.002 31.999 509.002 30.999 c 1
 506.002 30.999 502.002 28.999 499.002 26.999 c 0
 497.002 24.999 493.002 22.999 491.002 22.999 c 0
 488.002 22.999 484.002 21.999 481.002 20.999 c 0
 477.002 18.999 473.008 18.0752 461.002 18.999 c 0
 448.002 19.999 446.002 19.999 439.002 15.999 c 0
 432.002 11.999 430.002 10.999 420.002 11.999 c 0
 414.002 11.999 409.002 12.999 408.002 13.999 c 1
 407.002 13.999 403.002 13.999 400.002 12.999 c 0
 397.002 11.999 393.002 8.99902 391.002 6.99902 c 1
 389.474 3.94336 387.945 2.63867 386.417 2.63867 c 2
 385.001 2.99902 l 1
 384.001 3.99902 370.001 4.99902 354.001 4.99902 c 0
 339.001 5.99902 323.001 5.99902 320.001 5.99902 c 0
 316.001 5.99902 308.001 6.99902 302.001 7.99902 c 0
 293.001 8.99902 288.001 8.99902 283.001 7.99902 c 0
 276.001 5.99902 274.001 5.99902 268.001 8.99902 c 1
 264.001 9.99902 255.001 11.999 248.001 11.999 c 0
 237.001 12.999 235.001 12.999 231.001 8.99902 c 1
 227.001 5.99902 226.001 5.99902 186.001 4.99902 c 0
 149.001 4.99902 144.001 4.99902 138.001 7.99902 c 0
 134.001 9.99902 128.001 13.999 123.001 17.999 c 0
 116.001 23.999 116.001 23.999 117.001 34.999 c 0
 117.001 44.999 117.001 46.999 113.001 52.999 c 0
 111.001 55.999 109.001 59.999 109.001 60.999 c 0
 109.001 61.999 111.001 65.999 114.001 68.999 c 0
 118.001 74.999 118.001 75.999 118.001 94.999 c 2
 118.001 116.999 l 2
 118.001 118.999 117.001 121.999 115.001 122.999 c 0
 113.001 123.999 111.001 125.999 109.001 126.999 c 0
 106.658 128.757 105.688 129.828 105.688 131.62 c 0
 105.688 132.887 106.173 134.514 107.001 136.999 c 0
 108.001 140.999 110.001 157.999 110.001 175.999 c 0
 111.001 192.999 111.001 212.999 112.001 218.999 c 2
 112.001 228.999 113.001 232.999 115.001 236.999 c 0
 118.001 240.999 119.001 244.999 118.001 256.999 c 0
 118.001 264.999 117.001 280.999 117.001 290.999 c 2
 117.001 324.999 l 1
 117.001 342.999 l 2
 117.001 345.999 116.001 349.999 116.001 352.999 c 2
 116.001 385.999 l 2
 117.001 401.999 117.001 422.999 117.001 433.999 c 0
 116.001 445.999 116.001 458.999 116.001 463.999 c 0
 116.001 469.999 115.001 476.999 115.001 479.999 c 2
 114.001 483.999 114.001 494.999 115.001 506.999 c 0
 115.918 518.006 118.001 534.999 118.001 545.999 c 2
 118.001 569.999 l 2
 118.001 571.999 118.001 590.999 117.001 612.999 c 0
 117.001 633.999 116.001 652.999 116.001 655.999 c 0
 116.001 657.999 116.001 669.999 117.001 680.999 c 0
 117.001 697.999 118.001 703.999 121.001 710.999 c 0
 124.001 715.999 126.001 719.999 127.001 720.999 c 0
 128.001 721.999 132.001 721.999 135.001 722.999 c 1
 139.001 722.999 145.001 723.999 149.001 725.999 c 0
 157.001 729.999 161.001 729.999 221.001 729.999 c 0
 256.001 729.999 285.001 730.999 286.001 731.999 c 1
EndSplineSet
Validated: 33
EndChar
StartChar: uni0043
Encoding: 67 67 36
Width: 700
GlyphClass: 2
Flags: W
LayerCount: 2
Fore
SplineSet
366 749 m 0
 369 750 373.999 750.001 375.999 750.001 c 0
 378.999 750.001 384.999 749.001 390.999 747.001 c 0
 398.999 744.001 401.999 744.001 404.999 746.001 c 0
 406.999 747.001 409.999 747.001 412.999 745.001 c 1
 416.999 744.001 419.999 744.001 427.999 746.001 c 0
 436.999 749.001 437.999 749.001 447.999 746.001 c 0
 452.999 744.001 459.999 741.001 461.999 740.001 c 1
 463.999 737.001 467.999 737.001 475.999 736.001 c 0
 480.999 736.001 487.999 735.001 489.999 734.001 c 0
 492.999 733.001 496.999 731.001 500.999 731.001 c 0
 503.999 731.001 507.999 730.001 510.999 728.001 c 1
 512.999 725.001 517.999 724.001 521.999 723.001 c 1
 526.999 723.001 530.999 722.001 534.999 717.001 c 0
 537.999 714.001 540.999 712.001 541.999 712.001 c 0
 542.999 712.001 545.999 710.001 548.999 708.001 c 0
 551.999 705.001 555.999 703.001 557.999 703.001 c 0
 559.999 703.001 562.999 702.001 564.999 700.001 c 2
 567.999 699.001 570.999 694.001 573.999 690.001 c 0
 575.999 686.001 580.999 680.001 584.999 677.001 c 0
 587.999 674.001 592.999 672.001 594.999 671.001 c 1
 596.999 671.001 598.999 667.001 601.999 661.001 c 0
 604.999 654.001 606.999 650.001 611.999 647.001 c 0
 614.999 645.001 618.999 642.001 619.999 640.001 c 2
 620.999 639.001 621.999 636.001 621.999 634.001 c 0
 621.999 631.001 623.999 627.001 626.999 624.001 c 0
 628.999 622.001 630.999 618.001 630.999 617.001 c 0
 630.999 616.001 631.999 613.001 633.999 611.001 c 0
 635.999 608.001 637.999 603.001 637.999 600.001 c 0
 637.999 597.001 638.999 592.001 640.999 589.001 c 0
 643.999 586.001 644.999 583.001 644.999 578.001 c 1
 643.999 574.001 644.999 570.001 646.999 568.001 c 0
 650.999 565.001 650.999 564.001 645.999 555.001 c 0
 642.999 549.001 638.999 543.001 635.999 541.001 c 0
 633.999 540.001 630.999 538.001 628.999 538.001 c 0
 626.999 538.001 624.999 537.001 623.999 535.001 c 1
 622.999 534.001 620.999 533.001 619.999 533.001 c 0
 618.999 533.001 615.999 534.001 613.999 536.001 c 0
 610.999 539.001 606.999 539.001 591.999 539.001 c 2
 571.999 539.001 l 1
 569.999 540.001 566.999 545.001 562.999 550.001 c 0
 559.999 555.001 556.999 560.001 556.999 561.001 c 0
 556.999 562.001 555.999 565.001 553.999 567.001 c 0
 551.999 570.001 549.999 575.001 549.999 578.001 c 0
 549.999 581.001 547.999 587.001 543.999 592.001 c 0
 540.999 597.001 537.999 604.001 536.999 609.001 c 0
 535.999 614.001 533.999 619.001 531.999 622.001 c 0
 528.999 625.001 525.999 630.001 523.999 634.001 c 1
 522.999 638.001 519.999 643.001 516.999 646.001 c 0
 514.999 648.001 510.999 650.001 509.999 650.001 c 0
 507.999 650.001 503.999 653.001 499.999 657.001 c 1
 495.999 660.001 490.999 663.001 488.999 663.001 c 0
 486.999 663.001 483.999 665.001 480.999 667.001 c 0
 477.999 670.001 472.999 671.001 467.999 672.001 c 0
 462.999 673.001 455.999 675.001 452.999 677.001 c 0
 446.999 680.001 443.999 680.001 393.999 680.001 c 0
 342.999 679.001 340.999 679.001 336.999 675.001 c 0
 333.999 673.001 330.999 672.001 325.999 672.001 c 0
 322.999 672.001 314.999 669.001 306.999 665.001 c 0
 299.999 662.001 291.999 659.001 290.999 659.001 c 0
 288.999 659.001 284.999 657.001 280.999 655.001 c 1
 277.999 652.001 273.999 650.001 271.999 650.001 c 0
 269.999 650.001 265.999 649.001 261.999 647.001 c 0
 258.999 645.001 250.999 639.001 245.999 633.001 c 0
 239.999 627.001 235.999 621.001 235.999 620.001 c 1
 235.999 620.001 230.999 614.001 225.999 609.001 c 0
 218.999 603.001 215.999 599.001 216.999 597.001 c 1
 217.999 596.001 215.999 591.001 211.999 588.001 c 1
 208.999 584.001 204.999 578.001 203.999 575.001 c 0
 202.999 571.001 199.999 565.001 197.999 561.001 c 0
 195.999 557.001 192.999 551.001 190.999 548.001 c 0
 189.999 546.001 187.999 541.001 187.999 537.001 c 0
 187.999 533.001 185.999 528.001 183.999 523.001 c 1
 179.999 517.001 178.999 514.001 179.999 509.001 c 0
 180.999 504.001 179.999 500.001 175.999 494.001 c 0
 172.999 488.001 171.999 486.001 172.999 476.001 c 0
 173.999 468.001 172.999 464.001 171.999 461.001 c 1
 170.999 460.001 168.999 453.001 167.999 447.001 c 0
 166.999 440.001 165.999 409.001 165.999 375.001 c 0
 165.999 318.001 166.999 314.001 169.999 309.001 c 0
 171.999 305.001 172.999 300.001 173.999 287.001 c 0
 173.999 274.001 174.999 270.001 177.999 266.001 c 0
 180.999 262.001 180.999 261.001 178.999 255.001 c 0
 177.999 250.001 177.999 247.001 178.999 244.001 c 0
 179.999 241.001 180.999 238.001 180.999 236.001 c 0
 180.999 235.001 182.999 230.001 184.999 226.001 c 0
 186.999 222.001 187.999 217.001 187.999 215.001 c 0
 187.999 212.001 190.999 205.001 192.999 199.001 c 0
 195.999 192.001 198.999 187.001 199.999 186.001 c 0
 200.999 185.001 201.999 183.001 201.999 180.001 c 0
 201.999 178.001 202.999 174.001 203.999 172.001 c 0
 204.999 170.001 208.999 165.001 212.999 161.001 c 0
 216.999 157.001 220.999 151.001 221.999 147.001 c 1
 223.999 143.001 228.999 139.001 233.999 135.001 c 0
 238.999 132.001 242.999 128.001 243.999 126.001 c 1
 243.999 124.001 247.999 119.001 252.999 115.001 c 0
 256.999 111.001 260.999 108.001 261.999 108.001 c 0
 262.999 108.001 263.999 106.001 264.999 104.001 c 1
 264.999 102.001 269.999 97.001 273.999 92.001 c 0
 278.999 87.001 283.999 83.001 284.999 83.001 c 0
 286.999 83.001 292.999 80.001 299.999 77.001 c 0
 311.999 70.001 311.999 70.001 349.999 70.001 c 0
 358.749 70.251 365.499 70.376 370.749 70.376 c 0
 386.499 70.376 388.749 69.251 390.999 67.001 c 0
 392.999 65.001 396.999 63.001 399.999 63.001 c 1
 403.999 62.001 407.999 63.001 415.999 67.001 c 0
 423.999 70.001 426.999 71.001 433.999 70.001 c 0
 440.999 69.001 442.999 70.001 447.999 74.001 c 1
 451.999 76.001 454.999 78.001 455.999 78.001 c 0
 456.999 78.001 459.999 79.001 462.999 81.001 c 1
 466.999 82.001 470.999 83.001 473.999 83.001 c 1
 477.999 82.001 478.999 83.001 481.999 88.001 c 0
 484.999 92.001 490.999 97.001 495.999 100.001 c 0
 500.999 103.001 511.999 112.001 520.999 120.001 c 0
 528.999 129.001 535.999 136.001 535.999 137.001 c 0
 535.999 139.001 537.999 142.001 538.999 146.001 c 1
 540.999 150.001 544.999 157.001 546.999 162.001 c 2
 549.999 167.001 551.999 174.001 551.999 177.001 c 0
 551.999 182.001 552.999 186.001 555.999 190.001 c 0
 559.999 195.001 560.999 198.001 559.999 201.001 c 0
 558.999 204.001 559.999 208.001 560.999 210.001 c 0
 561.999 212.001 565.999 215.001 569.999 216.001 c 2
 574.999 219.001 581.999 219.001 594.999 219.001 c 0
 604.999 219.001 616.999 218.001 621.999 218.001 c 1
 629.999 216.001 633.999 215.001 639.999 209.001 c 0
 644.999 205.001 648.999 201.001 648.999 199.001 c 2
 649.999 198.001 650.999 189.001 650.999 179.001 c 0
 650.999 164.001 650.999 162.001 647.999 160.001 c 0
 645.999 159.001 644.999 157.001 644.999 152.001 c 0
 644.999 146.001 643.999 144.001 637.999 138.001 c 0
 633.999 133.001 630.999 129.001 630.999 126.001 c 0
 630.999 124.001 628.999 121.001 626.999 119.001 c 0
 624.999 117.001 622.999 113.001 621.999 109.001 c 0
 619.999 104.001 616.999 100.001 610.999 95.001 c 0
 605.999 91.001 600.999 85.001 599.999 83.001 c 0
 597.999 80.001 595.999 78.001 593.999 78.001 c 1
 592.999 79.001 589.999 76.001 587.999 72.001 c 0
 585.999 69.001 580.999 63.001 576.999 59.001 c 1
 572.999 56.001 564.999 51.001 559.999 48.001 c 1
 554.999 46.001 548.999 41.001 546.999 39.001 c 0
 544.999 36.001 538.999 32.001 534.999 30.001 c 1
 529.999 29.001 524.999 27.001 522.999 27.001 c 0
 519.999 27.001 517.999 25.001 515.999 22.001 c 0
 513.999 19.001 511.999 16.001 509.999 16.001 c 0
 507.999 16.001 504.999 15.001 503.999 13.001 c 1
 500.999 10.001 497.999 9.00098 491.999 9.00098 c 0
 486.999 9.00098 482.999 8.00098 480.999 7.00098 c 1
 479.999 4.00098 476.999 4.00098 470.999 5.00098 c 1
 463.999 5.00098 460.999 5.00098 455.999 2.00098 c 0
 450.999 -1.99902 449.999 -1.99902 417.999 -1.99902 c 0
 408.11 -1.69043 401.277 -1.47656 396.173 -1.47656 c 0
 384.758 -1.47656 381.982 -2.54395 373 -5.99902 c 0
 365.399 -9.4541 362.096 -10.5215 356.82 -10.5215 c 0
 354.461 -10.5215 351.708 -10.3076 348 -9.99902 c 0
 339 -8.99902 333 -7.99902 331 -5.99902 c 0
 328 -2.99902 324 -2.99902 311 -2.99902 c 0
 299 -2.99902 294 -1.99902 291 0.000976562 c 0
 289 1.00098 286 2.00098 285 2.00098 c 0
 284 2.00098 280 5.00098 277 7.00098 c 0
 273 10.001 268 14.001 265 17.001 c 0
 262 20.001 256 23.001 253 24.001 c 0
 249 26.001 245 27.001 242 27.001 c 0
 240 27.001 237 28.001 235 30.001 c 1
 233 31.001 230 32.001 229 32.001 c 0
 227 32.001 224 34.001 222 36.001 c 1
 221 38.001 213 43.001 207 46.001 c 0
 197 52.001 192 56.001 185 65.001 c 0
 179 72.001 174 77.001 173 78.001 c 1
 172 78.001 169 81.001 166 84.001 c 0
 163 87.001 159 91.001 156 92.001 c 1
 153 95.001 151 97.001 151 100.001 c 0
 151 103.001 150 107.001 149 108.001 c 0
 148 109.001 144 112.001 141 115.001 c 1
 136 117.001 133 121.001 131 127.001 c 1
 125 139.001 l 1
 123 141.001 122 145.001 122 146.001 c 0
 122 148.001 120 151.001 118 153.001 c 1
 116 154.001 114 158.001 114 161.001 c 0
 114 164.001 113 166.001 108 169.001 c 0
 105 171.001 102 174.001 102 175.001 c 0
 102 176.001 103 179.001 105 180.001 c 1
 106 181.001 107 183.001 107 185.001 c 0
 107 186.001 106 189.001 104 191.001 c 0
 103 192.001 101 195.001 101 196.001 c 0
 101 197.001 98 203.001 95 209.001 c 0
 91 216.001 88 222.001 88 226.001 c 0
 88 229.001 86 235.001 85 239.001 c 1
 83 243.001 81 248.001 81 249.001 c 0
 81 251.001 79 255.001 77 259.001 c 0
 74 266.001 73 269.001 73 287.001 c 0
 73 307.001 73 308.001 68 313.001 c 0
 65.333 315.668 64.4443 317.445 64.4443 319.223 c 0
 64.4443 320.111 64.667 321 65 322 c 1
 67 324 67 327 65 330 c 0
 64.333 331.333 64 332.333 64 333.333 c 0
 64 335.333 65.333 337.333 68 342 c 0
 73 349 73 349 73 400 c 0
 73 444 74 452 76 456 c 1
 79 459 79 464 79 479 c 0
 79 497 79 499 83 508 c 0
 86 513 88 518 88 520 c 0
 88 522 90 526 92 528 c 0
 94 531 95 536 95 539 c 0
 95 542 98 550 101 556 c 0
 105 563 107 570 107 571 c 0
 107 573 109 577 112 580 c 1
 114 584 116 588 116 591 c 0
 116 594 118 598 122 601 c 0
 125 603 128 608 130 612 c 0
 131 615 135 621 139 625 c 0
 143 629 148 636 150 641 c 2
 153 645 155 651 155 652 c 0
 155 654 157 657 159 658 c 2
 161 660 164 661 165 661 c 0
 167 661 174 667 181 674 c 0
 188 681 199 690 203 694 c 0
 208 699 215 703 217 705 c 1
 220 706 225 710 228 712 c 0
 232 715 236 717 240 717 c 0
 243 717 247 718 250 720 c 0
 252 721 257 722 260 722 c 0
 263 722 268 724 271 726 c 0
 275 729 280 730 290 731 c 0
 300 731 304 732 307 735 c 0
 310 738 313 739 318 738 c 0
 324 737 328 738 332 740 c 0
 336 742 343 744 349 745 c 0
 355 746 362 748 366 749 c 0
EndSplineSet
Validated: 33
EndChar
StartChar: uni0049
Encoding: 73 73 42
Width: 441
GlyphClass: 2
Flags: W
LayerCount: 2
Fore
SplineSet
194 725 m 0
 198 727 203 729 205 729 c 0
 206 729 208 728 210 727 c 1
 211 725 216 725 225 725 c 0
 237 726 238 725 243 721 c 0
 246 719 251 716 253 716 c 0
 255 716 259 715 261 713 c 0
 263 711 265 708 265 699 c 1
 266 692 268 686 269 684 c 1
 271 682 272 677 272 668 c 0
 273 656 273 655 268 652 c 0
 264 649 264 649 265 631 c 0
 266 622 267 611 267 608 c 0
 267 606 266 594 265 582 c 0
 265 570 264 559 264 557 c 0
 264 556 264 527 265 493 c 0
 265 433 265 432 269 428 c 0
 272 425 273 422 273 415 c 0
 273 410 271 401 269 395 c 0
 267 387 265 379 265 366 c 2
 265 336 l 1
 265 303 l 2
 265 284 265 281 261 275 c 0
 259 272 257 266 257 263 c 0
 257 260 258 254 260 249 c 0
 261 245 263 240 264 237 c 0
 265 235 266 231 266 228 c 0
 266 225 265 221 264 219 c 0
 263 216 263 214 265 209 c 0
 267 203 267 201 265 189 c 0
 264 182 263 175 264 172 c 0
 265 170 265 148 265 125 c 0
 265 101 264 80 264 78 c 1
 263 75 263 72 265 70 c 0
 267 67 267 65 266 62 c 0
 265 60 265 53 265 46 c 0
 265 39 264 32 263 30 c 0
 262 28 258 24 255 21 c 0
 252 18 250 14 249 9 c 0
 249 5 247 1 246 0 c 1
 245 0 233 -1 218 -1 c 0
 203 0 189 1 187 2 c 0
 184 3 181 5 181 7 c 1
 180 10 180 20 180 31 c 0
 180 44 179 51 178 53 c 1
 176 55 175 60 174 65 c 0
 173 69 172 78 172 85 c 0
 172 96 172 98 175 100 c 0
 179 103 179 105 179 123 c 0
 180 142 179 143 174 153 c 0
 170.938 158.513 169.751 161.399 169.751 164.188 c 0
 169.751 165.951 170.226 167.676 171 170 c 0
 172 174 173 178 173 180 c 0
 173 182 175 189 177 196 c 0
 180 207 180 207 176 213 c 0
 173 219 173 222 172 252 c 0
 172 270 173 296 173 309 c 0
 174 326 174 335 173 338 c 1
 171 341 171 343 173 345 c 0
 175 347 176 351 177 355 c 0
 179 360 179 388 179 428 c 0
 179 465 178 495 178 496 c 0
 178 497 179 529 179 567 c 0
 179 610 179 637 178 639 c 1
 177 640 177 643 177 647 c 1
 178 650 179 665 179 680 c 0
 180 695 181 709 181 710 c 1
 182 711 184 714 184 717 c 1
 185 720 187 722 194 725 c 0
EndSplineSet
Validated: 33
EndChar
StartChar: uni004D
Encoding: 77 77 46
Width: 882
GlyphClass: 2
Flags: W
LayerCount: 2
Fore
SplineSet
698 721 m 0
 700.25 723.25 701.938 724.373 703.906 724.373 c 0
 704.562 724.373 705.25 724.248 706 723.998 c 2
 709 723.998 712 721.998 715 719.998 c 0
 719 716.998 722 716.998 747 716.998 c 0
 770 717.998 775 716.998 776 714.998 c 1
 776 713.998 777 710.998 777 708.998 c 0
 777 706.998 778 702.998 779 699.998 c 1
 781 696.998 783 690.998 784 685.998 c 0
 785 678.998 784 676.998 781 672.998 c 0
 778 669.998 777 665.998 776 654.998 c 0
 775 643.998 776 637.998 778 629.998 c 0
 780 623.998 781 608.998 782 586.998 c 0
 783 568.998 784 548.998 784 543.998 c 1
 783 537.998 785 531.998 786 528.998 c 1
 789 523.998 789 522.998 786 517.998 c 1
 785 514.998 784 506.998 783 490.998 c 2
 783 463.998 l 1
 783 445.998 l 2
 783 437.998 782 427.998 781 424.998 c 0
 780 419.998 780 418.998 786 412.998 c 1
 790 409.998 792 405.998 792 404.998 c 0
 792 403.998 790 399.998 788 395.998 c 1
 783 389.998 783 389.998 783 306.998 c 0
 783 223.998 783 222.998 787 216.998 c 0
 791 210.998 791 209.998 789 190.998 c 0
 788 179.998 788 170.998 789 168.998 c 0
 790 166.998 790 159.998 789 152.998 c 0
 788 146.998 787 139.998 786 137.998 c 0
 785 135.998 784 123.998 784 109.998 c 0
 783 96.998 783 84.998 783 82.998 c 0
 783 80.998 784 73.998 784 66.998 c 0
 785 58.998 786 52.998 788 50.998 c 1
 789 47.998 791 44.998 791 42.998 c 0
 791 40.998 789 35.998 786 32.998 c 0
 784 29.998 782 25.998 782 24.998 c 0
 782 23.998 779 19.998 776 16.998 c 2
 774 12.998 767 7.99805 762 5.99805 c 2
 757 2.99805 751 -0.00195312 748 -1.00195 c 2
 745.804 -2.46582 743.071 -3.39355 740.195 -3.39355 c 0
 739.143 -3.39355 738.071 -3.26953 736.999 -3.00195 c 0
 733.999 -2.00195 728.999 -0.00195312 725.999 1.99805 c 0
 723.999 3.99805 719.999 5.99805 717.999 4.99805 c 1
 714.999 4.99805 712.999 5.99805 711.999 7.99805 c 0
 710.999 9.99805 709.999 15.998 709.999 19.998 c 0
 709.999 24.998 708.999 30.998 706.999 32.998 c 0
 704.999 35.998 703.999 43.998 703.999 89.998 c 0
 703.999 135.998 703.999 143.998 706.999 148.998 c 0
 708.999 151.998 709.999 157.998 709.999 163.998 c 0
 709.999 170.998 708.999 173.998 705.999 175.998 c 0
 702.999 178.998 702.999 180.998 702.999 204.998 c 0
 703.999 225.998 703.999 229.998 706.999 232.998 c 0
 708.999 234.998 709.999 238.998 709.999 248.998 c 0
 709.999 256.998 710.999 264.998 711.999 267.998 c 0
 712.999 270.998 712.999 272.998 711.999 274.998 c 1
 709.999 276.998 709.999 277.998 711.999 279.998 c 0
 713.999 281.998 714.999 282.998 714.999 283.998 c 0
 714.999 284.998 713.999 287.998 711.999 290.998 c 0
 708.999 294.998 707.999 296.998 708.999 302.998 c 0
 709.999 307.998 708.999 311.998 707.999 314.998 c 1
 704.999 319.998 704.999 320.998 707.999 325.998 c 1
 708.999 328.998 709.999 333.998 709.999 337.998 c 0
 709.999 342.998 708.999 347.998 705.999 351.998 c 0
 703.999 354.998 702.999 359.998 702.999 362.998 c 0
 702.999 365.998 703.999 374.998 705.999 382.998 c 0
 707.999 396.998 707.999 399.998 705.999 404.998 c 1
 704.999 409.998 703.999 427.998 703.999 475.998 c 0
 703.999 510.998 704.999 541.998 704.999 543.998 c 1
 703.999 546.998 703.999 565.998 703.999 587.998 c 0
 703.999 609.998 702.999 628.998 701.999 629.998 c 0
 700.999 630.998 696.999 631.998 690.999 630.998 c 2
 684.999 630.998 678.999 629.998 675.999 628.998 c 1
 672.999 626.998 672.999 624.998 673.999 620.998 c 1
 673.999 615.998 673.999 613.998 667.999 609.998 c 0
 662.999 605.998 661.999 604.998 662.999 599.998 c 0
 663.999 596.998 662.999 592.998 659.999 586.998 c 0
 656.999 581.998 654.999 574.998 654.999 571.998 c 0
 654.999 568.998 652.999 562.998 651.999 559.998 c 0
 649.999 555.998 647.999 550.998 647.999 547.998 c 0
 647.999 544.998 646.999 539.998 645.999 537.998 c 0
 644.999 534.998 642.999 529.998 642.999 525.998 c 1
 641.999 522.998 639.999 517.998 637.999 515.998 c 0
 634.999 512.998 633.999 510.998 634.999 503.998 c 0
 635.999 496.998 635.999 493.998 632.999 489.998 c 0
 630.999 487.998 628.999 483.998 627.999 481.998 c 1
 625.999 479.998 623.999 474.998 621.999 470.998 c 0
 619.999 467.998 617.999 462.998 615.999 461.998 c 1
 613.999 459.998 613.089 457.007 613.999 446.998 c 0
 614.999 435.998 614.999 432.998 611.999 428.998 c 0
 609.999 425.998 606.999 419.998 604.999 415.998 c 0
 601.999 409.998 600.999 406.998 601.999 402.998 c 0
 602.999 397.998 601.999 395.998 598.999 393.998 c 0
 594.999 391.998 593.999 388.998 592.999 379.998 c 0
 591.999 371.998 589.999 365.998 587.999 363.998 c 1
 586.999 360.998 584.999 357.998 584.999 356.998 c 0
 584.999 354.998 583.999 350.998 581.999 347.998 c 0
 580.999 345.998 578.999 338.998 577.999 333.998 c 0
 576.999 327.998 574.999 319.998 573.999 314.998 c 1
 571.999 309.998 568.999 303.998 567.999 301.998 c 0
 566.999 298.998 565.999 291.998 565.999 286.998 c 0
 565.999 278.998 564.999 275.998 561.999 272.998 c 0
 559.999 269.998 557.999 265.998 557.999 261.998 c 0
 557.999 257.998 554.999 249.998 550.999 243.998 c 0
 546.999 236.998 544.999 230.998 544.999 226.998 c 0
 544.999 223.998 541.999 214.998 538.999 208.998 c 1
 535.999 199.998 533.999 194.998 534.999 190.998 c 0
 535.999 186.998 533.906 183.04 528.999 171.998 c 0
 524.999 162.998 521.999 154.998 521.999 152.998 c 0
 521.999 150.998 519.999 147.998 517.999 145.998 c 0
 514.999 142.998 514.999 141.998 515.999 131.998 c 0
 515.999 125.998 515.999 119.998 514.999 116.998 c 0
 513.999 113.998 509.999 108.998 506.999 104.998 c 0
 502.999 99.998 500.999 95.998 500.999 92.998 c 0
 500.999 89.998 498.999 84.998 496.999 81.998 c 0
 494.999 78.998 493.999 73.998 493.999 70.998 c 0
 493.999 67.998 491.999 62.998 489.999 59.998 c 0
 487.999 56.998 486.999 51.998 486.999 46.998 c 0
 486.999 41.998 484.999 35.998 482.999 31.998 c 2
 481.999 27.998 478.999 21.998 478.999 17.998 c 1
 476.999 11.998 475.999 10.998 465.999 5.99805 c 0
 455.999 0.998047 452.999 -0.00195312 433.999 -1.00195 c 0
 422.999 -1.00195 412.999 -1.00195 411.999 -0.00195312 c 0
 410.999 0.998047 405.999 3.99805 400.999 5.99805 c 0
 391.999 10.998 390.999 11.998 386.999 21.998 c 0
 384.999 27.998 381.999 34.998 380.999 37.998 c 0
 378.999 41.998 377.999 45.998 378.999 51.998 c 0
 379.999 55.998 378.999 60.998 377.999 62.998 c 0
 376.999 64.998 374.999 70.998 373.999 76.998 c 0
 372.999 83.998 370.999 87.998 367.999 90.998 c 0
 364.999 92.998 363.999 96.998 363.999 100.998 c 0
 363.999 103.998 362.999 107.998 360.999 109.998 c 1
 359.999 111.998 358.999 116.998 358.999 120.998 c 0
 358.999 127.998 356.999 131.998 352.999 136.998 c 0
 349.999 141.998 346.999 149.998 345.999 154.998 c 0
 343.999 160.998 341.999 167.998 339.999 170.998 c 0
 337.999 174.998 337.999 178.998 338.999 184.998 c 1
 338.999 191.998 338.999 195.998 335.999 200.998 c 2
 323.999 225.998 l 2
 318.999 235.998 312.999 248.998 311.999 255.998 c 1
 309.999 261.998 307.999 268.998 306.999 270.998 c 0
 305.999 272.998 303.999 278.998 303.999 282.998 c 0
 302.999 287.998 301.999 294.998 301.999 298.998 c 0
 301.999 302.998 300.999 307.998 298.999 308.998 c 1
 297.999 309.998 296.999 314.998 295.999 318.998 c 1
 295.999 322.998 292.999 327.998 290.999 330.998 c 0
 288.999 334.998 287.999 336.998 288.999 343.998 c 0
 289.999 351.998 289.999 352.998 282.999 358.998 c 0
 277.999 363.998 275.999 367.998 274.999 373.998 c 0
 273.999 377.998 272.999 382.998 270.999 385.998 c 0
 269.999 387.998 268.999 393.998 267.999 399.998 c 1
 267.999 407.998 266.999 411.998 263.999 414.998 c 0
 261.999 416.998 259.999 420.998 259.999 424.998 c 0
 259.999 427.998 258.999 432.998 256.999 433.998 c 1
 255.999 436.998 254.999 441.998 254.999 448.998 c 0
 254.999 455.998 253.999 459.998 251.999 461.998 c 0
 250.999 462.998 245.999 471.998 240.999 481.998 c 0
 232.999 498.998 231.999 500.998 232.999 507.998 c 0
 233.999 514.998 232.999 516.998 230.999 519.998 c 0
 228.999 521.998 226.999 526.998 225.999 529.998 c 0
 224.999 534.998 222.999 537.998 220.999 538.998 c 1
 218.999 540.998 217.999 542.998 217.999 548.998 c 0
 217.999 553.998 216.999 557.998 214.999 560.998 c 1
 212.999 561.998 210.999 566.998 209.999 569.998 c 0
 207.999 573.998 205.999 578.998 204.999 581.998 c 0
 203.999 584.998 201.999 589.998 199.999 591.998 c 0
 197.999 594.998 196.999 599.998 196.999 602.998 c 0
 196.999 606.998 194.999 611.998 192.999 615.998 c 0
 191.999 618.998 189.999 623.998 189.999 625.998 c 0
 189.999 626.998 187.999 630.998 185.999 632.998 c 0
 182.999 635.998 178.999 636.998 174.999 636.998 c 0
 171.999 636.998 167.999 635.998 165.999 633.998 c 0
 163.999 631.998 162.999 627.998 163.999 606.998 c 0
 164.999 592.998 164.999 580.998 164.999 579.998 c 0
 164.999 578.998 164.999 568.998 163.999 557.998 c 0
 163.999 546.998 161.999 534.998 160.999 530.998 c 1
 157.999 524.998 157.999 521.998 161.999 505.998 c 0
 163.999 494.998 164.999 484.998 163.999 481.998 c 1
 163.999 477.998 163.999 473.998 164.999 470.998 c 1
 166.999 467.998 166.999 463.998 165.999 461.998 c 1
 164.999 460.998 164.999 454.998 164.999 449.998 c 0
 165.999 441.998 164.999 438.998 160.999 432.998 c 0
 156.999 427.998 155.999 423.998 155.999 418.998 c 0
 155.999 415.998 157.999 410.998 159.999 407.998 c 0
 162.999 403.998 162.999 399.998 163.999 382.998 c 0
 164.999 364.998 164.999 361.998 161.999 357.998 c 0
 159.999 355.998 157.999 350.998 156.999 347.998 c 1
 156.999 343.998 157.999 339.998 159.999 335.998 c 0
 163.999 328.998 163.999 327.998 163.999 290.998 c 0
 163.999 270.998 162.999 250.998 162.999 247.998 c 0
 162.999 244.998 162.999 219.998 163.999 190.998 c 0
 163.999 143.998 163.999 138.998 166.999 133.998 c 0
 169.999 129.998 170.999 124.998 170.999 117.998 c 0
 170.999 110.998 169.999 106.998 167.999 104.998 c 0
 166.999 103.998 164.999 97.998 164.999 91.998 c 2
 162.999 81.998 163.999 78.998 166.999 73.998 c 1
 168.999 68.998 169.999 61.998 170.999 43.998 c 0
 171.999 21.998 171.999 18.998 168.999 14.998 c 0
 166.999 11.998 162.999 7.99805 159.999 6.99805 c 0
 156.999 5.99805 151.999 2.99805 149.999 0.998047 c 0
 146.999 -2.00195 144.999 -2.00195 139.999 -1.00195 c 0
 136.999 -1.00195 130.999 -1.00195 127.999 -2.00195 c 0
 125.707 -2.76562 123.999 -3.0918 122.596 -3.0918 c 0
 120.325 -3.0918 118.854 -2.2373 116.999 -1.00098 c 0
 113.999 0.999023 109.999 3.99902 107.999 4.99902 c 0
 104.999 6.99902 101.999 10.999 99.999 13.999 c 0
 96.999 19.999 96.999 21.999 97.999 27.999 c 0
 98.999 32.999 99.999 55.999 99.999 89.999 c 0
 98.999 138.999 98.999 143.999 95.999 146.999 c 0
 93.999 149.999 92.999 152.999 92.999 162.999 c 2
 92.999 194.999 l 1
 92.999 217.999 l 1
 92.999 241.999 l 2
 93.999 255.999 93.999 260.999 96.999 264.999 c 0
 98.999 268.999 99.999 272.999 98.999 276.999 c 2
 98.999 280.999 96.999 286.999 95.999 290.999 c 1
 92.999 295.999 92.999 306.999 92.999 346.999 c 0
 92.749 357.999 92.6064 366.562 92.6064 373.28 c 0
 92.6064 393.437 93.749 396.999 95.999 399.999 c 1
 96.999 402.999 98.999 406.999 98.999 411.999 c 0
 98.999 415.999 97.999 419.999 95.999 420.999 c 1
 94.999 422.999 92.999 424.999 92.999 426.999 c 0
 92.999 428.999 94.999 432.999 95.999 433.999 c 1
 96.999 435.999 98.999 440.999 98.999 443.999 c 0
 98.999 447.999 98.999 452.999 99.999 455.999 c 0
 101.999 459.999 101.999 464.999 99.999 474.999 c 0
 97.999 481.999 95.999 489.999 94.999 491.999 c 1
 93.999 492.999 92.999 496.999 92.999 498.999 c 0
 92.999 501.999 94.999 503.999 95.999 505.999 c 1
 96.999 506.999 98.999 510.999 98.999 514.999 c 0
 98.999 518.999 96.999 523.999 95.999 526.999 c 1
 92.999 531.999 92.999 540.999 92.999 588.999 c 0
 92.7314 602.396 92.6074 612.707 92.6074 620.796 c 0
 92.6074 642.895 93.5352 648.411 94.999 655 c 1
 96.999 660 98.999 666 98.999 668 c 0
 98.999 669 96.999 672 94.999 673 c 1
 90.999 677 l 1
 89.999 679 90.999 682 91.999 684 c 0
 93.999 687 100.999 695 108.999 703 c 0
 122.999 716 122.999 716 135.999 717 c 2
 160.999 717 l 1
 167.999 718 185.999 718 200.999 718 c 0
 209.343 718.309 215.108 718.522 219.299 718.522 c 0
 228.668 718.522 230.163 717.455 235 714 c 0
 238 711 243 707 245 705 c 0
 248 703 250 699 250 697 c 0
 250 695 251 691 253 688 c 0
 255 686 257 682 257 680 c 0
 257 678 258 673 259 670 c 0
 261 666 262 661 262 657 c 0
 262 653 264 649 267 644 c 0
 272 637 273 636 271 629 c 0
 269 622 269 621 272 618 c 1
 274 617 276 612 277 608 c 1
 277 605 279 599 281 597 c 0
 283 594 285 589 285 586 c 0
 285 583 286 579 289 576 c 0
 291 574 293 569 295 566 c 1
 296 562 297 556 297 553 c 0
 297 548 299 544 303 538 c 0
 308 531 308 530 306 520 c 0
 305 511 305 510 308 505 c 1
 310 503 311 500 311 499 c 0
 311 498 313 495 316 492 c 0
 320 487 320 485 319 478 c 0
 318 472 319 470 322 465 c 0
 324 462 325 458 325 454 c 0
 325 449 326 446 329 443 c 0
 331 440 333 436 334 428 c 0
 334 422 336 415 337 413 c 0
 338 411 339 408 338 407 c 1
 338 406 340 401 343 396 c 0
 346 389 348 384 348 379 c 0
 348 372 349 370 354 366 c 0
 357 364 360 359 361 357 c 1
 361 354 363 349 364 345 c 0
 365 341 367 333 368 327 c 0
 370 320 373 312 374 309 c 1
 376 306 378 300 379 297 c 0
 380 293 382 288 382 284 c 1
 383 280 386 272 389 265 c 1
 393 259 395 253 395 252 c 0
 395 251 397 245 399 239 c 0
 402 230 403 224 403 209 c 0
 402 195 403 190 406 185 c 0
 408 181 410 173 410 168 c 1
 411 162 413 156 415 154 c 0
 417 151 417 147 417 137 c 0
 417 124 417 124 424 118 c 0
 428 115 432 112 433 112 c 0
 434 112 439 115 443 118 c 0
 450 123 450 124 449 131 c 0
 448 137 449 139 451 142 c 1
 453 143 455 147 457 150 c 0
 458 152 459 157 459 159 c 0
 459 162 461 168 465 173 c 0
 470 181 471 184 471 194 c 0
 471 203 472 205 475 209 c 1
 478 211 480 215 480 218 c 0
 480 220 481 224 483 226 c 0
 486 228 487 230 486 235 c 0
 485 240 486 243 489 246 c 1
 490 249 492 253 492 257 c 0
 492 260 494 265 495 269 c 1
 497 272 499 281 500 290 c 0
 501 299 502 308 504 310 c 1
 505 312 506 317 506 321 c 0
 506 324 507 329 509 330 c 1
 510 332 514 338 517 345 c 0
 521 352 523 358 523 358 c 1
 522 359 523 362 525 365 c 0
 528 369 529 374 529 381 c 0
 529 386 530 392 531 393 c 0
 533 395 535 402 536 410 c 0
 537 419 539 427 542 431 c 0
 545 435 546 440 546 442 c 0
 546 444 548 447 550 449 c 0
 552 451 554 454 555 457 c 1
 557 459 557 464 556 470 c 0
 555 478 556 480 559 484 c 0
 561 487 563 493 563 497 c 1
 564 501 566 505 568 507 c 1
 570 508 571 511 571 513 c 0
 571 515 572 519 574 521 c 0
 575 522 576 525 576 527 c 0
 576 528 578 531 580 533 c 0
 582 535 583 539 584 552 c 0
 585 561 587 570 588 573 c 1
 590 576 592 583 592 587 c 0
 593 592 595 602 596 609 c 0
 597 615 600 623 602 625 c 1
 603 628 604 632 604 635 c 0
 604 640 606 643 609 646 c 0
 613 649 614 651 613 658 c 0
 612 665 612 666 615 669 c 1
 617 670 619 675 620 679 c 1
 620 683 622 687 624 690 c 0
 626 692 627 694 627 695 c 1
 626 696 627 699 628 701 c 0
 630 704 632 706 634 707 c 0
 636 708 641 709 646 709 c 1
 651 710 660 712 667 715 c 1
 676 717 682 718 687 717 c 0
 692 716 694 717 698 721 c 0
EndSplineSet
Validated: 33
EndChar
StartChar: uni005A
Encoding: 90 90 59
Width: 660
GlyphClass: 2
Flags: W
LayerCount: 2
Fore
SplineSet
274 720 m 0
 277 722 282.003 723 288.003 723 c 0
 293.003 723 300.003 722 303.003 721 c 0
 308.003 719 317.003 718 330.003 717 c 0
 341.003 717 352.003 718 355.003 719 c 0
 359.003 720 362.003 720 367.003 718 c 0
 371.003 716 375.003 715 382.003 716 c 0
 385.538 716.707 406.073 717.414 433.355 717.414 c 0
 444.656 717.414 457.114 717.293 470.002 717 c 0
 522.002 717 551.002 717 556.002 719 c 0
 560.002 720 564.002 721 564.002 722 c 1
 565.002 723 570.002 723 574.002 723 c 0
 579.002 723 583.002 722 587.002 719 c 0
 591.002 716 594.002 711 597.002 704 c 0
 599.002 699 601.002 692 601.002 690 c 0
 601.002 688 603.002 681 605.002 676 c 0
 607.002 671 609.002 665 609.002 663 c 0
 609.002 661 606.002 654 603.002 648 c 0
 600.002 642 595.002 635 593.002 633 c 1
 592.002 631 590.002 627 589.002 623 c 0
 588.002 620 585.002 613 582.002 608 c 0
 579.002 603 575.002 599 573.002 598 c 1
 572.002 598 569.002 594 566.002 590 c 0
 564.002 586 559.002 581 555.002 580 c 1
 551.002 578 546.002 573 543.002 570 c 0
 541.002 567 536.002 559 533.002 552 c 0
 530.002 545 525.002 538 524.002 536 c 1
 522.002 534 518.002 532 516.002 532 c 0
 513.002 532 510.002 530 508.002 528 c 0
 506.002 526 504.002 522 503.002 520 c 1
 503.002 518 501.002 514 500.002 512 c 0
 498.002 509 496.002 507 495.002 507 c 1
 495.002 507 493.002 505 492.002 503 c 0
 490.002 500 487.002 494 484.002 489 c 0
 481.002 484 476.002 479 474.002 477 c 0
 472.002 475 471.002 472 471.002 470 c 0
 471.002 468 468.002 464 465.002 462 c 0
 462.002 460 460.002 457 460.002 455 c 0
 460.002 454 457.002 452 454.002 450 c 1
 450.002 449 447.002 446 446.002 444 c 0
 445.002 442 441.002 438 437.002 435 c 0
 433.002 432 429.002 427 427.002 424 c 1
 426.002 421 423.002 417 420.002 415 c 1
 417.002 414 413.002 411 412.002 408 c 1
 410.002 406 406.002 402 403.002 400 c 1
 398.002 398 397.002 396 397.002 392 c 0
 397.002 388 395.002 385 389.002 380 c 1
 384.002 377 379.002 371 376.002 367 c 0
 373.002 362 370.002 360 367.002 359 c 0
 364.002 358 359.002 355 355.002 353 c 1
 351.002 349 349.002 345 348.002 339 c 0
 347.002 332 345.002 329 333.002 317 c 0
 326.002 309 317.002 301 314.002 300 c 0
 312.002 299 307.002 295 305.002 291 c 0
 302.002 287 299.002 281 299.002 277 c 1
 298.002 274 297.002 270 296.002 269 c 0
 295.002 268 294.002 267 292.002 267 c 0
 291.002 267 283.002 259 274.002 250 c 0
 265.002 241 258.002 232 257.002 229 c 0
 256.002 226 255.002 222 253.002 221 c 2
 252.002 219 248.002 217 245.002 217 c 1
 241.002 216 239.002 214 237.002 208 c 0
 235.002 204 231.002 199 228.002 196 c 0
 225.002 194 217.002 187 211.002 181 c 0
 205.002 175 200.002 168 200.002 166 c 0
 200.002 165 195.002 157 188.002 150 c 0
 181.002 143 175.002 136 175.002 134 c 0
 175.002 133 172.002 128 167.002 124 c 0
 159.002 116 159.002 116 159.002 99 c 0
 158.002 83 158.002 82 162.002 80 c 0
 166.002 77 172.002 77 193.002 77 c 0
 199.252 77.25 204.064 77.375 207.83 77.375 c 0
 219.127 77.375 221.002 76.25 224.002 74 c 0
 226.002 72 230.002 70 233.002 70 c 0
 236.002 70 243.002 72 249.002 75 c 0
 254.002 77 261.002 80 264.002 82 c 0
 266.002 83 272.002 84 277.002 84 c 1
 282.002 85 288.002 83 291.002 82 c 1
 296.002 79 302.002 78 314.002 78 c 0
 326.002 78 333.002 79 337.002 81 c 0
 341.002 83 343.002 83 349.002 81 c 0
 354.002 79 374.002 78 441.002 78 c 0
 517.002 78 527.002 77 531.002 75 c 1
 533.002 73 539.002 72 543.002 72 c 0
 548.002 72 556.002 74 564.002 77 c 0
 571.002 80 580.002 84 584.002 85 c 0
 591.002 86 592.002 86 597.002 83 c 1
 599.002 80 604.002 77 606.002 76 c 0
 609.002 74 612.002 71 613.002 69 c 0
 614.002 66 615.002 60 615.002 55 c 0
 615.002 48 614.002 44 611.002 41 c 0
 609.002 38 608.002 35 608.002 34 c 0
 608.002 32 605.002 27 602.002 22 c 0
 596.002 13 596.002 13 567.002 13 c 0
 541.002 13 538.002 14 532.002 17 c 0
 526.002 21 523.002 21 494.002 21 c 2
 457.002 21 l 1
 440.002 21 l 2
 433.002 21 428.002 20 426.002 18 c 0
 425.002 17 423.002 16 422.002 16 c 0
 421.002 16 417.002 17 414.002 18 c 1
 409.002 21 408.002 21 399.002 18 c 0
 392.002 15 386.002 14 370.002 13 c 0
 359.002 13 348.002 13 346.002 14 c 0
 344.002 15 340.002 14 335.002 13 c 1
 328.002 10 326.002 10 321.002 12 c 0
 318.002 13 314.002 14 312.002 14 c 0
 310.002 14 308.002 12 306.002 10 c 0
 304.002 8 301.002 7 295.002 7 c 0
 289.002 7 286.002 8 284.002 10 c 0
 282.002 12 278.002 13 266.002 13 c 0
 257.002 13 247.002 12 242.002 11 c 1
 238.002 9 231.002 8 227.002 7 c 1
 221.002 7 218.002 7 214.002 10 c 1
 208.002 13 205.002 14 144.002 14 c 0
 132.335 13.667 121.112 13.5557 111.261 13.5557 c 0
 91.5566 13.5557 77.334 14 76.001 14 c 0
 74.001 14 70.001 16 66.001 20 c 0
 61.001 25 60.001 26 59.001 39 c 0
 58.001 47 57.001 55 55.001 57 c 1
 54.001 59 51.001 66 49.001 73 c 0
 47.2031 78.8438 46.2129 82.0605 46.2129 84.376 c 0
 46.2129 87.2119 47.6973 88.6963 51 91.999 c 0
 54 94.999 58 99.999 61 103.999 c 0
 64 107.999 67 111.999 67 112.999 c 0
 67 114.999 69 118.999 72 122.999 c 0
 75 126.999 77 131.999 78 134.999 c 0
 79 137.999 83 142.999 87 146.999 c 0
 91 150.999 95 153.999 96 153.999 c 0
 97 153.999 99 156.999 100 160.999 c 0
 101 164.999 105 170.999 112 176.999 c 0
 118 182.999 125 188.999 128 191.999 c 0
 132 194.999 138 201.999 142 206.999 c 0
 146 211.999 151 218.999 153 221.999 c 1
 154 224.999 158 229.999 160 231.999 c 0
 163 233.999 165 236.999 165 238.999 c 0
 165 241.999 167 245.999 170 248.999 c 2
 172 252.999 179 259.999 184 264.999 c 0
 190 269.999 197 275.999 201 278.999 c 0
 204 280.999 211 287.999 215 293.999 c 0
 219 299.999 225 304.999 228 306.999 c 1
 232 307.999 234 309.999 235 315.999 c 0
 237 322.999 241 326.999 256 341.999 c 0
 269 354.999 276 361.999 276 364.999 c 0
 276 366.999 276 369.999 277 372.999 c 0
 278 375.999 282 378.999 287 380.999 c 0
 291 382.999 296 385.999 298 389.999 c 0
 300 393.999 304 396.999 306 397.999 c 1
 307 397.999 312 403.999 316 410.999 c 0
 320 417.999 326 425.999 328 427.999 c 0
 331 429.999 334 433.999 334 435.999 c 1
 335 437.999 337 441.999 340 442.999 c 1
 342 444.999 344 447.999 344 448.999 c 0
 344 450.999 346 452.999 347 453.999 c 1
 349 453.999 352 456.999 354 459.999 c 0
 356 461.999 361 467.999 365 472.999 c 1
 370 476.999 374 481.999 374 483.999 c 0
 374 484.999 376 488.999 379 490.999 c 0
 382 492.999 385 496.999 385 498.999 c 1
 386 500.999 390 503.999 393 505.999 c 0
 397 507.999 401 510.999 402 512.999 c 0
 403 514.999 407 519.999 411 523.999 c 2
 414 527.999 422 534.999 427 540.999 c 2
 433 545.999 438 551.999 438 553.999 c 1
 439 555.999 442 558.999 445 560.999 c 0
 449 562.999 452 564.999 452 567.999 c 1
 453 570.999 455 574.999 456 575.999 c 0
 458 577.999 460 578.999 461 578.999 c 0
 462 578.999 464 580.999 466 581.999 c 1
 467 583.999 471 586.999 475 589.999 c 0
 478 591.999 482 594.999 482 596.999 c 1
 483 598.999 485 601.999 488 603.999 c 0
 491 605.999 493 608.999 493 610.999 c 0
 493 611.999 495 617.999 498 621.999 c 1
 502 629.999 502 631.999 502 639.999 c 1
 501 644.999 500 649.999 498 650.999 c 1
 497 651.999 492 653.999 487 655.999 c 0
 480 657.999 469 658.999 454 658.999 c 0
 433 659.999 431 659.999 426 655.999 c 0
 421 652.999 419 652.999 367 652.999 c 2
 310 652.999 l 1
 251 652.999 l 2
 221 652.999 189 652.999 180 653.999 c 0
 171 654.999 162 655.999 160 657.999 c 1
 156 659.999 154 658.999 149 655.999 c 0
 144 652.999 140 651.999 131 652.999 c 0
 122 652.999 116 653.999 112 655.999 c 0
 109 657.999 102 659.999 96 659.999 c 1
 91 660.999 84 662.999 80 663.999 c 1
 75 666.999 73 668.999 69 676.999 c 0
 66 683.999 65 688.999 66 691.999 c 2
 66 694.999 68 699.999 70 702.999 c 0
 72 704.999 78 709.999 84 711.999 c 1
 94 716.999 94 716.999 137 717.999 c 2
 184 717.999 l 1
 229 717.999 l 2
 238.646 717.731 246.067 717.607 251.839 717.607 c 0
 267.608 717.607 271.072 718.536 274 720 c 0
EndSplineSet
Validated: 33
EndChar
StartChar: uni0061
Encoding: 97 97 66
Width: 469
GlyphClass: 2
Flags: W
LayerCount: 2
Fore
SplineSet
309 252 m 0
 305 258 305 258 272 258 c 0
 240 258 239 258 232 253 c 0
 225 249 223 249 209 250 c 0
 195.995 250.929 193 250 190 248 c 0
 187 246 182 243 178 241 c 0
 173 239 167 237 164 237 c 0
 161 237 156 236 154 235 c 0
 151 234 148 230 145 227 c 1
 143 223 138 218 135 216 c 0
 131 214 128 211 128 209 c 0
 128 207 126 204 125 202 c 0
 123 199 122 196 122 195 c 1
 123 194 121 190 119 187 c 0
 116 184 114 181 114 179 c 2
 114 169 l 2
 114 164 113 160 112 159 c 0
 111 158 111 152 111 147 c 1
 112 142 112 132 113 125 c 2
 113 118 115 109 117 103 c 1
 120 98 125 89 131 83 c 0
 136 77 142 70 145 67 c 0
 150 61 151 61 164 61 c 0
 176 61 178 61 182 57 c 0
 184.667 54.333 186.444 53.4443 189.111 53.4443 c 0
 190.444 53.4443 192 53.667 194 54 c 0
 198 55 206 56 211 56 c 1
 216 55 222 56 225 58 c 0
 227 59 234 61 239 61 c 1
 245 62 251 64 254 66 c 1
 257 67 260 69 260 68 c 1
 261 68 263 69 265 70 c 0
 267 71 269 73 269 75 c 0
 269 77 271 80 274 82 c 1
 277 83 282 87 284 90 c 0
 287 93 292 99 296 103 c 0
 302 109 304 112 303 115 c 1
 303 118 305 123 308 128 c 0
 312 134 313 139 313 147 c 0
 313 153 315 159 317 162 c 0
 319 165 320 172 321 182 c 0
 322 190 322 207 322 220 c 0
 322 235 321 243 319 245 c 0
 318 246 316 247 315 247 c 0
 314 247 311 250 309 252 c 0
222 506 m 1
 223.333 506 225.556 506.444 227.778 506.444 c 0
 228.89 506.444 230.001 506.333 231.001 506 c 0
 234.001 505 249.001 505 264.001 505 c 0
 286.001 504 294.001 504 298.001 501 c 1
 301.001 500 305.001 498 308.001 498 c 0
 310.001 498 314.001 497 316.001 495 c 0
 319.001 493 322.001 491 324.001 491 c 0
 326.001 491 330.001 489 333.001 485 c 0
 335.001 481 339.001 479 343.001 478 c 1
 345.001 477 349.001 475 351.001 473 c 1
 352.001 470 356.001 466 359.001 463 c 0
 363.001 460 365.001 456 365.001 455 c 0
 365.001 454 368.001 450 372.001 446 c 0
 376.001 442 379.001 437 379.001 435 c 0
 379.001 433 381.001 429 384.001 425 c 0
 386.001 422 388.001 418 388.001 415 c 0
 388.001 413 390.001 408 391.001 405 c 1
 393.668 401.667 394.557 398.778 394.557 386.556 c 0
 394.557 380.444 394.334 372 394.001 360 c 0
 394.001 325 394.001 320 397.001 316 c 0
 399.001 313 400.001 310 400.001 308 c 0
 400.001 306 399.001 302 397.001 300 c 1
 395.001 296 394.001 292 395.001 276 c 2
 395.001 251 l 2
 395.001 247 394.788 215.005 394.001 178 c 0
 393.708 164.234 393.587 152.613 393.587 142.886 c 0
 393.587 119.4 394.294 106.95 395.001 102 c 0
 396.001 97 398.001 92 399.001 89 c 0
 400.001 87 401.001 75 401.001 64 c 0
 402.001 52 402.001 41 403.001 39 c 1
 403.001 37 403.001 31 402.001 25 c 2
 402.001 15 402.001 13 398.001 12 c 1
 396.001 11 387.001 9 379.001 7 c 0
 367.001 4 360.001 3 351.001 4 c 0
 341.001 5 337.001 6 334.001 10 c 0
 332.001 12 330.001 17 330.001 24 c 1
 329.001 29 328.001 36 326.001 39 c 1
 325.001 42 322.001 44 319.001 45 c 1
 316.001 45 309.001 46 304.001 46 c 0
 298.001 46 293.001 44 288.001 41 c 0
 284.001 39 280.001 35 279.001 33 c 1
 278.001 32 273.001 28 269.001 25 c 0
 265.001 23 261.001 21 260.001 21 c 0
 259.001 21 256.001 18 254.001 15 c 0
 251.001 12 247.001 10 245.001 10 c 0
 244.001 10 242.001 9 241.001 8 c 1
 241.001 7 238.001 5 235.001 4 c 1
 232.001 2 227.001 0 225.001 -2 c 0
 222.418 -3.9375 220.669 -5.04102 217.062 -5.04102 c 0
 215.082 -5.04102 212.544 -4.70898 209.001 -4 c 0
 204.051 -3.29297 195.601 -2.58594 185.772 -2.58594 c 0
 181.701 -2.58594 177.394 -2.70703 173 -3 c 0
 165.667 -3.33301 160.556 -3.55566 156.741 -3.55566 c 0
 149.111 -3.55566 146.667 -2.66699 142 0 c 0
 139 2 131 3 126 4 c 1
 119 4 115 5 112 8 c 0
 110 10 104 13 100 15 c 0
 96 17 92 21 90 23 c 1
 89 25 84 30 80 33 c 0
 76 36 71 41 70 44 c 0
 69 47 64 53 59 58 c 0
 55 63 49 71 46 76 c 1
 44 81 42 86 42 87 c 0
 42 89 40 93 38 97 c 0
 34 104 34 105 34 135 c 0
 34 157 35 167 36 169 c 1
 37 170 39 175 40 180 c 1
 40 185 42 191 44 194 c 0
 46 197 47 200 47 202 c 0
 47 203 49 206 51 208 c 0
 54 211 55 214 55 216 c 1
 54 219 55 221 58 222 c 1
 61 224 64 227 65 230 c 1
 76 246 l 2
 82 255 86 257 99 264 c 0
 108 268 117 272 120 272 c 0
 124 272 128 274 131 276 c 0
 134 279 138 281 141 281 c 0
 143 281 146 281 146 282 c 1
 147 283 151 285 155 286 c 0
 159 287 164 289 165 291 c 1
 167 292 172 294 180 294 c 0
 187 294 193 295 196 297 c 0
 198 299 204 300 211 300 c 0
 218 300 223 301 228 304 c 0
 235 307 239 307 272 308 c 0
 309 308 309 308 315 313 c 0
 322 319 322 319 322 354 c 0
 322 387 322 389 318 397 c 0
 316 402 314 409 313 412 c 1
 313 415 311 418 310 420 c 1
 308 421 307 424 307 426 c 0
 307 429 308 432 309 433 c 1
 310 435 310 437 308 439 c 0
 306 441 304 442 303 442 c 0
 301 442 298 445 295 447 c 0
 292 450 288 453 287 453 c 0
 286 453 282 455 277 457 c 0
 272 459 266 463 265 464 c 0
 263 467 259 468 252 468 c 1
 245 469 240 468 235 465 c 1
 230 463 224 461 209 461 c 0
 199 460 190 460 189 460 c 0
 188 460 186 458 183 455 c 0
 179 451 177 451 171 452 c 0
 165 453 164 453 154 443 c 0
 147 435 144 430 142 423 c 0
 140 418 137 411 136 409 c 0
 134 406 130 401 127 398 c 0
 124 395 119 390 115 388 c 0
 110 385 107 384 99 384 c 1
 93 385 86 384 84 383 c 1
 81 383 77 383 74 384 c 0
 71 385 67 388 66 390 c 2
 64 392 62 397 62 403 c 0
 61 411 62 414 67 422 c 0
 70 427 72 432 71 433 c 1
 71 436 l 1
 72 437 75 439 78 441 c 1
 81 442 83 445 83 447 c 1
 84 450 85 452 86 453 c 0
 87 454 91 454 94 454 c 0
 97 454 105 456 111 458 c 0
 117 460 123 463 125 465 c 0
 126 466 128 469 129 472 c 0
 130 474 132 478 134 480 c 0
 136 483 139 484 140 484 c 0
 142 484 146 486 149 487 c 0
 151 488 158 491 163 494 c 1
 171 497 175 498 183 498 c 1
 190 497 195 498 200 500 c 1
 203 502 209 504 212 504 c 0
 216 504 220 505 222 506 c 1
EndSplineSet
Validated: 33
EndChar
StartChar: uni0067
Encoding: 103 103 72
Width: 493
GlyphClass: 2
Flags: W
LayerCount: 2
Fore
SplineSet
271 418 m 0
 268 420 262 421 255 422 c 1
 248 422 242 422 240 421 c 2
 238 421 234 419 231 418 c 0
 228 417 219 414 211 413 c 0
 202 411 191 409 186 408 c 0
 178 406 175 404 166 395 c 0
 157 386 155 383 156 380 c 1
 156 376 155 374 150 368 c 1
 145 364 141 359 140 353 c 1
 138 348 136 343 135 342 c 1
 134 342 133 338 133 335 c 0
 133 330 132 326 129 323 c 0
 125 318 125 317 125 292 c 0
 125 273 124 265 122 261 c 0
 120 257 119 246 118 218 c 0
 117.667 205.667 117.444 197.223 117.444 191.074 c 0
 117.444 178.778 118.333 175.667 121 169 c 0
 124 162 125 156 124 148 c 2
 124 131 l 2
 124 127 126 124 130 120 c 1
 134 117 138 112 139 109 c 1
 141 107 144 104 146 103 c 0
 148 102 151 100 152 99 c 0
 153 98 155 94 156 90 c 0
 157 87 161 81 164 78 c 0
 169 73 171 72 174 73 c 0
 176 74 178 73 182 69 c 0
 184 67 189 64 192 63 c 1
 194 63 199 60 201 58 c 0
 203 55 208 52 212 52 c 1
 216 51 222 51 227 51 c 1
 232 52 239 54 243 55 c 1
 248 58 250.994 58.9238 263 58 c 0
 276 57 277 57 283 61 c 0
 287 64 291 66 292 66 c 0
 293 66 297 68 300 71 c 0
 303 73 307 78 308 82 c 1
 321 101 l 2
 327 108 333 118 336 124 c 0
 339 129 343 138 344 142 c 0
 346 147 348 159 348 169 c 0
 349 183 350 189 353 192 c 0
 356 196 356 200 356 232 c 0
 356 265 355 267 352 272 c 1
 348 276 348 278 350 281 c 0
 351 283 351 289 350 300 c 0
 349 309 349 319 349 323 c 0
 349 328 347 332 345 334 c 1
 344 336 342 339 342 342 c 0
 342 344 340 349 337 354 c 0
 334 358 331 365 330 369 c 0
 329 373 326 378 324 380 c 0
 321 383 320 386 320 387 c 0
 320 388 317 391 315 393 c 0
 312 396 307 399 304 401 c 1
 300 402 295 406 293 409 c 0
 289 414 286 415 281 415 c 0
 278 415 273 417 271 418 c 0
185 475 m 0
 189 480 190.001 480.001 203.001 479.001 c 0
 212.001 479.001 219.001 477.001 223.001 475.001 c 0
 228.001 472.001 232.001 472.001 247.001 472.001 c 0
 264.001 473.001 266.001 473.001 272.001 469.001 c 0
 275.001 466.001 279.001 465.001 281.001 465.001 c 0
 282.001 465.001 285.001 463.001 288.001 461.001 c 0
 290.001 460.001 297.001 456.001 302.001 454.001 c 0
 307.001 452.001 313.001 449.001 315.001 447.001 c 0
 317.001 445.001 322.001 443.001 325.001 441.001 c 1
 330.001 439.001 334.001 439.001 341.001 440.001 c 0
 345.001 441.001 351.001 442.001 352.001 444.001 c 2
 354.001 445.001 358.001 452.001 361.001 459.001 c 0
 367.001 471.001 367.001 471.001 377.001 473.001 c 0
 383.001 474.001 389.001 476.001 391.001 477.001 c 0
 393.001 478.001 399.001 479.001 406.001 480.001 c 1
 416.001 480.001 418.001 479.001 422.001 476.001 c 1
 424.001 473.001 426.001 467.001 428.001 459.001 c 0
 429.001 452.001 431.001 440.001 432.001 434.001 c 0
 434.001 425.001 435.001 418.001 434.001 412.001 c 0
 433.001 407.001 433.001 399.001 434.001 394.001 c 0
 435.001 389.001 435.001 378.001 435.001 370.001 c 0
 435.001 359.001 435.001 354.001 433.001 351.001 c 0
 431.001 349.001 430.001 345.001 430.001 341.001 c 0
 430.001 338.001 431.001 332.001 433.001 328.001 c 1
 434.001 323.001 435.001 311.001 435.001 280.001 c 0
 434.001 245.001 434.001 239.001 431.001 236.001 c 0
 428.001 233.001 428.001 226.001 427.001 160.001 c 0
 427.001 120.001 426.001 85.001 426.001 83.001 c 0
 426.001 80.001 427.001 51.001 427.001 19.001 c 2
 427.001 -61.999 l 2
 426.001 -81.999 426.001 -86.999 423.001 -89.999 c 0
 421.001 -92.999 420.001 -96.999 420.001 -99.999 c 0
 420.001 -101.999 418.001 -107.999 416.001 -111.999 c 0
 414.001 -114.999 413.001 -120.999 413.001 -124.999 c 0
 413.001 -129.999 411.001 -131.999 406.001 -136.999 c 0
 403.001 -139.999 400.001 -143.999 400.001 -145.999 c 0
 400.001 -147.999 398.001 -152.999 394.001 -156.999 c 0
 391.001 -159.999 388.001 -164.999 387.001 -166.999 c 0
 386.001 -168.999 380.001 -172.999 375.001 -175.999 c 0
 369.001 -179.999 361.001 -184.999 357.001 -186.999 c 0
 353.001 -189.999 346.001 -193.999 342.001 -195.999 c 1
 338.001 -196.999 333.001 -199.999 331.001 -199.999 c 1
 329.001 -200.999 322.001 -202.999 314.001 -204.999 c 0
 307.001 -205.999 298.001 -208.999 294.001 -209.999 c 0
 290.001 -210.999 270.001 -210.999 244.001 -210.999 c 0
 230.458 -210.633 220.935 -210.4 214.008 -210.4 c 0
 202.011 -210.4 197.805 -211.097 194.001 -212.999 c 0
 191.072 -214.171 188.83 -214.656 186.671 -214.656 c 0
 185.144 -214.656 183.658 -214.414 182.001 -214 c 0
 179.001 -213 171.001 -211 165.001 -211 c 1
 159.001 -210 150.001 -208 147.001 -206 c 0
 143.001 -204 132.001 -198 122.001 -192 c 0
 113.001 -186 104.001 -179 102.001 -176 c 0
 100.001 -174 96.001 -170 93.001 -168 c 0
 89.001 -166 88.001 -164 88.001 -161 c 1
 89.001 -158 88.001 -156 82.001 -153 c 0
 79.001 -151 75.001 -146 73.001 -142 c 0
 71.001 -139 69.001 -133 69.001 -129 c 1
 68.001 -125 66.001 -122 63.001 -119 c 0
 59.001 -115 59.001 -115 63.001 -107 c 1
 65.001 -101 68.001 -98 72.001 -97 c 1
 76.001 -95 85.001 -95 97.001 -95 c 0
 108.001 -95 121.001 -96 125.001 -97 c 0
 131.001 -99 136.001 -101 139.001 -104 c 0
 141.001 -107 145.001 -110 146.001 -111 c 1
 148.001 -112 149.001 -116 149.001 -118 c 0
 149.001 -121 151.001 -127 153.001 -132 c 0
 157.001 -139 159.001 -142 165.001 -144 c 0
 169.001 -145 172.001 -147 173.001 -148 c 1
 173.001 -149 179.001 -153 184.001 -155 c 0
 190.001 -158 195.001 -162 196.001 -163 c 0
 198.001 -165 200.001 -166 201.001 -166 c 0
 202.001 -166 206.001 -168 209.001 -171 c 0
 214.001 -175 215.001 -175 223.001 -174 c 0
 228.001 -173 235.001 -172 238.001 -170 c 0
 241.001 -168 247.001 -167 257.001 -167 c 0
 264.001 -167 271.001 -167 271.001 -166 c 1
 272.001 -165 275.001 -164 277.001 -164 c 0
 280.001 -164 286.001 -163 290.001 -161 c 0
 295.001 -159 299.001 -158 300.001 -158 c 1
 301.001 -159 307.001 -154 314.001 -148 c 0
 320.001 -142 328.001 -135 330.001 -131 c 1
 333.001 -128 337.001 -123 338.001 -121 c 1
 340.001 -119 341.001 -113 341.001 -109 c 0
 342.001 -104 343.001 -100 345.001 -98 c 0
 347.001 -95 348.001 -90 349.001 -80 c 0
 349.001 -72 351.001 -63 352.001 -60 c 1
 354.001 -58 355.001 -49 356.001 -42 c 1
 356.001 -34 357.001 -26 357.001 -24 c 0
 357.001 -21 356.001 -8 356.001 7 c 0
 355.001 27 354.001 33 352.001 36 c 0
 351.001 37 349.001 41 348.001 43 c 0
 346.001 48 345.001 48 339.001 48 c 0
 335.001 48 330.001 47 328.001 46 c 0
 326.001 45 325.001 44 325.001 43 c 0
 325.001 42 321.001 38 317.001 34 c 0
 313.001 30 309.001 27 307.001 27 c 0
 306.001 27 303.001 26 301.001 24 c 1
 299.001 23 296.001 22 295.001 22 c 0
 293.001 22 289.001 20 287.001 18 c 0
 284.001 15 281.001 13 279.001 13 c 0
 278.001 13 275.001 12 273.001 11 c 1
 271.001 9 266.001 8 262.001 7 c 0
 259.001 6 254.001 4 251.001 3 c 1
 248.001 1 240.001 0 212.001 0 c 0
 203.694 -0.267578 197.255 -0.391602 192.162 -0.391602 c 0
 178.249 -0.391602 174.393 0.536133 170 2 c 0
 166 4 160 6 157 7 c 1
 155 7 150 10 148 13 c 0
 145 17 141 18 132 20 c 0
 122 22 120 23 118 28 c 0
 117 31 112 36 108 40 c 1
 104 43 99 47 98 50 c 1
 98 52 96 56 96 57 c 1
 95 59 91 62 87 64 c 0
 80 67 78 69 75 76 c 0
 73 80 69 87 66 90 c 0
 63 93 61 98 61 101 c 0
 61 104 60 108 58 110 c 0
 56 113 54 117 54 122 c 0
 54 127 53 130 51 133 c 0
 48 136 47 139 47 144 c 0
 47 148 46 156 44 162 c 0
 40 171 40 175 40 219 c 0
 40 264 40 267 44 275 c 0
 47 281 47 285 46 294 c 0
 45 304 46 309 49 319 c 0
 51 326 54 335 56 338 c 0
 58 342 60 346 60 348 c 0
 60 350 61 356 63 361 c 0
 65 366 67 375 67 381 c 1
 68 387 70 393 71 395 c 0
 72 397 74 401 74 404 c 1
 75 407 77 411 78 412 c 0
 80 414 82 415 84 415 c 0
 85 415 88 418 90 422 c 0
 92 426 96 430 99 431 c 1
 102 433 107 436 109 439 c 0
 112 443 115 445 116 445 c 0
 117 445 122 448 126 451 c 1
 130 455 135 458 136 458 c 0
 137 458 141 460 144 462 c 0
 147 465 151 466 153 466 c 1
 155 465 159 466 163 468 c 0
 167 471 171 472 175 471 c 0
 179 470 181 471 185 475 c 0
EndSplineSet
Validated: 33
EndChar
StartChar: uni0068
Encoding: 104 104 73
Width: 607
GlyphClass: 2
Flags: W
LayerCount: 2
Fore
SplineSet
136 729 m 0
 140 731 145 732 148 732 c 0
 152 732 156 730 161 726 c 0
 166 722 170 717 171 713 c 0
 172 709 173 684 174 657 c 0
 175 630 175 601 175 592 c 2
 175 561 l 2
 175 549 175 546 171 541 c 0
 168 538 166 532 166 529 c 0
 166 526 168 521 170 518 c 0
 172 514 173 508 174 503 c 0
 174 499 174 493 175 489 c 0
 176 486 179 480 181 476 c 0
 184 472 188 468 192 467 c 0
 196 466 199 466 202 467 c 0
 204 468 207 469 208 470 c 1
 208 471 211 472 214 472 c 0
 217 472 222 474 225 475 c 1
 228 477 233 480 236 483 c 0
 240 487 241 488 244 486 c 0
 246 485 250 486 257 489 c 0
 263 491 270 494 273 494 c 1
 276 495 282 498 287 501 c 0
 292 505 297 507 298 507 c 0
 300 507 304 505 307 503 c 0
 310 501 315 499 318 499 c 0
 321 499 326 500 329 502 c 0
 332 504 339 506 345 507 c 1
 351 507 357 508 359 508 c 1
 361 507 365 507 369 507 c 2
 373 506 386 506 398 506 c 0
 420 506 420 506 432 493 c 0
 444 482 446 480 458 476 c 0
 464 474 471 471 472 469 c 1
 473 468 476 465 477 462 c 2
 479 459 484 450 488 442 c 0
 493 434 497 424 498 420 c 1
 498 417 500 411 502 408 c 0
 504 405 505 402 504 400 c 1
 504 398 505 394 507 391 c 0
 511 385 511 383 511 320 c 0
 512 256 512 256 516 252 c 0
 518.469 250.354 520.261 248.709 520.261 247.62 c 0
 520.261 247.601 519.858 247.611 518 164 c 0
 518 120 518 75 517 66 c 0
 517 56 516 45 514 41 c 1
 513 37 512 21 511 17 c 0
 510 13 509 9 508 8 c 1
 508 7 504 6 501 5 c 0
 497 4 490 4 484 3 c 2
 479 3 474 2 473 2 c 2
 461 2 l 2
 453 2 450 3 445 7 c 0
 440 12 440 22 439 82 c 2
 439 154 l 1
 439 245 l 2
 439 287 438 325 438 328 c 1
 437 332 436 335 435 337 c 1
 434 338 433 346 433 357 c 0
 434 373 433 375 430 378 c 0
 428 380 424 388 420 395 c 0
 416 402 412 411 409 414 c 0
 407 417 405 420 405 421 c 0
 405 422 402 427 397 432 c 0
 393 437 387 441 385 442 c 1
 383 442 380 444 377 446 c 0
 374 449 371 449 356 449 c 0
 342 449 338 449 336 452 c 1
 334 453 331 455 329 455 c 0
 327 455 324 453 320 452 c 2
 316 450 310 449 293 449 c 0
 273 449 270 448 265 445 c 1
 262 442 259 441 258 441 c 0
 257 441 254 438 251 435 c 0
 248 431 243 429 237 428 c 0
 232 427 227 425 224 422 c 0
 221 419 217 416 215 416 c 1
 214 415 210 410 207 404 c 0
 204 397 199 388 196 384 c 0
 193 379 191 374 191 372 c 0
 191 371 189 368 186 365 c 0
 182 360 182 359 181 344 c 0
 181 336 180 324 178 319 c 0
 176 313 174 301 174 293 c 2
 174 273 l 1
 173 271 174 265 174 261 c 0
 174 255 172 249 170 244 c 0
 168 238 167 234 168 227 c 2
 168 221 170 214 172 211 c 0
 173.464 208.072 174.392 202.465 174.392 168.678 c 0
 174.392 156.311 174.268 140.168 174 119 c 0
 174 41 174 32 171 28 c 1
 170 25 168 22 168 21 c 0
 168 19 164 14 160 10 c 0
 154 5 148 1 143 0 c 0
 140 -1 137.75 -1.5 135.625 -1.5 c 0
 133.5 -1.5 131.5 -1 129 0 c 0
 125 1 120 2 117 3 c 1
 114 3 112 5 110 9 c 0
 109 12 107 15 105 16 c 0
 103 17 100 20 99 24 c 2
 96 29 96 43 95 103 c 0
 95 130.333 94.5557 155 94.5557 169.296 c 0
 94.5557 176.444 94.667 181 95 182 c 1
 95 186 94 224 94 268 c 2
 94 353 l 1
 95 356 95 377 95 399 c 0
 95 434 95 439 92 444 c 0
 89 450 88 455 88 487 c 2
 88 557 l 1
 88 604 l 2
 88 611 88 620 87 622 c 1
 87 625 88 638 88 651 c 0
 89 670 90 676 93 682 c 1
 96 686 96 690 96 695 c 1
 95 698 95 702 96 703 c 2
 96 705 103 710 111 716 c 0
 119 721 126 725 127 725 c 0
 128 725 132 727 136 729 c 0
EndSplineSet
Validated: 33
EndChar
StartChar: uni006D
Encoding: 109 109 78
Width: 877
GlyphClass: 2
Flags: W
LayerCount: 2
Fore
SplineSet
301 501 m 2
 314 501 l 2
 321 501 331 500 337 500 c 0
 344 500 348 499 351 496 c 0
 353 494 358 491 362 489 c 0
 366 487 372 486 377 486 c 0
 381 486 387 485 391 485 c 1
 394 484 399 480 403 477 c 0
 406 474 411 471 414 470 c 0
 417 469 422 465 429 459 c 1
 434 452 439 445 441 440 c 0
 442 436 445 431 447 430 c 1
 448 429 456 429 464 430 c 0
 478 431 478 431 497 450 c 0
 510 463 518 469 522 470 c 0
 525 471 531 474 534 477 c 0
 537 480 543 483 546 484 c 0
 549 485 554 488 557 490 c 0
 560 492 564 493 568 493 c 0
 572 493 577 495 581 496 c 1
 586 499 593 499 630 500 c 0
 672 500 673 500 680 496 c 0
 685 493 690 492 696 492 c 0
 701 492 705 491 706 490 c 0
 707 489 710 488 713 487 c 1
 715 487 720 485 723 482 c 1
 727 480 732 477 736 475 c 0
 739 474 745 469 749 465 c 0
 753 461 756 456 756 455 c 0
 756 454 759 451 762 449 c 0
 765 446 769 441 770 438 c 0
 771 434 772 429 771 425 c 0
 770 420 771 418 775 414 c 0
 779 410 779 408 778 400 c 0
 777 392 778 389 782 380 c 0
 784 373 789 364 792 359 c 0
 796 353 798 347 799 341 c 0
 800 335 800 325 800 317 c 2
 800 274 l 2
 799.5 266 799.25 258 799.25 251.625 c 0
 799.25 245.25 799.5 240.5 800 239 c 1
 800 235 800 222 799 209 c 0
 799 196 798 184 797 182 c 0
 796 180 794 173 793 167 c 0
 792 160 792 150 792 143 c 0
 792 136 794 127 796 123 c 0
 798 117 799 110 799 67 c 0
 798 17 798 17 792 11 c 0
 789 8 786 5 785 5 c 0
 784 5 782 4 779 2 c 0
 776 -1 771 -1 760 -1 c 0
 749 -1 744 0 738 3 c 0
 733 6 729 8 728 9 c 1
 728 10 727 14 728 17 c 1
 728 21 727 24 724 27 c 0
 721 30 721 33 721 42 c 2
 721 60 l 1
 721 74 l 1
 721 86 l 2
 721 88 721 95 720 100 c 0
 719 105 719 114 719 119 c 0
 719 125 720 133 720 139 c 1
 721 144 721 158 721 171 c 0
 721 189 721 194 723 196 c 0
 725 199 726 204 726 215 c 0
 727 229 726 232 723 237 c 0
 720 243 719 246 719 266 c 0
 719 279 720 294 720 300 c 0
 720 308 719 312 716 314 c 1
 713 318 713 321 713 342 c 0
 713 361 712 368 710 371 c 0
 709 373 707 379 706 383 c 0
 705 390 704 393 699 397 c 0
 695 400 690 406 686 410 c 0
 683 413 679 416 678 416 c 0
 677 416 673 420 669 424 c 0
 663 431 662 432 655 432 c 0
 648 432 646 433 643 436 c 0
 639 441 639 441 603 441 c 0
 567 441 567 441 555 435 c 0
 548 431 540 426 538 424 c 0
 535 421 532 420 531 420 c 0
 530 420 525 418 520 415 c 2
 515 413 508 408 505 405 c 0
 502 401 499 396 498 394 c 0
 497 391 496 387 496 384 c 0
 496 381 495 377 493 374 c 0
 491 372 489 368 488 365 c 1
 488 363 486 359 484 357 c 0
 482 355 480 352 481 351 c 0
 482 350 481 347 479 344 c 0
 477 340 477.091 330.996 476 307 c 0
 475 285 474 274 473 271 c 1
 471 268 470 260 470 248 c 0
 470 233 470 228 473 226 c 0
 476 223 476 216 476 154 c 0
 476 116 477 84 478 82 c 1
 478 80 478 76 477 73 c 0
 476 70 475 61 475 53 c 0
 475 45 476 37 477 35 c 1
 479 33 479 30 477 23 c 0
 476 19 474 13 472 12 c 1
 470 10 468 9 467 9 c 0
 466 9 463 6 462 3 c 1
 458 -2 458 -2 439 -1 c 0
 420 0 420 0 412 8 c 0
 408 12 404 16 403 16 c 0
 402 16 401 17 401 18 c 1
 400 20 401 23 401 26 c 1
 402 30 403 42 403 53 c 2
 403 79 l 2
 403 81 403 87 404 92 c 0
 405 100 405 102 401 108 c 0
 398 114 398 115 398 202 c 2
 398 301 l 2
 398 308 396 314 394 319 c 0
 392 323 391 328 391 331 c 0
 391 334 390 340 390 346 c 1
 389 351 387 358 384 361 c 1
 382 365 380 370 380 372 c 0
 380 375 378 381 376 386 c 1
 373 390 370 396 369 398 c 0
 368 400 365 405 362 409 c 0
 359 413 357 416 356 416 c 0
 355 416 352 418 349 420 c 0
 346 423 342 425 339 426 c 0
 336 427 331 429 327 430 c 1
 323 433 317 434 308 434 c 0
 301 434 289 434 281 435 c 0
 269 436 267 435 259 431 c 0
 254 429 247 427 245 427 c 0
 242 427 239 425 237 423 c 0
 235 421 232 420 229 420 c 0
 227 420 222 418 219 416 c 0
 215 413 211 412 207 412 c 1
 203 413 200 411 195 407 c 0
 191 404 189 400 189 397 c 0
 189 395 188 390 186 387 c 2
 185 384 182 380 180 379 c 0
 178 378 175 373 174 370 c 0
 173 366 171 361 169 358 c 0
 167 356 166 352 166 350 c 0
 166 348 165 345 163 342 c 0
 160 339 160 334 160 314 c 0
 160 294 159 290 156 284 c 0
 153 279 153 275 153 255 c 0
 153 236 154 231 156 227 c 0
 159 223 159 215 160 150 c 0
 161 111 161 76 161 73 c 0
 161 70 161 60 160 50 c 0
 160 40 160 29 161 26 c 0
 162 20 162 18 159 15 c 0
 157 13 155 9 155 6 c 0
 155 2 153 0 149 -1 c 0
 146 -2 141 -4 137 -5 c 0
 132 -7 126 -8 118 -8 c 0
 110 -7 104 -6 97 -3 c 0
 92 0 88 3 87 5 c 1
 87 6 86 10 85 12 c 0
 83 15 82 20 81 24 c 0
 80 29 79 36 80 40 c 0
 81 45 81 76 81 110 c 0
 81 166 80 172 78 176 c 0
 76 179 74 186 73 193 c 1
 73 202 73 210 75 220 c 0
 79 233 79 234 76 239 c 0
 73 244 73 248 73 258 c 0
 74 266 76 274 78 279 c 0
 80 284 81 288 80 293 c 0
 79 296 77 303 76 308 c 0
 75 312 75 324 75 333 c 0
 75 344 77 353 79 359 c 0
 82 367 82 367 78 373 c 0
 74 380 74 381 74 418 c 0
 73.75 427 73.625 433.875 73.625 439.25 c 0
 73.625 455.375 74.75 458 77 464 c 1
 80 468 82 473 82 474 c 0
 82 475 85 479 88 483 c 1
 92 486 97 490 101 491 c 2
 105 493 110 493 121 492 c 0
 132 491 136 490 140 486 c 0
 145 482 145 481 145 473 c 0
 145 466 146 462 149 457 c 1
 152 454 154 451 154 450 c 0
 154 449 155 446 158 444 c 2
 161 440 163 439 172 438 c 0
 179 438 184 438 186 440 c 0
 187 441 190 445 192 450 c 0
 194 454 199 461 203 465 c 0
 208 470 214 476 218 479 c 0
 223 483 226 485 232 485 c 0
 236 485 241 486 243 488 c 0
 246 490 251 493 255 495 c 0
 262 498 267 499 282 500 c 0
 292 500 300 501 301 501 c 2
EndSplineSet
Validated: 33
EndChar
StartChar: uni006E
Encoding: 110 110 79
Width: 596
GlyphClass: 2
Flags: W
LayerCount: 2
Fore
SplineSet
344 509 m 0
 348.393 510.464 351.713 511.391 353.962 511.391 c 0
 354.785 511.391 355.465 511.267 356.001 510.999 c 0
 358.001 509.999 364.001 508.999 370.001 507.999 c 0
 376.001 506.999 382.001 505.999 384.001 504.999 c 1
 386.001 502.999 391.001 499.999 395.001 497.999 c 0
 400.001 494.999 406.001 492.999 409.001 492.999 c 0
 411.001 492.999 416.001 490.999 420.001 488.999 c 0
 423.001 486.999 429.001 483.999 432.001 483.999 c 0
 437.001 482.999 439.001 480.999 442.001 476.999 c 0
 444.001 472.999 448.001 468.999 454.001 466.999 c 1
 461.001 462.999 463.001 460.999 467.001 452.999 c 0
 470.001 446.999 475.001 439.999 478.001 436.999 c 0
 481.001 433.999 484.001 429.999 484.001 427.999 c 0
 484.001 425.999 485.001 422.999 485.001 421.999 c 0
 485.001 420.999 486.001 417.999 487.001 413.999 c 0
 488.001 410.999 490.001 403.999 490.001 398.999 c 1
 491.001 394.999 493.001 388.999 494.001 385.999 c 1
 496.001 383.999 499.001 378.999 500.001 374.999 c 2
 503.001 369.999 504.001 361.999 505.001 347.999 c 0
 505.001 332.999 506.001 326.999 508.001 323.999 c 0
 510.001 321.999 511.001 314.999 511.001 282.999 c 0
 511.001 249.999 510.001 243.999 508.001 238.999 c 0
 505.001 232.999 504.001 226.999 504.001 177.999 c 0
 504.001 125.999 504.001 122.999 500.001 114.999 c 0
 497.001 106.999 496.001 104.999 498.001 93.999 c 0
 499.001 86.999 501.001 79.999 502.001 77.999 c 1
 503.001 76.999 503.001 70.999 503.001 64.999 c 0
 503.001 56.999 502.001 51.999 500.001 46.999 c 1
 497.001 41.999 496.001 37.999 497.001 32.999 c 1
 497.001 16.999 l 2
 496.001 8.99902 495.001 7.99902 488.001 4.99902 c 0
 481.001 1.99902 479.001 1.99902 474.001 2.99902 c 0
 471.001 3.99902 466.001 4.99902 463.001 4.99902 c 0
 459.001 4.99902 452.001 5.99902 446.001 7.99902 c 1
 438.001 8.99902 435.001 10.999 434.001 13.999 c 1
 432.001 16.999 432.001 20.999 432.001 26.999 c 1
 433.001 31.999 432.001 38.999 430.001 47.999 c 0
 429.001 54.999 426.001 60.999 426.001 61.999 c 1
 425.001 62.999 425.001 75.999 425.001 90.999 c 0
 426.001 105.999 426.001 124.999 426.001 131.999 c 0
 426.001 139.999 425.001 148.999 424.001 151.999 c 0
 423.001 155.999 423.001 159.999 424.001 163.999 c 0
 424.708 166.12 425.415 181.241 425.415 207.241 c 0
 425.415 218.011 425.294 230.646 425.001 244.998 c 0
 425.001 286.998 424.001 321.998 423.001 322.998 c 1
 423.001 323.998 423.001 325.998 424.001 328.998 c 0
 425.001 331.998 425.001 333.998 422.001 337.998 c 0
 420.001 341.998 419.001 345.998 419.001 352.998 c 0
 419.001 357.998 419.001 365.998 418.001 369.998 c 0
 417.001 372.998 416.001 378.998 414.001 380.998 c 1
 413.001 383.998 412.001 387.998 412.001 390.998 c 0
 412.001 393.998 410.001 397.998 408.001 399.998 c 0
 405.001 402.998 403.001 405.998 403.001 406.998 c 0
 403.001 408.998 401.001 411.998 397.001 414.998 c 0
 394.001 417.998 391.001 421.998 390.001 423.998 c 0
 388.001 426.998 386.001 426.998 380.001 426.998 c 0
 375.001 426.998 371.001 427.998 366.001 430.998 c 0
 363.001 432.998 356.001 436.998 350.001 438.998 c 0
 344.001 440.998 338.001 441.998 333.001 440.998 c 0
 328.001 439.998 325.001 440.998 320.001 443.998 c 0
 315.001 447.998 313.001 448.998 297.001 448.998 c 0
 286.001 448.998 277.001 447.998 275.001 445.998 c 2
 272.001 444.998 270.001 442.998 270.001 441.998 c 1
 270.001 441.998 266.001 439.998 262.001 438.998 c 0
 258.001 437.998 251.001 434.998 247.001 432.998 c 0
 243.001 430.998 237.001 426.998 236.001 424.998 c 1
 234.001 422.998 231.001 420.998 230.001 420.998 c 0
 228.001 420.998 225.001 419.998 224.001 417.998 c 2
 222.001 416.998 221.001 414.998 221.001 412.998 c 0
 221.001 411.998 217.001 408.998 213.001 406.998 c 0
 209.001 404.998 201.001 399.998 196.001 396.998 c 1
 189.001 390.998 187.001 388.998 187.001 384.998 c 0
 187.001 382.998 186.001 378.998 185.001 376.998 c 0
 184.001 374.998 182.001 373.998 180.001 373.998 c 0
 178.001 373.998 176.001 371.998 175.001 369.998 c 0
 174.001 367.998 173.001 362.998 174.001 357.998 c 0
 175.001 350.998 175.001 347.998 171.001 342.998 c 0
 167.001 336.998 167.001 334.998 167.001 302.998 c 0
 167.001 270.998 167.001 268.998 163.001 262.998 c 0
 159.001 256.998 159.001 255.998 161.001 243.998 c 2
 161.001 237.998 163.001 230.998 163.001 229.998 c 1
 164.001 228.998 164.001 221.998 163.001 213.998 c 0
 162.001 205.998 160.001 193.998 160.001 187.998 c 0
 159.001 178.998 160.001 173.998 163.001 162.998 c 0
 167.001 149.998 167.001 148.998 167.001 89.998 c 0
 167.001 30.998 167.001 30.998 162.001 21.998 c 0
 160.001 16.998 154.001 9.99805 151.001 5.99805 c 1
 144.001 -0.00195312 144 0.0234375 123.001 -1.00195 c 0
 116.334 -1.32715 111.89 -1.55762 108.778 -1.55762 c 0
 102.556 -1.55762 101.667 -0.668945 99 1.99805 c 0
 96 4.99805 94 8.99805 94 10.998 c 0
 94 12.998 92 16.998 90 19.998 c 0
 87 23.998 87 25.998 88 31.998 c 0
 89 35.998 89 51.998 89 67.998 c 0
 89 78.665 88.5557 97.332 88.5557 116.295 c 0
 88.5557 125.776 88.667 135.332 89 143.999 c 2
 89 202.999 l 2
 89 211.999 87 216.999 84 222.999 c 0
 81.6572 228.271 80.6865 230.455 80.6865 235.782 c 0
 80.6865 239.549 81.2402 244.881 82 254 c 0
 83 266 84 278 84 280 c 0
 84 282 83 288 83 293 c 0
 82 301 82 304 85 310 c 0
 87 314 89 321 89 325 c 0
 89 329 87 335 85 339 c 0
 81 345 81 346 81 404 c 0
 81 457 81 464 84 471 c 0
 86 475 88 480 89 481 c 1
 89 483 95 484 102 486 c 0
 109 487 119 489 126 491 c 0
 132 493 138 495 140 495 c 0
 142 495 144 493 145 491 c 0
 146 489 147 486 148 486 c 1
 149 485 152 480 155 475 c 0
 158 470 161 464 161 463 c 0
 161 461 163 457 165 454 c 0
 168 450 171 445 174 444 c 2
 176 442 180 441 184 441 c 0
 188 441 193 442 197 445 c 0
 201 447 205 450 205 451 c 1
 206 452 210 457 214 461 c 2
 217 465 225 471 231 474 c 0
 237 477 248 482 255 485 c 0
 262 488 270 493 274 495 c 0
 280 499 284 500 289 500 c 0
 294 500 299 502 302 503 c 1
 306 506 311 506 322 506 c 0
 332 506 338 506 344 509 c 0
EndSplineSet
Validated: 33
EndChar
StartChar: uni0074
Encoding: 116 116 85
Width: 389
GlyphClass: 2
Flags: W
LayerCount: 2
Fore
SplineSet
198 636 m 1
 201 637 205.999 639 207.999 639 c 1
 209.999 638 213.999 636 214.999 634 c 0
 217.999 630 218.999 626 218.999 614 c 0
 218.999 606 217.999 594 216.999 587 c 0
 214.999 578 214.999 575 216.999 569 c 0
 217.999 565 218.999 555 218.999 543 c 0
 218.999 525 218.999 522 221.999 517 c 0
 224.999 513 227.999 510 231.999 509 c 0
 235.999 508 242.999 507 248.999 506 c 0
 256.999 505 259.999 506 264.999 509 c 0
 271.999 513 273.999 513 300.999 514 c 0
 321.999 514 331.999 513 334.999 512 c 1
 337.999 510 339.999 507 340.999 502 c 0
 341.999 498 342.999 493 342.999 491 c 0
 342.999 489 343.999 483 343.999 478 c 0
 343.999 470 343.999 467 339.999 461 c 0
 335.999 456 332.999 453 327.999 451 c 0
 323.999 450 307.999 449 284.999 449 c 0
 263.999 448 243.999 448 238.999 448 c 0
 231.999 448 227.999 447 224.999 444 c 0
 219.999 439 219.999 439 218.999 343 c 2
 218.999 242 l 1
 218.999 211 l 2
 217.999 189 217.999 184 214.999 180 c 0
 212.999 176 211.999 171 211.999 163 c 0
 211.999 156 212.999 147 215.999 138 c 0
 218.999 129 220.999 120 220.999 114 c 0
 219.999 106 220.999 103 223.999 100 c 0
 225.999 97 227.999 94 227.999 92 c 0
 227.999 91 228.999 86 231.999 81 c 0
 233.999 77 236.999 72 236.999 72 c 2
 237.999 71 260.999 71 288.999 71 c 0
 339.999 71 339.999 71 346.999 65 c 0
 350.999 62 352.999 58 353.999 55 c 1
 353.999 40.085 355.348 43.8135 355.348 36.3564 c 0
 355.348 31.6973 353.875 28.7529 349.999 21 c 0
 345.999 15 341.999 9 338.999 8 c 0
 336.999 7 327.999 6 316.999 6 c 0
 305.999 5 295.999 4 290.999 3 c 1
 286.999 1 276.999 0 265.999 -0 c 0
 263.07 -0.292969 259.884 -0.414062 256.691 -0.414062 c 0
 248.984 -0.414062 241.242 0.292969 237 1 c 0
 232 2 224 5 221 8 c 1
 217 10 212 12 208 12 c 0
 205 12 200 14 195 17 c 0
 191 20 182 27 175 33 c 0
 167 39 160 46 158 49 c 0
 156 51 152 58 150 63 c 2
 147 68 144 76 142 80 c 1
 141 84 140 91 140 96 c 0
 140 102 138 108 136 112 c 0
 132 120 132 120 137 128 c 0
 141 136 141 136 141 177 c 0
 141 218 141 218 137 224 c 0
 133 230 133 232 134 241 c 0
 134 247 136 255 138 259 c 0
 141 264 141 266 140 272 c 0
 139 275 139 281 139 284 c 1
 140 286 140 309 140 334 c 0
 140 360 139 382 139 384 c 0
 139 386 140 397 140 409 c 0
 141 431 141 431 134 438 c 0
 130 442 125 447 124 449 c 0
 121 453 120 454 106 454 c 0
 98 455 87 455 81 455 c 2
 66 455 l 1
 64 454 58 455 54 456 c 2
 49 456 43 458 40 460 c 0
 36 462 33 465 31 470 c 0
 29 474 27 481 27 485 c 2
 27 498 l 2
 27 501 29 503 32 504 c 0
 35 505 39 508 41 510 c 0
 45 513 48 513 82 513 c 0
 115 514 120 514 124 517 c 1
 127 518 132 524 135 529 c 0
 142 539 142 539 141 558 c 0
 140 568 140 579 140 581 c 2
 140 596 l 2
 141 604 142 607 145 609 c 0
 147 611 153 615 158 619 c 0
 163 624 167 627 169 626 c 0
 171 625 174 627 176 629 c 0
 180 633 182 633 186 633 c 1
 190 632 194 633 198 636 c 1
EndSplineSet
Validated: 33
EndChar
StartChar: uni0075
Encoding: 117 117 86
Width: 625
GlyphClass: 2
Flags: W
LayerCount: 2
Fore
SplineSet
115 519 m 0
 119 522 124.999 524.998 126.999 524.998 c 0
 128.999 524.998 132.999 521.998 134.999 519.998 c 0
 138.999 514.998 139.999 514.998 153.999 515.998 c 0
 161.999 516.998 170.999 516.998 173.999 515.998 c 1
 176.999 515.998 180.999 512.998 183.999 507.998 c 0
 187.999 502.998 188.999 498.998 188.999 492.998 c 0
 188.999 488.998 189.999 483.998 190.999 482.998 c 1
 191.999 480.998 191.999 469.998 190.999 456.998 c 0
 189.999 440.998 188.999 433.998 185.999 429.998 c 0
 183.999 425.998 182.999 420.998 182.999 385.998 c 0
 182.999 349.998 183.999 345.998 186.999 340.998 c 0
 188.999 337.998 189.999 334.998 188.999 327.998 c 0
 187.999 322.998 185.999 316.998 184.999 314.998 c 0
 182.999 310.998 181.999 307.998 182.999 300.998 c 1
 182.999 295.998 182.999 285.998 181.999 278.998 c 0
 180.999 265.998 180.999 265.998 185.999 260.998 c 1
 191.999 256.998 191.999 256.998 189.999 241.998 c 0
 189.999 233.998 188.999 225.998 188.999 223.998 c 2
 188.999 184.998 l 2
 188.999 147.998 188.999 147.998 194.999 140.998 c 1
 196.999 136.998 202.924 126.964 206.999 117.998 c 0
 211.999 106.998 216.999 99.998 223.999 91.998 c 0
 231.999 83.998 236.999 80.998 246.999 76.998 c 0
 257.999 72.998 260.999 72.998 282.999 72.998 c 2
 318.999 72.998 l 2
 325.999 72.998 334.999 74.998 340.999 76.998 c 0
 345.999 78.998 352.999 79.998 355.999 79.998 c 0
 357.999 79.998 364.999 82.998 369.999 85.998 c 0
 375.999 88.998 383.999 92.998 388.999 94.998 c 0
 393.999 96.998 400.999 101.998 404.999 104.998 c 1
 410.999 110.998 411.999 112.998 411.999 118.998 c 0
 411.999 122.998 412.999 128.998 414.999 130.998 c 1
 415.999 132.998 418.999 135.998 420.999 135.998 c 1
 424.999 136.998 425.999 138.998 425.999 142.998 c 1
 426.999 144.998 427.999 148.998 428.999 149.998 c 1
 429.999 151.998 431.999 155.998 432.999 159.998 c 1
 432.999 163.998 433.999 171.998 434.999 176.998 c 0
 435.999 181.998 436.999 187.998 438.999 189.998 c 0
 440.999 191.998 440.999 207.998 441.999 282.998 c 0
 441.999 331.998 440.999 381.998 439.999 391.998 c 0
 439.585 397.797 439.343 403.596 439.343 409.537 c 0
 439.343 417.939 439.828 426.626 441 435.999 c 0
 443 458.999 443 458.999 438 464.999 c 0
 434 469.999 434 470.999 435 477.999 c 1
 435 482.999 437 487.999 438 489.999 c 0
 439 491.999 441 495.999 441 497.999 c 0
 441 499.999 442 503.999 443 506.999 c 1
 445 509.999 448 512.999 450 513.999 c 0
 452 514.999 465 515.999 486 516.999 c 0
 518 516.999 518 516.999 526 509.999 c 0
 534 501.999 534 501.999 534 474.999 c 2
 534 439.999 l 1
 533 435.999 534 421.999 534 408.999 c 0
 536 386.999 535 385.999 532 382.999 c 0
 528 378.999 528 378.999 528 322.999 c 0
 528 273.999 528 265.999 531 262.999 c 0
 533 260.999 533 254.999 534 235.999 c 2
 534 209.999 l 1
 534 159.999 l 2
 535 118.999 536 112.999 538 108.999 c 0
 541 103.999 541 99.999 541 67.999 c 0
 541 47.999 541 29.999 540 27.999 c 0
 539 25.999 534 19.999 528 15.999 c 0
 519 9.99902 516 7.99902 512 8.99902 c 0
 509 9.99902 506 8.99902 502 5.99902 c 0
 496 1.99902 496 1.99902 489 5.99902 c 0
 484 8.99902 479 9.99902 473 9.99902 c 1
 467 8.99902 460 10.999 454 12.999 c 0
 445 16.999 444 17.999 440 26.999 c 0
 437 31.999 435 36.999 435 38.999 c 0
 435 39.999 434 41.999 433 41.999 c 2
 432 42.999 425 43.999 416 43.999 c 0
 406 43.999 399 42.999 396 40.999 c 2
 393 39.999 388 35.999 385 32.999 c 0
 383 29.999 379 26.999 379 26.999 c 1
 378 26.999 375 25.999 373 23.999 c 0
 370 21.999 365 19.999 362 19.999 c 0
 358 19.999 351 18.999 347 16.999 c 0
 343 14.999 336 9.99902 333 5.99902 c 0
 329.09 1.4375 327.303 -0.151367 325.148 -0.151367 c 0
 323.997 -0.151367 322.741 0.302734 321 0.999023 c 0
 318.657 2.1709 314.599 2.65625 307.216 2.65625 c 0
 301.995 2.65625 295.113 2.41406 286.001 2 c 0
 276.001 1.66699 269.334 1.44434 264.741 1.44434 c 0
 255.556 1.44434 254.667 2.33301 252 5 c 0
 248 10 246 10 238 9 c 0
 233 9 226 9 222 10 c 0
 217 11 213 14 209 18 c 0
 206 21 203 24 201 24 c 0
 200 24 196 23 193 22 c 0
 188 21 186 21 178 26 c 0
 173 30 168 34 167 35 c 0
 165 37 163 38 161 38 c 0
 158 38 153 41 149 44 c 0
 146 47 141 50 140 50 c 0
 139 50 137 52 136 54 c 0
 135 56 133 61 132 65 c 0
 131 69 129 73 124 77 c 0
 120 80 117 83 117 85 c 0
 117 87 116 91 114 93 c 0
 111 97 110 99 111 104 c 0
 112 108 111 111 109 114 c 0
 107 116 105 122 105 128 c 1
 104 134 103 140 101 141 c 1
 100 143 99 148 99 154 c 2
 98 159 98 183 97 206 c 0
 97 221.333 96.5557 238 96.5557 250.37 c 0
 96.5557 256.556 96.667 261.667 97 265 c 2
 97 297 l 2
 97 306 97 316 96 320 c 1
 96 324 97 339 97 354 c 0
 98 369 98 385 98 388 c 2
 98 403 l 1
 98 413 l 2
 98 415 98 425 97 435 c 0
 97 449 95 457 93 462 c 0
 90 468 90 472 90 477 c 1
 91 480 93 486 95 490 c 0
 97 493 98 499 98 501 c 0
 98 504 100 508 102 510 c 0
 104 512 110 516 115 519 c 0
EndSplineSet
Validated: 33
EndChar
StartChar: uni0079
Encoding: 121 121 90
Width: 508
GlyphClass: 2
Flags: W
LayerCount: 2
Fore
SplineSet
455 532 m 0
 459 536 461 537 471 537 c 0
 479 537 482 536 484 534 c 0
 486 532 488 528 489 524 c 0
 490 521 491 510 491 501 c 0
 491.25 497 491.375 493.812 491.375 491.188 c 0
 491.375 483.312 490.25 480.5 488 476 c 0
 485 471 484 466 484 461 c 0
 484 453 483 452 477 447 c 0
 472 443 470 440 470 437 c 0
 470 434 468 427 466 422 c 0
 464 416 461 410 459 408 c 0
 457 406 456 401 456 398 c 0
 456 395 453 387 448 380 c 1
 444 372 441 364 441 361 c 0
 441 358 440 354 439 353 c 1
 438 351 435 344 433 338 c 0
 431 332 426 319 421 311 c 0
 416 300 413 293 413 287 c 1
 412 282 411 278 410 276 c 1
 409 275 407 269 405 263 c 0
 403 257 401 250 401 247 c 0
 401 245 399 238 396 232 c 0
 393 226 390 219 389 216 c 1
 389 213 387 209 385 207 c 1
 383 206 382 202 382 200 c 0
 382 198 380 194 377 191 c 0
 373 186 372 184 373 177 c 1
 373 171 372 168 369 163 c 1
 366 160 364 155 364 153 c 0
 364 150 363 144 361 141 c 0
 358 136 357 132 358 130 c 0
 359 127 358 124 355 122 c 1
 354 120 352 117 352 114 c 0
 352 112 350 109 349 108 c 1
 347 108 343 100 340 93 c 0
 337 85 332 77 330 75 c 1
 328 74 326 70 324 67 c 1
 323 63 322 58 322 54 c 0
 322 50 321 46 319 44 c 0
 317 42 315 40 315 38 c 0
 315 36 314 34 312 32 c 1
 311 30 310 27 310 24 c 0
 310 22 308 19 305 17 c 0
 301 14 300 13 303 8 c 0
 304 6 304 2 304 0 c 1
 303 -2 301 -5 298 -6 c 0
 295 -7 294 -9 295 -12 c 0
 296 -15 294 -20 291 -26 c 0
 289 -31 287 -37 287 -38 c 0
 287 -39 285 -43 283 -45 c 0
 281 -48 280 -53 280 -55 c 0
 280 -58 277 -65 274 -70 c 0
 270 -76 268 -82 268 -83 c 0
 268 -85 266 -89 263 -92 c 1
 260 -97 259 -100 259 -106 c 0
 259 -110 258 -114 257 -116 c 1
 255 -118 253 -121 253 -124 c 1
 246 -138 l 2
 244 -143 237 -151 232 -157 c 1
 225 -163 221 -166 217 -166 c 0
 214 -166 210 -166 207 -167 c 2
 203 -167 198 -169 194 -170 c 1
 191 -172 186 -173 182 -173 c 0
 179 -173 176 -171 174 -169 c 0
 171 -167 168 -166 163 -166 c 0
 156 -166 155 -165 150 -159 c 0
 145 -151 145 -151 148 -146 c 0
 150 -142 152 -138 152 -135 c 0
 152 -132 153 -127 155 -124 c 0
 157 -121 159 -115 160 -111 c 1
 162 -107 164 -102 166 -100 c 0
 168 -98 172 -93 175 -89 c 0
 178 -85 180 -78 181 -74 c 0
 182 -69 183 -63 185 -61 c 0
 187 -58 189 -54 189 -49 c 0
 189 -45 190 -39 192 -36 c 0
 194 -32 197 -27 199 -24 c 0
 201 -22 202 -19 201 -18 c 1
 201 -17 202 -15 204 -12 c 1
 207 -10 208 -5 209 4 c 0
 209 10 210 23 210 31 c 0
 211 45 211 46 206 52 c 0
 201 57 201 59 202 67 c 0
 203 76 203 76 197 81 c 1
 193 83 190 88 189 90 c 1
 189 93 187 97 185 99 c 0
 183 102 180 108 177 114 c 0
 174 120 173 127 173 132 c 0
 173 138 172 142 170 143 c 1
 169 144 167 147 166 149 c 1
 166 151 162 156 158 159 c 1
 154 164 152 167 152 170 c 0
 152 173 150 176 147 178 c 0
 144 181 143 183 144 188 c 0
 145 192 144 196 142 199 c 0
 141 201 139 204 139 206 c 0
 139 208 137 211 135 214 c 0
 133 216 131 219 131 221 c 1
 130 222 129 225 128 227 c 1
 126 229 125 232 125 235 c 0
 125 237 124 243 123 247 c 1
 121 251 118 258 116 261 c 0
 113 265 109 274 106 282 c 0
 103 289 99 297 97 299 c 0
 95 301 94 303 95 305 c 1
 95 306 94 309 92 312 c 0
 90 314 88 319 88 323 c 1
 87 326 85 332 83 337 c 0
 81 341 76 350 73 356 c 0
 70 361 67 368 67 370 c 0
 67 371 65 375 61 378 c 1
 58 382 55 386 54 388 c 2
 50 396 l 1
 47 399 46 403 46 410 c 0
 46 416 45 422 43 427 c 0
 41 431 37 436 34 439 c 0
 32 441 31 444 31 445 c 1
 32 446 30 450 27 453 c 0
 24 456 21 460 20 462 c 0
 19 465 18 470 18 475 c 0
 18 482 17 485 14 488 c 0
 12 491 9 496 9 500 c 0
 8.5 502.5 8.25 504.75 8.25 506.625 c 0
 8.25 508.5 8.5 510 9 511 c 1
 9 512 11 514 13 515 c 2
 14 516 19 517 23 518 c 0
 26 519 36 520 43 521 c 0
 54 523 58 522 62 520 c 0
 64 519 75 509 86 498 c 0
 100 484 106 477 106 474 c 0
 106 472 107 469 109 468 c 1
 110 466 113 464 114 463 c 1
 116 463 118 458 119 454 c 1
 121 450 124 445 125 444 c 1
 127 443 129 439 130 435 c 0
 131 432 132 426 132 422 c 0
 132 417 134 413 139 405 c 0
 143 399 146 392 146 389 c 0
 146 387 149 381 151 378 c 0
 154 374 158 370 159 368 c 1
 161 367 162 363 162 355 c 0
 162 347 163 344 166 340 c 0
 169 337 172 331 174 323 c 0
 175 317 178 309 179 307 c 0
 181 304 182 300 182 297 c 0
 182 295 182 291 183 289 c 1
 184 288 188 283 191 279 c 0
 197 272 197 270 196 264 c 0
 196 260 196 256 199 251 c 0
 201 247 204 241 206 236 c 0
 208 231 210 225 210 223 c 0
 210 220 210 217 211 216 c 0
 212 215 214 213 216 212 c 0
 218 211 223 204 227 195 c 0
 231 187 236 179 238 178 c 1
 240 176 241 173 241 171 c 0
 241 169 242 165 244 163 c 1
 245 160 246 156 246 154 c 0
 246 151 248 147 250 144 c 0
 253 139 255 138 262 138 c 1
 268 137 271 137 274 139 c 0
 276 140 279 144 280 147 c 0
 281 150 283 156 284 161 c 1
 286 165 288 170 290 172 c 1
 291 174 292 179 292 183 c 0
 292 187 293 192 295 195 c 1
 296 198 297 203 297 208 c 0
 297 214 299 216 303 221 c 0
 306 224 308 228 308 228 c 1
 308 229 310 233 311 237 c 2
 313 241 315 246 315 247 c 0
 315 249 316 252 318 255 c 0
 319 257 320 262 320 266 c 0
 320 271 321 274 323 278 c 1
 326 280 327 284 327 285 c 0
 327 286 329 288 331 290 c 0
 333 292 334 295 334 299 c 0
 334 302 337 311 340 318 c 0
 344 325 347 332 347 333 c 0
 347 334 349 337 351 340 c 0
 354 344 356 349 356 356 c 1
 357 362 358 367 359 368 c 1
 360 368 363 373 365 378 c 0
 368 384 369 391 369 395 c 0
 369 401 372 407 376 417 c 0
 380 425 384 432 384 433 c 0
 384 434 385 436 387 437 c 1
 389 439 391 443 391 447 c 1
 392 451 393 455 395 456 c 1
 396 457 399 464 400 471 c 0
 402 478 405 486 407 488 c 0
 409 491 412 496 413 500 c 0
 414 503 417 508 420 512 c 1
 424 515 426 520 426 523 c 0
 426 526 427 529 429 530 c 0
 431 531 435 531 441 529 c 1
 450 528 451 528 455 532 c 0
EndSplineSet
Validated: 33
EndChar
StartChar: uni007A
Encoding: 122 122 91
Width: 474
GlyphClass: 2
Flags: W
LayerCount: 2
Fore
SplineSet
87 509 m 0
 88 509.5 89.5 509.75 91.25 509.75 c 0
 93 509.75 95 509.5 97 509 c 2
 100 509 104 507 106 505 c 0
 109 503 116 503 162 502 c 0
 214 502 214 502 219 498 c 0
 222 495 224 495 228 496 c 1
 232 496 237 498 241 500 c 0
 246 502 253 503 260 503 c 0
 271 503 272 503 275 499 c 0
 277 495 279 495 290 495 c 0
 296 495 303 496 304 496 c 1
 305 497 310 497 315 495 c 1
 324 493 324 493 333 497 c 0
 340 501 345 502 358 503 c 0
 375 504 375 503 379 499 c 0
 383 495 384 495 396 496 c 0
 405 496 410 496 413 494 c 0
 415 493 419 489 420 486 c 2
 423 481 423 477 423 469 c 1
 422 463 420 455 419 452 c 0
 417 448 416 444 417 438 c 1
 417 430 417 429 411 423 c 0
 407 419 402 416 398 415 c 0
 395 414 391 412 389 410 c 0
 386 408 384 401 382 395 c 0
 381 390 379 384 379 382 c 0
 379 381 376 378 373 375 c 0
 369 372 365 368 364 365 c 1
 362 363 358 356 354 351 c 0
 349 346 346 341 346 339 c 0
 346 338 344 334 341 331 c 0
 338 327 337 325 338 319 c 0
 339 313 339 312 336 310 c 0
 334 309 331 309 331 309 c 1
 326 309 l 2
 325 309 320 304 317 299 c 0
 314 293 310 289 309 289 c 0
 308 289 305 284 302 278 c 0
 299 273 296 266 294 264 c 1
 292 263 290 261 288 261 c 0
 286 261 284 259 283 257 c 0
 282 255 282 251 282 249 c 1
 283 246 282 245 278 243 c 0
 275 242 269 237 264 233 c 0
 260 229 255 222 253 218 c 0
 251 214 249 210 248 210 c 0
 247 210 244 208 242 205 c 2
 239 203 237 198 236 195 c 0
 235 193 230 185 224 179 c 0
 218 172 213 166 213 164 c 0
 213 163 209 158 204 153 c 0
 200 148 194 141 192 138 c 0
 189 135 186 132 184 132 c 1
 182 131 176 126 172 119 c 0
 167 112 163 105 163 103 c 0
 163 100 161 96 159 92 c 1
 155 87 154 84 155 78 c 0
 156 74 158 70 161 69 c 2
 163 67 170 64 176 62 c 0
 183 60 192 59 200 59 c 0
 212 59 214 59 218 64 c 0
 222 68 223 68 236 67 c 0
 245 66 251 65 253 63 c 0
 256 60 265 60 315 60 c 0
 372 60 373 60 378 63 c 0
 383 67 386 67 401 67 c 0
 417 66 418 66 424 61 c 0
 430 56 430 56 431 42 c 0
 431.274 38.1602 431.474 35.373 431.474 33.2266 c 0
 431.474 27.5479 430.08 26.3535 425 21.999 c 0
 419 16.999 418 16.999 407 16.999 c 0
 396 17.999 394 17.999 389 13.999 c 0
 383 9.99902 380 8.99902 364 8.99902 c 0
 352 8.99902 345 7.99902 340 4.99902 c 1
 335 2.99902 333 2.99902 329 3.99902 c 1
 327 4.99902 323 5.99902 321 5.99902 c 0
 319 5.99902 315 4.99902 312 3.99902 c 0
 307 2.99902 305 2.99902 297 5.99902 c 0
 290.25 8.24902 286.312 9.37402 266.203 9.37402 c 0
 259.5 9.37402 251 9.24902 240 8.99902 c 0
 193 8.99902 193 8.99902 190 4.99902 c 0
 189 2.99902 187 0.999023 186 0.999023 c 0
 185 0.999023 180 2.99902 175 4.99902 c 0
 166 8.99902 164 9.99902 136 9.99902 c 0
 130.667 9.66602 125.444 9.55469 120.814 9.55469 c 0
 111.556 9.55469 104.667 9.99902 104 9.99902 c 2
 94 9.99902 l 2
 87 9.99902 83 8.99902 79 4.99902 c 0
 74 0.999023 74 0.999023 66 3.99902 c 0
 60 5.99902 56 8.99902 52 13.999 c 0
 47 20.999 47 21.999 48 33.999 c 0
 48.917 45.0059 49 46.999 46 50.999 c 0
 43.75 53.249 42.625 55.499 42.625 58.5928 c 0
 42.625 63.5557 44.9443 68.2959 49 71 c 0
 52 73 54 76 54 77 c 0
 54 79 57 83 60 87 c 0
 63 91 67 95 69 96 c 0
 72 97 74 99 74 100 c 0
 74 101 75 105 76 109 c 0
 77 112 80 118 82 121 c 0
 85 124 88 129 89 132 c 0
 90 134 93 137 96 138 c 1
 99 140 104 143 107 146 c 0
 111 149 115 152 116 153 c 2
 118 154 120 157 122 159 c 1
 123 162 125 168 126 172 c 0
 127 177 129 181 134 186 c 0
 138 190 140 194 140 197 c 0
 140 200 142 204 144 207 c 0
 147 210 152 216 156 220 c 0
 160 225 164 230 164 232 c 1
 165 235 170 241 175 246 c 2
 188 263 l 2
 190 267 197 276 204 283 c 0
 211 290 216 297 217 301 c 1
 219 305 222 310 226 313 c 1
 232 319 232 320 232 331 c 0
 232 340 233 344 234 345 c 0
 236 347 242 348 249 348 c 1
 255 349 262 350 263 351 c 0
 264 352 266 356 267 359 c 0
 268 364 270 367 274 368 c 0
 277 369 281 372 283 375 c 0
 285 377 287 382 287 385 c 1
 288 389 290 395 293 399 c 0
 296 403 300 408 303 410 c 1
 306 414 308 416 308 423 c 0
 308 427 307 432 306 434 c 1
 305 435 301 437 298 438 c 1
 295 438 289 440 286 442 c 0
 282 444 276 445 272 445 c 0
 269 445 263 445 261 443 c 1
 258 442 255 442 252 443 c 1
 249 445 246 445 242 443 c 0
 237 441 234 441 232 442 c 0
 230 443 225 444 220 444 c 2
 182 444 l 2
 165 444 147 444 141 443 c 0
 136 442 124 442 116 442 c 0
 107 441 99 440 98 439 c 0
 97 438 92 437 84 438 c 0
 76 439 69 440 64 443 c 0
 57 447 57 447 57 459 c 0
 56 470 57 473 60 477 c 0
 62 480 63 484 63 486 c 0
 63 488 64 491 65 493 c 0
 66 496 70 500 75 503 c 0
 80 506 85 508 87 509 c 0
EndSplineSet
Validated: 33
EndChar
StartChar: uni00A3
Encoding: 163 163 99
Width: 545
GlyphClass: 2
Flags: W
LayerCount: 2
Fore
SplineSet
336 705 m 1
 344.998 705.001 l 2
 349.998 705.001 356.998 704.001 359.998 703.001 c 2
 363.998 703.001 370.998 701.001 374.998 699.001 c 0
 378.998 696.001 384.998 696.001 390.998 696.001 c 0
 399.998 696.001 401.998 695.001 409.998 690.001 c 0
 415.998 687.001 422.998 684.001 427.998 683.001 c 0
 431.998 682.001 436.998 681.001 438.998 680.001 c 2
 439.998 680.001 444.998 675.001 449.998 670.001 c 1
 455.998 662.001 458.998 660.001 462.998 660.001 c 0
 465.998 660.001 469.998 659.001 471.998 659.001 c 1
 473.998 658.001 475.998 655.001 476.998 652.001 c 0
 477.998 649.001 482.998 644.001 486.998 641.001 c 0
 491.998 637.001 494.998 634.001 494.998 630.001 c 1
 495.998 627.001 497.998 621.001 499.998 617.001 c 0
 501.998 613.001 503.998 609.001 503.998 608.001 c 0
 503.998 607.001 505.998 603.001 509.998 598.001 c 0
 513.677 591.869 517.346 584.85 517.346 581.562 c 0
 517.346 579.001 515.874 577.102 511.998 574.001 c 0
 508.998 571.001 502.998 567.001 499.998 565.001 c 0
 492.998 562.001 492.998 562.001 487.998 565.001 c 0
 482.998 569.001 482.998 569.001 460.998 567.001 c 0
 441.998 565.001 437.998 565.001 435.998 567.001 c 1
 434.998 569.001 432.998 574.001 431.998 579.001 c 2
 429.998 583.001 428.998 590.001 428.998 594.001 c 2
 427.998 598.001 428.998 602.001 429.998 603.001 c 0
 430.998 604.001 431.998 606.001 431.998 607.001 c 0
 431.998 609.001 428.998 613.001 424.998 617.001 c 1
 420.998 620.001 416.998 626.001 414.998 629.001 c 0
 412.998 633.001 409.998 636.001 407.998 637.001 c 0
 405.998 638.001 401.998 638.001 397.998 638.001 c 0
 392.998 637.001 390.998 638.001 388.998 641.001 c 0
 386.998 643.001 383.998 644.001 382.998 644.001 c 0
 381.998 644.001 376.998 648.001 371.998 653.001 c 0
 361.998 661.001 361.998 661.001 347.998 660.001 c 0
 336.998 659.001 332.998 659.001 325.998 661.001 c 0
 317.998 664.001 316.998 664.001 307.998 661.001 c 1
 301.998 660.001 295.998 659.001 292.998 659.001 c 1
 289.998 660.001 286.998 660.001 286.998 659.001 c 1
 285.998 658.001 281.998 655.001 276.998 652.001 c 1
 270.998 650.001 262.998 645.001 256.998 642.001 c 0
 250.998 639.001 243.998 636.001 241.998 636.001 c 0
 239.998 636.001 233.998 632.001 228.998 626.001 c 0
 221.998 619.001 218.998 614.001 216.998 609.001 c 0
 215.998 605.001 213.998 599.001 212.998 597.001 c 0
 211.998 594.001 209.998 591.001 207.998 590.001 c 1
 206.998 589.001 204.998 585.001 203.998 581.001 c 1
 203.998 577.001 201.998 572.001 199.998 570.001 c 0
 197.998 567.001 196.998 563.001 196.998 546.001 c 0
 195.998 535.001 195.998 519.001 195.998 511.001 c 0
 195.998 502.001 195.998 489.001 194.998 480.001 c 0
 192.998 471.001 190.998 461.001 189.998 458.001 c 0
 186.998 452.001 186.998 449.001 188.998 436.001 c 0
 189.998 425.001 190.998 420.001 194.998 416.001 c 0
 198.998 411.001 201.998 409.001 206.998 408.001 c 1
 247.998 408.001 l 2
 265.998 409.001 284.998 409.001 288.998 409.001 c 0
 293.998 409.001 302.998 409.001 308.998 408.001 c 0
 318.998 407.001 321.998 405.001 324.998 402.001 c 1
 325.998 400.001 327.998 396.001 327.998 393.001 c 2
 327.998 377.001 l 2
 327.998 372.001 326.998 366.001 325.998 364.001 c 0
 324.998 362.001 321.998 360.001 319.998 359.001 c 1
 317.998 359.001 312.998 360.001 308.998 362.001 c 0
 302.998 365.001 298.998 365.001 291.998 364.001 c 1
 284.998 364.001 281.998 362.001 278.998 359.001 c 0
 275.998 356.001 272.998 355.001 268.998 355.001 c 0
 265.998 355.001 259.998 357.001 255.998 360.001 c 0
 248.998 364.001 247.998 364.001 230.998 364.001 c 0
 216.998 364.001 212.998 363.001 208.998 360.001 c 0
 205.998 358.001 201.998 356.001 200.998 356.001 c 0
 199.998 356.001 196.998 355.001 194.998 353.001 c 1
 193.998 351.001 190.998 345.001 189.998 340.001 c 0
 187.998 334.001 187.998 327.001 187.998 316.001 c 0
 188.998 303.001 189.998 300.001 193.998 297.001 c 0
 195.998 295.001 197.998 292.001 197.998 291.001 c 0
 197.998 290.001 196.998 284.001 194.998 277.001 c 0
 193.998 270.001 192.998 262.001 192.998 259.001 c 1
 193.998 256.001 194.998 232.001 195.998 206.001 c 0
 196.307 191.168 196.521 180.919 196.521 173.719 c 0
 196.521 157.619 195.453 156.765 191.998 154.001 c 0
 187.998 150.001 186.998 148.001 186.998 135.001 c 0
 186.998 123.001 187.998 118.001 190.998 113.001 c 1
 192.998 108.001 193.998 103.001 193.998 94.001 c 0
 193.998 86.001 194.998 80.001 196.998 79.001 c 1
 197.998 78.001 200.998 77.001 204.998 77.001 c 0
 207.998 77.001 214.998 76.001 219.998 74.001 c 0
 223.998 73.001 232.998 72.001 237.998 72.001 c 0
 243.998 72.001 251.998 74.001 256.998 76.001 c 0
 263.998 78.001 267.998 79.001 275.998 78.001 c 0
 281.998 77.001 288.998 76.001 292.998 74.001 c 0
 296.998 72.001 304.998 72.001 325.998 72.001 c 0
 348.998 72.001 354.998 73.001 359.998 76.001 c 1
 363.998 77.001 368.998 79.001 371.998 79.001 c 0
 375.998 79.001 379.998 77.001 381.998 75.001 c 0
 384.998 72.001 390.998 70.001 394.998 68.001 c 1
 399.998 67.001 404.998 67.001 407.998 67.001 c 1
 409.998 68.001 413.998 70.001 417.998 73.001 c 0
 423.998 78.001 423.998 78.001 455.998 78.001 c 0
 473.998 78.001 489.998 77.001 490.998 76.001 c 2
 491.998 76.001 493.998 73.001 495.998 70.001 c 0
 497.998 66.001 497.998 61.001 496.998 45.001 c 0
 496.998 34.001 495.998 24.001 494.998 23.001 c 0
 493.998 22.001 485.998 21.001 477.998 20.001 c 0
 472.998 19.668 469.554 19.4453 467.072 19.4453 c 0
 462.109 19.4453 460.998 20.334 458.998 23.001 c 0
 455.998 27.001 454.998 27.001 427.998 27.001 c 0
 419.346 27.3096 413.271 27.5234 408.713 27.5234 c 0
 398.521 27.5234 395.908 26.4561 388.998 23.001 c 0
 384.312 20.6582 381.341 19.6875 379.081 19.6875 c 0
 377.483 19.6875 376.241 20.1729 374.999 21.001 c 0
 372.999 22.001 368.999 24.001 365.999 26.001 c 0
 361.999 29.001 360.999 28.001 349.999 25.001 c 0
 337.999 21.001 337.999 21.001 333.999 24.001 c 0
 330.999 27.001 327.999 28.001 318.999 28.001 c 0
 312.999 28.001 305.999 27.001 302.999 25.001 c 0
 298.999 23.001 295.999 23.001 290.999 24.001 c 0
 286.999 25.001 282.999 26.001 280.999 26.001 c 0
 278.999 26.001 274.999 25.001 272.999 22.001 c 1
 270.816 20.6914 269.587 19.9531 267.896 19.9531 c 0
 265.713 19.9531 262.762 21.1826 256 24 c 0
 246 28 242 28 233 28 c 1
 226 27 219 25 217 24 c 1
 214 21 208 21 191 21 c 0
 178 21 166 22 162 24 c 1
 158 25 149 26 141 26 c 0
 133 26 124 25 121 24 c 0
 116 23 114 23 109 25 c 1
 104 26 96 27 84 26 c 0
 70 26 65 27 59 29 c 0
 55 31 50 34 49 35 c 0
 48 36 47 45 46 53 c 0
 46 62 46 70 47 72 c 0
 48 74 53 76 58 78 c 0
 66 80 69 80 74 79 c 0
 78 78 87 77 93 77 c 0
 106 78 106 78 111 87 c 0
 117 96 117 96 117 210 c 0
 117 324 117 324 112 330 c 0
 110 333 108 338 108 343 c 0
 108 347 107 351 105 353 c 0
 102 356 100 356 93 356 c 1
 86 355 83 355 77 358 c 0
 74 360 66 362 61 363 c 1
 56 363 50 365 48 366 c 1
 46 369 45 372 45 381 c 0
 45 389 46 394 50 402 c 0
 52 407 56 412 59 413 c 0
 61 414 64 414 67 413 c 0
 70 412 77 410 83 409 c 0
 89 408 97 407 102 407 c 0
 107 407 112 408 114 409 c 0
 116 410 117 413 117 416 c 2
 117 425 l 2
 117 427 117 441 116 456 c 0
 116 470 115 486 115 492 c 2
 115 513 l 2
 115 523 116 526 120 531 c 0
 124 537 124 539 123 547 c 0
 122 555 123 558 127 566 c 0
 130 572 131 578 131 584 c 0
 131 589 132 594 133 594 c 1
 134 595 137 600 140 605 c 0
 143 611 148 617 151 618 c 1
 155 621 158 624 160 631 c 0
 162 637 165 643 168 645 c 0
 170 646 173 648 174 648 c 0
 175 648 178 650 181 653 c 0
 183 655 186 659 186 660 c 0
 186 662 187 664 188 666 c 0
 189 668 192 669 194 670 c 1
 197 670 201 674 204 677 c 0
 209 682 211 683 215 682 c 0
 219 681 223 683 234 688 c 0
 244 694 250 695 256 695 c 0
 261 695 266 697 269 699 c 0
 272 702 277 702 304 703 c 0
 322 704 336 705 336 705 c 1
EndSplineSet
Validated: 33
EndChar
StartChar: uni00B3
Encoding: 179 179 114
Width: 298
GlyphClass: 2
Flags: W
LayerCount: 2
Fore
SplineSet
158 911 m 0
 159.657 911.414 161.313 911.658 162.828 911.658 c 0
 164.971 911.658 166.828 911.173 168 910.001 c 1
 170 909.001 173 908.001 176 908.001 c 0
 178 908.001 183 906.001 187 904.001 c 0
 192 902.001 197 901.001 202 901.001 c 0
 208 901.001 212 900.001 217 897.001 c 1
 221 893.001 226 892.001 231 892.001 c 0
 238 892.001 240 891.001 249 883.001 c 1
 254 877.001 262 869.001 266 864.001 c 0
 271 857.001 274 852.001 275 847.001 c 0
 275 843.001 277 838.001 278 836.001 c 1
 280 834.001 281 830.001 281 826.001 c 0
 281 820.001 282 818.001 286 816.001 c 1
 289 813.001 290 812.001 290 805.001 c 0
 290 800.001 289 793.001 288 790.001 c 0
 287 787.001 283 781.001 280 776.001 c 0
 277 772.001 274 766.001 273 763.001 c 1
 273 760.001 270 757.001 265 754.001 c 0
 260 751.001 255 746.001 252 743.001 c 0
 250 740.001 246 738.001 244 738.001 c 0
 242 738.001 239 736.001 236 735.001 c 0
 233 734.001 229 730.001 225 727.001 c 1
 221 722.001 220 719.001 219 711.001 c 0
 219 705.001 220 700.001 221 699.001 c 0
 222 698.001 226 696.001 230 696.001 c 0
 234 696.001 237 695.001 240 691.001 c 0
 242 689.001 245 687.001 246 687.001 c 0
 247 687.001 250 685.001 254 683.001 c 0
 257 681.001 261 680.001 262 680.001 c 0
 265 680.001 267 676.001 271 668.001 c 0
 274 662.001 277 656.001 278 656.001 c 1
 279 655.001 280 652.001 281 647.001 c 0
 282 643.001 285 637.001 287 633.001 c 0
 289 627.001 290 623.001 289 618.001 c 0
 289 614.001 288 608.001 288 605.001 c 0
 288 602.001 287 598.001 284 596.001 c 1
 281 592.001 281 591.001 282 583.001 c 0
 283 576.001 282 573.001 280 568.001 c 0
 279 565.001 275 560.001 271 556.001 c 2
 268 552.001 261 546.001 255 542.001 c 1
 248 539.001 243 534.001 240 529.001 c 0
 236 523.001 234 521.001 228 520.001 c 0
 224 520.001 220 518.001 218 515.001 c 0
 216 511.001 215 511.001 208 511.001 c 1
 205 512.001 198 511.001 193 510.001 c 1
 189 508.001 180 506.001 174 505.001 c 0
 169.313 503.829 165.313 503.344 161.799 503.344 c 0
 159.313 503.344 157.071 503.586 155 504 c 0
 150 505 144 506 141 506 c 0
 137 506 131 507 128 508 c 0
 124 510 113 511 103 512 c 0
 88 513 83 514 79 516 c 1
 77 518 73 520 70 520 c 0
 68 520 63 521 59 522 c 0
 54 524 52 527 50 532 c 1
 48 535 43 543 37 549 c 0
 31 554 27 561 27 563 c 0
 27 564 25 568 23 570 c 0
 19 574 19 576 19 583 c 0
 19 590 20 593 23 596 c 0
 25 599 28 601 30 601 c 0
 32 601 34 602 35 603 c 0
 37 605 40 606 44 606 c 0
 47 606 53 605 57 604 c 0
 61 603 66 601 68 599 c 0
 71 596 72 593 72 588 c 0
 72 585 74 579 76 575 c 0
 77 572 82 564 86 559 c 0
 90 554 97 548 100 546 c 0
 105 543 109 542 122 542 c 0
 134 541 138 541 141 538 c 0
 143 536 147 535 158 535 c 0
 169 534 173 535 182 538 c 1
 188 541 194 545 197 547 c 0
 199 549 205 552 210 554 c 0
 214 555 219 557 220 557 c 0
 221 557 225 560 229 564 c 0
 233 568 238 575 240 579 c 0
 242 583 244 589 244 590 c 0
 244 592 246 599 247 605 c 0
 250 616 250 617 247 625 c 1
 246 630 244 635 244 637 c 0
 244 639 241 644 237 648 c 0
 232 653 230 656 230 660 c 0
 230 663 229 668 228 671 c 1
 226 674 224 678 223 679 c 0
 221 681 215 684 208 686 c 0
 201 688 190 691 183 692 c 0
 176 693 163 694 154 695 c 0
 145 695 135 696 130 697 c 0
 125 698 122 699 120 702 c 0
 119 704 119 709 119 714 c 1
 120 721 121 722 127 726 c 0
 133 731 135 731 153 731 c 0
 167 731 174 732 182 735 c 0
 188 738 194 739 197 739 c 0
 199 739 203 742 207 746 c 0
 211 750 219 758 225 765 c 0
 236 778 236 778 237 790 c 0
 237 796 237 809 238 817 c 0
 238 831 238 833 234 836 c 1
 227 846 l 2
 226 848 224 853 222 856 c 0
 220 859 218 862 216 862 c 1
 215 863 211 864 207 865 c 0
 202 866 200 867 198 871 c 0
 196 875 194 876 189 877 c 0
 185 878 180 878 178 878 c 0
 177 878 163 878 149 877 c 0
 122 876 122 876 112 869 c 0
 104.953 864.066 100 862 96 862 c 0
 91 862 88 861 84 857 c 0
 82 854 79 850 79 848 c 2
 79 841 l 2
 79 838 79 834 78 833 c 2
 78 831 73 826 68 821 c 0
 59 814 57 813 49 813 c 0
 42 813 38 814 35 817 c 0
 32 819 30 823 29 827 c 0
 28 831 29 836 31 842 c 0
 33 847 37 855 40 860 c 0
 43 865 49 871 54 874 c 0
 59 877 64 880 65 880 c 0
 66 880 70 882 74 886 c 1
 78 889 85 893 88 894 c 0
 91 895 95 897 97 899 c 0
 98 900 102 901 105 901 c 0
 107 901 119 903 131 905 c 0
 143 908 155 910 158 911 c 0
EndSplineSet
Validated: 33
EndChar
StartChar: uni00B4
Encoding: 180 180 115
Width: 232
GlyphClass: 2
Flags: W
LayerCount: 2
Fore
SplineSet
181 712 m 1
 181 712.5 181.499 712.75 182.249 712.75 c 0
 182.999 712.75 183.999 712.5 184.999 712 c 1
 186.999 712 192.999 711 198.999 711 c 0
 205.999 711 209.999 710 212.999 708 c 0
 215.143 706.393 216.138 705.646 216.138 703.761 c 0
 216.138 702.128 215.392 699.641 213.999 695 c 0
 211.999 689 207.999 683 203.999 679 c 0
 199.999 675 195.999 670 194.999 668 c 0
 193.999 666 192.999 661 192.999 658 c 0
 192.999 655 191.999 651 189.999 650 c 1
 188.999 648 185.999 641 183.999 635 c 0
 180.999 628 178.999 620 178.999 618 c 0
 178.999 615 177.999 610 176.999 607 c 0
 174.999 603 172.999 600 171.999 599 c 1
 169.999 599 167.999 596 166.999 593 c 2
 164.999 590 162.999 585 160.999 581 c 1
 157.999 578 155.999 572 154.999 568 c 1
 152.999 564 150.999 560 148.999 558 c 0
 146.999 556 145.999 554 145.999 553 c 2
 145.999 547 l 2
 145.999 545 143.999 541 141.999 539 c 0
 139.999 536 137.999 531 137.999 528 c 1
 136.999 525 135.999 520 133.999 518 c 1
 132.999 516 131.999 512 130.999 511 c 2
 129.999 509 127.999 504 124.999 500 c 0
 119.999 491 119.999 491 107.999 489 c 0
 100.999 487 90.999 486 85.999 485 c 0
 83.749 484.75 81.999 484.625 80.6084 484.625 c 0
 76.4365 484.625 75.499 485.75 73.999 488 c 0
 73.4219 489.154 72.8447 490.643 72.8447 492.079 c 0
 72.8447 493.131 73.1543 494.154 74 495 c 2
 75 497 77 499 78 500 c 0
 80 502 81 505 81 507 c 0
 81 509 82 513 84 516 c 0
 87 519 88 524 88 530 c 0
 88 534 88 541 87 545 c 0
 86 549 86 553 88 555 c 0
 90 557 91 563 92 567 c 1
 92 572 94 578 96 582 c 0
 98 586 101 593 102 598 c 0
 103 602 105 608 107 610 c 1
 108 613 109 619 109 629 c 0
 109 641 110 644 113 648 c 0
 115 650 116 655 116 660 c 0
 116 665 117 670 119 673 c 0
 121 675 123 679 123 682 c 0
 123 685 124 691 126 694 c 2
 127 697 131 702 134 705 c 0
 137 707 140 710 140 710 c 1
 160 710 l 2
 171 711 180 711 181 712 c 1
EndSplineSet
Validated: 1
EndChar
StartChar: uni00B6
Encoding: 182 182 117
Width: 1164
GlyphClass: 2
Flags: W
LayerCount: 2
Fore
SplineSet
905 21 m 0
 905 23.1621 905.52 24.8047 905.81 24.8047 c 0
 905.922 24.8047 906 24.5586 906 24 c 2
 906.5 23 906.75 22 906.75 21 c 0
 906.75 20 906.5 19 906 18 c 2
 906 17.4414 905.922 17.1953 905.81 17.1953 c 0
 905.52 17.1953 905 18.8379 905 21 c 0
455 868 m 1
 459 869 463 870 465 870 c 1
 467 869 471 868 473 866 c 1
 477 864 485 864 506 864 c 2
 539 864 l 1
 569 864 l 2
 593 865 593 865 599 861 c 0
 602 858 605 855 607 854 c 0
 610 853 611 850 611 838 c 0
 611.366 833.607 611.599 830.555 611.599 828.352 c 0
 611.599 824.535 610.902 823.268 609 822 c 0
 606 820 600 819 583 819 c 0
 560 819 560 819 557 810 c 0
 554 802 554 799 556 794 c 0
 557 790 557 783 556 773 c 0
 555 765 555 756 555 754 c 0
 555 752 555 667 556 564 c 0
 556 378 556 378 552 374 c 0
 550 371 549 368 549 362 c 0
 549 357 551 349 553 344 c 0
 555.25 337.25 556.375 333.312 556.375 320.797 c 0
 556.375 316.625 556.25 311.5 556 305 c 0
 555 289 555 274 555 271 c 0
 555 268 555 259 556 251 c 0
 557 243 557 224 557 209 c 0
 557 194 557 160 556 133 c 0
 556 107 555 83 555 80 c 2
 555 51 l 2
 556 31 555 27 553 24 c 0
 551 22 546 21 537 20 c 0
 528 19 522 18 520 15 c 1
 517 14 514 12 512 12 c 0
 509 12 505 13 503 15 c 1
 498 17 498 17 498 64 c 0
 498.366 80.8369 498.599 91.7793 498.599 99.0332 c 0
 498.599 111.598 497.902 113.098 496 115 c 0
 493 118 492 120 492 131 c 0
 492 140 493 145 495 148 c 0
 496 150 497 153 497 155 c 0
 497 156 497 161 498 166 c 1
 498 191 l 2
 497 202 497 209 498 210 c 1
 499 212 499 219 499 230 c 0
 498 239 497 249 496 252 c 0
 494 257 494 259 496 262 c 0
 498 265 498 283 498 341 c 0
 498 382 499 416 500 417 c 1
 500 419 500 423 498 428 c 0
 496 435 496 437 499 451 c 0
 501 466 501 467 499 471 c 0
 497 474 496 478 496 482 c 0
 496 485 496 492 498 498 c 1
 499 506 499 509 497 512 c 0
 495 515 495 518 497 522 c 0
 498 525 499 532 500 538 c 0
 501 544 502 551 504 553 c 1
 506 558 506 559 502 564 c 0
 497 569 497 570 498 581 c 0
 499 587 499 604 499 619 c 0
 499 637 498 649 496 658 c 0
 494 670 494 671 496 675 c 0
 499 679 499 682 498 690 c 0
 497 697 498 704 500 713 c 0
 503 723 503 727 501 735 c 0
 500 740 499 754 498 766 c 0
 498 778 497 793 497 800 c 0
 498 813 498 813 483 813 c 0
 475 814 465 814 461 813 c 1
 456 813 450 814 445 817 c 0
 441 819 435 821 432 821 c 0
 430 821 424 819 420 817 c 0
 413 814 410 813 404 814 c 0
 401 815 397 816 395 818 c 0
 394 819 390 820 386 820 c 0
 382 820 378 819 377 818 c 1
 375 817 374 810 374 801 c 0
 374 790 374 784 371 780 c 0
 369 776 367 771 367 769 c 2
 366 765 367 762 369 759 c 0
 371 756 373 751 373 748 c 0
 373 745 371 739 369 733 c 0
 366 725 366 722 367 711 c 0
 368 704 368 695 367 692 c 0
 366 687 366 683 369 679 c 1
 371 674 371 672 369 668 c 0
 367 664 366 644 366 555 c 0
 367 447 367 447 370 442 c 0
 373 438 374 436 373 431 c 0
 373 428 371 423 369 419 c 0
 366 414 366 410 367 406 c 2
 367 402 369 397 370 394 c 1
 373 390 373 389 370 382 c 0
 368 377 367 368 366 362 c 1
 366 336 l 1
 366 305 l 2
 366 296 368 282 370 273 c 0
 373 257 373 257 370 247 c 1
 366 239 366 235 366 217 c 0
 367 203 368 194 370 188 c 0
 373 179 373 179 370 175 c 1
 366 171 366 169 366 134 c 0
 367 97 367 96 371 92 c 0
 374 89 375 87 374 81 c 0
 373 78 371 72 369 69 c 0
 366 66 365 62 365 58 c 1
 366 54 366 44 366 35 c 0
 365 24 365 17 363 16 c 1
 362 15 354 14 341 13 c 0
 326 13 320 14 318 15 c 1
 316 17 314 22 312 27 c 0
 310 33 309 43 308 58 c 0
 308 76 309 81 311 86 c 1
 313 89 315 94 315 97 c 0
 315 100 314 104 312 106 c 1
 311 109 309 117 309 130 c 0
 308 147 308 151 312 160 c 0
 315 169 316 173 315 179 c 0
 314 184 312 189 310 191 c 1
 309 193 308 195 308 196 c 1
 309 197 310 210 310 224 c 0
 310 246 310 251 313 256 c 0
 316 260 316 263 315 269 c 0
 315 273 313 279 311 281 c 0
 309.098 283.536 308.401 286.072 308.401 297.271 c 0
 308.401 303.737 308.634 313.091 309 327 c 0
 309 355 309 370 307 376 c 0
 305 384 306 385 310 394 c 0
 313 401 314 406 314 414 c 0
 313 422 313 426 309 430 c 0
 307 433 303 437 299 439 c 0
 295 441 290 442 284 442 c 0
 279 442 272 443 269 445 c 1
 265 446 258 448 254 448 c 0
 248 448 243 449 240 451 c 0
 237 453 232 455 228 455 c 0
 225 455 220 456 217 458 c 0
 215 460 210 463 207 464 c 0
 202 465 199 467 197 471 c 0
 195 474 184 486 173 497 c 0
 161 508 151 518 151 519 c 0
 151 521 149 525 147 530 c 1
 144 534 142 537 141 537 c 0
 140 537 138 540 137 544 c 0
 136 548 133 553 131 556 c 0
 129 560 128 564 128 571 c 0
 127 579 127 582 123 587 c 0
 119.545 591.837 118.478 593.332 118.478 600.722 c 0
 118.478 604.026 118.691 608.511 119 615 c 0
 120 627 120 638 120 640 c 0
 120 642 119 654 119 668 c 0
 118.732 673.359 118.608 677.569 118.608 680.9 c 0
 118.608 690 119.536 692.536 121 694 c 0
 122 695 126 700 128 706 c 2
 131 711 133 719 133 724 c 0
 133 728 135 736 136 740 c 1
 138 744 140 749 142 752 c 0
 143 754 146 759 147 763 c 1
 149 767 153 771 160 776 c 0
 166 780 171 785 176 793 c 0
 181 800 185 807 186 809 c 1
 187 810 189 813 190 813 c 1
 192 814 197 817 203 819 c 0
 210 822 213 825 215 828 c 1
 215 830 218 833 219 834 c 1
 221 835 225 836 229 837 c 1
 232 837 237 840 239 843 c 0
 242 846 246 849 251 850 c 0
 254 851 261 852 266 852 c 0
 272 852 278 853 287 858 c 0
 297 863 301 864 315 865 c 0
 324 866 334 867 336 868 c 1
 340 869 342 869 346 868 c 1
 350 866 367 865 400 865 c 0
 445 865 450 865 455 868 c 1
EndSplineSet
Validated: 33
EndChar
StartChar: uni00C2
Encoding: 194 194 129
Width: 662
GlyphClass: 2
Flags: W
LayerCount: 2
Fore
SplineSet
341 606 m 0
 338 608 333 609 330 610 c 1
 321 610 l 1
 319 609 317 607 316 604 c 0
 315 601 315 598 315 596 c 1
 316 595 315 593 314 593 c 1
 313 592 308 582 303 571 c 0
 296 558 293 549 293 544 c 0
 293 541 290 532 287 524 c 0
 283 516 280 507 279 502 c 1
 279 497 277 493 275 490 c 0
 273 487 270 483 268 479 c 0
 267 476 266 472 266 470 c 1
 267 468 265 465 263 461 c 1
 260 458 257 450 255 444 c 0
 253 437 251 430 251 428 c 0
 251 426 250 422 249 420 c 0
 247 417 245 411 243 406 c 1
 242 401 240 396 240 394 c 0
 240 393 239 390 237 388 c 1
 235 387 232 382 231 377 c 0
 229 371 226 368 224 367 c 0
 222 366 219 364 218 363 c 0
 216 361 216 356 216 346 c 1
 217 339 218 331 218 330 c 1
 219 328 218 326 215 324 c 0
 213 323 209 317 206 313 c 1
 204 308 202 301 202 298 c 0
 202 295 200 291 198 288 c 0
 196 285 195 281 195 275 c 0
 195 269 196 263 197 261 c 0
 198 258 201 256 205 254 c 0
 208 253 214 253 218 254 c 2
 224 254 227 256 230 259 c 0
 233 263 234 264 239 263 c 0
 242 262 251 261 259 260 c 0
 267 260 274 259 276 259 c 0
 278 259 284 260 290 261 c 0
 298 262 300 261 304 258 c 0
 309 254 312 254 323 253 c 0
 336 253 338 254 341 257 c 0
 344 260 347 261 357 261 c 0
 364 261 380 261 393 262 c 0
 415 262 418 262 424 258 c 0
 428 255 431 255 433 256 c 0
 435 257 441 258 447 259 c 0
 453 260 458 261 459 262 c 1
 461 263 462 266 462 270 c 0
 462 273 460 280 458 286 c 0
 456 291 455 298 455 301 c 0
 455 305 453 307 450 309 c 0
 447 311 446 313 446 318 c 2
 446 335 l 2
 446 340 445 347 444 350 c 0
 443 352 441 355 440 355 c 0
 439 355 436 356 435 358 c 1
 433 360 432 364 432 369 c 0
 432 373 430 381 427 388 c 0
 425 394 422 400 421 401 c 0
 420 402 420 405 420 407 c 0
 420 410 417 415 412 420 c 1
 406 428 405 430 405 437 c 0
 405 443 403 451 400 459 c 0
 397 467 393 475 390 478 c 0
 388 481 386 485 385 488 c 1
 385 490 383 496 382 500 c 0
 381 503 380 513 379 521 c 0
 378 532 377 537 374 541 c 0
 372 544 370 547 370 549 c 0
 370 550 368 554 365 556 c 0
 362 559 359 564 357 567 c 1
 356 571 353 575 351 577 c 0
 348 580 347 581 348 588 c 0
 349 593 349 598 348 600 c 0
 347 602 343 605 341 606 c 0
292 699 m 0
 295 702 299.001 704.002 302.001 704.002 c 0
 304.001 704.002 315.001 702.002 326.001 701.002 c 0
 338.001 699.002 349.001 697.002 352.001 696.002 c 1
 355.001 696.002 361.001 697.002 365.001 698.002 c 0
 373.001 699.002 373.001 699.002 380.001 691.002 c 0
 384.001 686.002 388.001 681.002 388.001 680.002 c 0
 388.001 679.002 390.001 675.002 393.001 672.002 c 0
 398.001 666.002 398.001 664.002 398.001 651.002 c 0
 398.001 638.002 399.001 637.002 403.001 632.002 c 1
 406.001 630.002 411.001 623.002 414.001 617.002 c 0
 417.001 612.002 420.001 606.002 420.001 604.002 c 0
 420.001 603.002 421.001 598.002 423.001 594.002 c 0
 425.001 591.002 427.001 584.002 427.001 580.002 c 0
 428.001 575.002 430.001 569.002 434.001 564.002 c 0
 437.001 559.002 441.001 554.002 444.001 551.002 c 0
 447.001 547.002 449.001 544.002 449.001 538.002 c 0
 449.001 532.002 451.001 525.002 455.001 514.002 c 0
 459.001 506.002 463.001 496.002 464.001 491.002 c 0
 465.001 486.002 467.001 480.002 469.001 478.002 c 1
 470.001 476.002 471.001 472.002 471.001 470.002 c 1
 470.001 468.002 471.001 465.002 474.001 463.002 c 1
 476.001 460.002 478.001 456.002 478.001 453.002 c 0
 478.001 449.002 479.001 445.002 483.001 442.002 c 0
 486.001 440.002 489.001 435.002 490.001 431.002 c 0
 491.001 427.002 493.001 422.002 494.001 420.002 c 1
 496.001 419.002 497.001 415.002 497.001 413.002 c 0
 497.001 411.002 498.001 407.002 500.001 403.002 c 0
 502.001 399.002 504.001 394.002 505.001 392.002 c 1
 505.001 386.002 l 2
 505.001 385.002 508.001 380.002 511.001 376.002 c 1
 516.001 371.002 518.001 368.002 518.001 358.002 c 1
 519.001 352.002 520.001 343.002 521.001 338.002 c 0
 522.001 333.002 524.001 328.002 527.001 325.002 c 0
 530.001 322.002 532.001 318.002 533.001 313.002 c 1
 533.001 308.002 535.001 304.002 536.001 303.002 c 1
 538.001 302.002 539.001 298.002 539.001 296.002 c 0
 539.001 293.002 541.001 288.002 544.001 284.002 c 0
 547.001 281.002 550.001 276.002 551.001 274.002 c 0
 552.001 272.002 553.001 269.002 553.001 267.002 c 0
 553.001 265.002 555.001 261.002 557.001 257.002 c 0
 559.001 253.002 561.001 247.002 561.001 243.002 c 0
 562.001 238.002 564.001 234.002 567.001 231.002 c 0
 572.001 226.002 573.001 223.002 574.001 215.002 c 0
 575.001 207.002 577.001 201.002 583.001 192.002 c 0
 588.001 183.002 590.001 178.002 589.001 175.002 c 0
 588.001 173.002 590.001 168.002 593.001 163.002 c 2
 595.001 158.002 599.001 152.002 601.001 150.002 c 0
 604.001 147.002 604.001 144.002 603.001 140.002 c 1
 603.001 137.002 603.001 133.002 604.001 131.002 c 0
 605.001 129.002 609.001 125.002 611.001 122.002 c 1
 615.001 119.002 616.001 116.002 616.001 112.002 c 0
 616.001 109.002 618.001 105.002 622.001 100.002 c 0
 625.001 97.002 629.001 92.002 630.001 90.002 c 0
 632.001 87.002 632.001 82.002 631.001 77.002 c 0
 630.001 69.002 631.001 68.002 636.001 60.002 c 1
 640.001 56.002 644.001 50.002 645.001 47.002 c 1
 647.001 44.002 649.001 42.002 651.001 41.002 c 1
 653.668 40.335 654.557 39.668 654.557 36.0381 c 0
 654.557 34.2236 654.334 31.668 654.001 28.001 c 0
 653.001 22.001 652.001 16.001 651.001 15.001 c 0
 650.001 14.001 643.001 14.001 636.001 14.001 c 2
 630.001 13.001 612.001 13.001 596.001 13.001 c 0
 575.001 14.001 568.001 14.001 567.001 16.001 c 1
 566.001 17.001 566.001 21.001 566.001 24.001 c 1
 567.001 27.001 566.001 30.001 564.001 33.001 c 0
 562.001 36.001 558.001 43.001 556.001 49.001 c 2
 553.001 55.001 551.001 61.001 551.001 62.001 c 0
 551.001 63.001 547.001 72.001 542.001 83.001 c 0
 534.001 97.001 532.001 104.001 532.001 110.001 c 0
 532.001 116.001 531.001 119.001 526.001 124.001 c 0
 522.001 128.001 518.001 134.001 517.001 139.001 c 0
 516.001 143.001 513.001 152.001 510.001 158.001 c 2
 508.001 164.001 503.001 174.001 500.001 179.001 c 1
 495.001 185.001 492.001 188.001 490.001 187.001 c 1
 489.001 186.001 486.001 188.001 483.001 191.001 c 0
 478.001 196.001 478.001 196.001 380.001 196.001 c 2
 263.001 196.001 l 1
 226.001 196.001 l 1
 188.001 196.001 l 2
 171.001 197.001 168.001 196.001 162.001 193.001 c 0
 159.001 191.001 156.001 188.001 155.001 187.001 c 1
 155.001 185.001 154.001 183.001 154.001 181.001 c 0
 154.001 179.001 153.001 176.001 151.001 173.001 c 0
 149.001 171.001 147.001 165.001 146.001 161.001 c 1
 146.001 157.001 144.001 151.001 142.001 147.001 c 0
 140.001 143.001 137.001 135.001 134.001 129.001 c 0
 131.001 123.001 127.001 116.001 125.001 114.001 c 0
 123.001 112.001 120.001 107.001 119.001 105.001 c 0
 118.001 102.001 118.001 99.001 118.001 97.001 c 1
 119.001 96.001 116.001 88.001 112.001 80.001 c 0
 108.001 71.001 105.001 62.001 104.001 56.001 c 0
 103.001 49.001 101.001 44.001 97.001 38.001 c 0
 94.001 33.001 88.001 26.001 84.001 22.001 c 0
 77.001 15.001 77.001 15.001 56.001 14.001 c 0
 45.001 13.001 31.001 13.001 25.001 13.001 c 0
 16.001 13.001 15.001 14.001 11.001 18.001 c 0
 9.69141 19.7471 8.95312 20.7305 8.95312 21.8672 c 0
 8.95312 23.334 10.1826 25.0557 13 29 c 0
 15 33 18 40 19 44 c 1
 19 49 21 54 25 58 c 0
 30 63 31 66 31 72 c 0
 31 76 33 81 35 84 c 0
 38 88 39 92 39 95 c 1
 38 99 40 102 45 107 c 0
 49 112 53 118 54 122 c 0
 55 126 57 130 58 131 c 1
 59 131 59 134 59 138 c 0
 59 142 62 146 67 154 c 1
 73 161 75 165 75 170 c 0
 75 174 76 180 78 185 c 2
 79 190 82 197 84 201 c 0
 86 205 89 209 90 210 c 0
 91 211 93 213 94 215 c 0
 95 217 96 221 96 224 c 0
 96 227 98 231 99 233 c 0
 100 236 101 240 102 244 c 1
 102 247 103 252 105 254 c 0
 107 257 109 262 111 267 c 0
 112 271 117 280 121 286 c 0
 126 292 130 298 130 300 c 0
 130 301 131 305 133 309 c 0
 136 314 137 319 137 322 c 0
 137 325 138 329 140 331 c 0
 142 334 144 338 144 341 c 0
 144 343 146 348 149 351 c 0
 152 354 155 360 156 364 c 0
 157 368 159 376 161 381 c 2
 162 386 165 392 167 394 c 0
 169 397 172 403 174 408 c 0
 176 413 179 421 181 427 c 0
 183 432 187 440 190 444 c 1
 193 450 195 455 195 461 c 0
 195 467 196 472 198 476 c 0
 200 479 202 483 201 485 c 0
 200 488 201 490 204 493 c 1
 205 495 208 500 208 504 c 1
 209 508 213 516 216 521 c 0
 220 526 223 532 223 534 c 0
 223 536 224 540 225 542 c 1
 227 543 228 546 228 548 c 0
 228 550 230 554 232 556 c 0
 234 559 235 563 235 567 c 0
 235 570 237 575 239 577 c 1
 240 580 244 588 247 596 c 0
 250 607 253 612 258 617 c 0
 264 623 265 624 265 632 c 0
 265 639 266 643 268 646 c 0
 270 648 272 652 272 654 c 0
 272 657 274 661 275 665 c 2
 277 669 279 673 279 674 c 0
 279 676 281 681 283 686 c 0
 285 691 289 697 292 699 c 0
333.001 904.002 m 0
 338.001 906.002 342.001 908.001 343.001 908.001 c 0
 345.001 908.001 347.001 905.001 349.001 903.001 c 0
 352.001 899.001 354.001 898.001 356.001 898.001 c 1
 357.001 899.001 365.001 895.001 373.001 890.001 c 0
 381.001 884.001 390.001 878.001 393.001 874.001 c 0
 396.001 871.001 399.001 867.001 399.001 864.001 c 1
 400.001 862.001 402.001 856.001 403.001 852.001 c 1
 405.001 848.001 408.001 843.001 410.001 841.001 c 0
 412.001 839.001 414.001 836.001 414.001 835.001 c 0
 414.001 834.001 418.001 830.001 422.001 825.001 c 1
 427.001 821.001 433.001 814.001 435.001 810.001 c 0
 438.001 806.001 441.001 802.001 441.001 801.001 c 0
 441.001 800.001 444.001 796.001 448.001 793.001 c 0
 453.001 789.001 456.001 785.001 456.001 784.001 c 0
 456.001 783.001 454.001 780.001 451.001 777.001 c 0
 445.001 772.001 444.001 772.001 427.001 772.001 c 0
 409.001 772.001 408.001 772.001 405.001 777.001 c 1
 403.001 779.001 400.001 781.001 398.001 781.001 c 0
 396.001 781.001 391.001 785.001 387.001 790.001 c 0
 382.001 795.001 377.001 801.001 376.001 803.001 c 0
 375.001 805.001 374.001 811.001 373.001 816.001 c 0
 372.001 820.001 371.001 826.001 369.001 828.001 c 2
 368.001 831.001 365.001 832.001 364.001 832.001 c 0
 362.001 832.001 356.001 838.001 350.001 845.001 c 0
 344.001 853.001 338.001 859.001 337.001 859.001 c 0
 335.001 859.001 330.001 860.001 326.001 862.001 c 1
 318.001 864.001 317.001 864.001 310.001 860.001 c 1
 307.001 857.001 303.001 854.001 303.001 852.001 c 1
 302.001 850.001 300.001 847.001 299.001 844.001 c 0
 298.001 841.001 297.001 838.001 297.001 837.001 c 0
 297.001 835.001 294.001 832.001 291.001 828.001 c 0
 288.001 825.001 286.001 822.001 286.001 821.001 c 0
 286.001 820.001 284.001 817.001 282.001 816.001 c 1
 281.001 814.001 279.001 811.001 279.001 809.001 c 0
 279.001 807.001 277.001 802.001 274.001 798.001 c 0
 271.001 793.001 265.001 787.001 260.001 784.001 c 0
 253.001 779.001 249.001 778.001 242.001 777.001 c 1
 237.001 777.001 229.001 775.001 224.001 774.001 c 0
 219.597 772.35 217.314 771.607 215.484 771.607 c 0
 213.99 771.607 212.799 772.103 211.001 773.002 c 1
 209.001 775.002 207.001 778.002 207.001 779.002 c 0
 207.001 781.002 209.001 785.002 212.001 788.002 c 0
 214.001 791.002 219.001 797.002 222.001 800.002 c 0
 225.001 804.002 228.001 810.002 229.001 814.002 c 1
 229.001 818.002 231.001 823.002 232.001 825.002 c 1
 234.001 827.002 241.001 835.002 249.001 843.002 c 0
 256.001 851.002 265.001 862.002 267.001 867.002 c 1
 270.001 871.002 275.001 880.002 280.001 885.002 c 0
 284.001 890.002 288.001 895.002 289.001 896.002 c 1
 290.001 898.002 296.001 899.002 308.001 900.002 c 0
 320.001 900.002 328.001 902.002 333.001 904.002 c 0
EndSplineSet
Validated: 33
EndChar
StartChar: uni00CC
Encoding: 204 204 139
Width: 227
GlyphClass: 2
Flags: W
LayerCount: 2
Fore
SplineSet
116 696 m 0
 118 697 119.75 697.5 121.75 697.5 c 0
 123.75 697.5 126 697 129 696 c 0
 134 695 141 692 145 688 c 1
 150 685 153 680 154 676 c 0
 155 673 155 651 155 628 c 0
 154 586 154 586 150 581 c 1
 147 579 145 575 145 572 c 0
 145 569 147 563 150 559 c 1
 153 552 154 547 155 529 c 0
 156 518 156 502 156 494 c 0
 156 487 155 464 155 443 c 0
 155 412 154 406 152 401 c 1
 149 397 149 393 149 387 c 1
 150 383 151 375 152 368 c 0
 154 358 154 356 152 351 c 1
 150 348 148 343 148 340 c 2
 147 336 148 330 150 325 c 1
 151 319 153 311 153 307 c 0
 154 302 153 295 151 291 c 1
 150 287 149 280 149 274 c 0
 149 269 150 262 152 258 c 1
 153 254 155 245 155 232 c 0
 156 221 156 209 156 207 c 0
 156 205 155 160 155 107 c 0
 155 21 154 12 152 9 c 1
 149 7 145 6 129 6 c 0
 118 5 108 5 107 5 c 0
 106 5 101 6 94 6 c 1
 87 7 81 9 76 11 c 1
 73 14 69 16 69 17 c 2
 68 18 70 24 72 29 c 0
 75.4551 35.9102 76.5225 38.0449 76.5225 56.8506 c 0
 76.5225 65.2607 76.3086 77.0049 76 94.001 c 0
 75 124.001 75 149.001 75 151.001 c 2
 75 168.001 l 1
 75 189.001 l 2
 75 193.001 74 197.001 72 199.001 c 0
 70 201.001 70 204.001 70 208.001 c 1
 71 212.001 72 219.001 74 224.001 c 0
 77 231.001 77 233.001 75 238.001 c 0
 74 242.001 73 246.001 72 249.001 c 1
 72 252.001 73 256.001 74 259.001 c 0
 75 262.001 76 273.001 76 291.001 c 0
 75.5 298.501 75.25 306.251 75.25 312.751 c 0
 75.25 319.251 75.5 324.501 76 327.001 c 2
 76 352.001 l 2
 75 362.001 75 372.001 75 376.001 c 2
 75 429.001 l 2
 75 464.001 75 477.001 73 479.001 c 0
 71 481.001 71 482.001 73 486.001 c 1
 75 488.001 76 495.001 75 500.001 c 1
 75 515.001 l 2
 75 518.001 75 526.001 76 533.001 c 0
 77 542.001 76 545.001 74 550.001 c 1
 72 553.001 70 561.001 69 567.001 c 0
 68.667 570.334 68.4443 572.667 68.4443 574.481 c 0
 68.4443 578.111 69.333 579.667 72 583 c 0
 75 586 77 590 77 593 c 0
 77 596 75 604 73 613 c 0
 69 627 69 627 72 633 c 1
 75 637 76 642 76 658 c 0
 75 668 75 680 75 683 c 0
 74 688 75 689 81 691 c 0
 85 693 93 694 100 694 c 0
 106 694 113 695 116 696 c 0
56 899 m 2
 58 900 63 901 67 901 c 0
 73 901 74 900 83 890 c 0
 89 884 95 877 97 873 c 2
 100 870 103 863 105 859 c 0
 107 855 111 848 114 844 c 1
 116 839 119 833 120 830 c 1
 120 827 123 822 125 819 c 1
 128 817 131 815 133 815 c 0
 135 815 137 813 138 811 c 2
 139 810 140 806 140 804 c 0
 140 802 142 798 143 796 c 1
 145 794 147 790 147 788 c 0
 147 785 147 782 146 781 c 1
 145 779 141 776 137 774 c 0
 133 772 127 771 125 771 c 0
 123 771 115 775 107 781 c 2
 91 792 l 1
 91 793 88 797 85 802 c 0
 82 806 74 815 68 821 c 0
 62 827 57 833 57 834 c 0
 57 836 55 839 53 841 c 0
 50 844 43 849 38 853 c 0
 32 857 28 861 28 862 c 0
 28 863 25 868 22 872 c 0
 19 876 17 882 16 885 c 1
 16 891 16 891 28 891 c 0
 38 891 42 892 46 895 c 0
 49 897 53 899 56 899 c 2
EndSplineSet
Validated: 33
EndChar
StartChar: uni00CE
Encoding: 206 206 141
Width: 243
GlyphClass: 2
Flags: W
LayerCount: 2
Fore
SplineSet
106 705 m 0
 111 710 110.999 710 130.999 710 c 0
 143.999 710 153.999 709 155.999 708 c 0
 157.999 707 160.999 705 161.999 703 c 1
 163.999 701 164.999 693 164.999 667 c 2
 164.999 629 l 1
 164.999 565 l 2
 163.999 534 162.999 506 162.999 502 c 0
 162.999 499 163.999 484 163.999 470 c 0
 164.999 455 164.999 441 164.999 437 c 2
 164.999 413 l 2
 164.999 403 165.999 393 166.999 388 c 0
 168.999 382 168.999 381 166.999 378 c 0
 164.999 376 163.999 369 163.999 355 c 0
 163.999 340 164.999 332 166.999 326 c 0
 168.999 319 168.999 318 166.999 315 c 0
 163.999 312 163.999 308 164.999 291 c 0
 164.999 280 164.999 268 165.999 264 c 1
 165.999 260 164.999 247 164.999 234 c 2
 164.999 204 l 1
 164.999 171 l 1
 164.999 116 l 1
 164.999 81 l 2
 164.999 77 164.999 69 165.999 61 c 0
 165.999 54 167.999 46 168.999 43 c 0
 169.898 40.7529 170.394 39.1113 170.394 37.6221 c 0
 170.394 35.7979 169.651 34.2021 168 32 c 0
 166 30 164 28 161 28 c 0
 159 28 154 26 151 23 c 0
 146 19 145 19 132 20 c 0
 125 21 116 20 112 19 c 0
 108 18 102 17 99 15 c 1
 97 14.5 95.25 14.25 93.75 14.25 c 0
 92.25 14.25 91 14.5 90 15 c 1
 89 16 87 19 87 21 c 1
 86 24 88 29 90 33 c 0
 92 38 93 42 92 47 c 1
 92 52 90 57 89 60 c 1
 87 62 86 74 85 88 c 0
 85 101 84 113 85 115 c 1
 85 130 l 2
 85 136 86 145 87 150 c 0
 88 155 90 163 91 168 c 0
 92 175 91 179 89 182 c 0
 86 186 86 191 86 222 c 0
 86 241 87 260 87 262 c 0
 87 265 86 287 86 310 c 0
 85 344 85 354 82 360 c 0
 80.5 364.5 79.75 366.75 79.75 368.5 c 0
 79.75 370.25 80.5 371.5 82 374 c 1
 85 377 86 382 86 398 c 2
 86 424 l 1
 86 441 l 2
 86 446 86 467 87 488 c 0
 87 512 88 527 90 530 c 0
 91 532 92 536 92 538 c 0
 92 541 90 544 89 547 c 1
 87 550 87 561 87 613 c 2
 87 686 l 2
 87 691 87 697 88 698 c 1
 89 700 93 701 96 701 c 0
 100 701 103 702 106 705 c 0
90.999 908 m 0
 96.999 910 100.998 909.999 104.998 908.999 c 0
 108.998 907.999 111.998 907.999 113.998 909.999 c 0
 114.998 910.999 118.998 910.999 124.998 910.999 c 1
 128.998 909.999 137.998 908.999 144.998 907.999 c 1
 150.998 907.999 156.998 905.999 158.998 904.999 c 1
 160.998 902.999 161.998 900.999 161.998 899.999 c 0
 161.998 898.999 165.998 893.999 170.998 888.999 c 0
 175.998 883.999 182.998 878.999 185.998 875.999 c 0
 188.998 873.999 191.998 870.999 191.998 869.999 c 0
 191.998 868.999 193.998 865.999 197.998 863.999 c 0
 201.998 860.999 203.998 858.999 204.998 853.999 c 0
 205.998 849.999 207.998 843.999 208.998 839.999 c 1
 210.998 835.999 214.998 830.999 218.998 827.999 c 0
 222.998 824.999 225.998 820.999 226.998 814.999 c 1
 228.998 809.999 230.998 805.999 234.998 802.999 c 0
 239.998 798.999 240.998 796.999 240.998 792.999 c 0
 239.998 787.999 239.998 787.999 219.998 785.999 c 0
 202.998 783.999 198.998 783.999 195.998 785.999 c 0
 193.998 786.999 187.998 791.999 181.998 797.999 c 0
 173.998 805.999 171.998 807.999 170.998 814.999 c 0
 169.998 819.999 166.998 825.999 164.998 828.999 c 0
 161.998 831.999 159.998 834.999 159.998 835.999 c 0
 159.998 836.999 158.998 838.999 156.998 840.999 c 1
 154.998 841.999 151.998 846.999 150.998 850.999 c 0
 148.998 855.999 145.998 858.999 139.998 863.999 c 0
 133.998 867.999 128.998 869.999 122.998 869.999 c 1
 115.998 870.999 113.998 870.999 107.998 864.999 c 0
 103.998 860.999 99.998 855.999 99.998 853.999 c 1
 98.998 850.999 96.998 846.999 94.998 843.999 c 0
 92.998 841.999 88.998 837.999 85.998 836.999 c 1
 82.998 834.999 80.998 832.999 80.998 829.999 c 0
 80.998 827.999 79.998 823.999 77.998 820.999 c 0
 75.998 818.999 73.998 813.999 73.998 810.999 c 0
 73.998 804.999 72.998 803.999 67.998 801.999 c 1
 64.998 799.999 59.998 796.999 57.998 793.999 c 1
 54.998 791.999 50.998 787.999 48.998 785.999 c 0
 46.998 783.999 43.998 781.999 42.998 780.999 c 0
 42.7305 780.731 42.1758 780.607 41.4102 780.607 c 0
 39.3193 780.607 35.6592 781.536 31.999 783 c 0
 26.999 785 18.999 787 12.999 787 c 0
 6.99902 787 2.99902 787 2.99902 789 c 1
 1.99902 791 2.99902 795 4.99902 799 c 0
 6.99902 803 14.999 813 22.999 820 c 0
 30.999 828 37.999 836 37.999 838 c 1
 38.999 840 40.999 842 42.999 842 c 1
 45.999 843 48.999 845 49.999 847 c 1
 49.999 848 50.999 852 50.999 855 c 0
 50.999 859 52.999 863 54.999 865 c 0
 56.999 867 59.999 871 60.999 874 c 2
 62.999 877 65.999 883 68.999 888 c 0
 71.999 893 75.999 898 77.999 901 c 1
 80.999 903 86.999 906 90.999 908 c 0
EndSplineSet
Validated: 33
EndChar
StartChar: uni00D2
Encoding: 210 210 145
Width: 746
GlyphClass: 2
Flags: W
LayerCount: 2
Fore
SplineSet
398 652 m 0
 387 652 376 651 375 651 c 0
 373 651 366 651 360 652 c 1
 338 652 l 1
 333 651 328 649 326 647 c 1
 324 646 320 644 317 644 c 0
 314 644 309 643 305 642 c 0
 302 641 296 639 292 638 c 1
 288 638 278 634 270 630 c 0
 262 626 253 621 250 618 c 0
 247 616 242 610 239 606 c 0
 234 600 231 597 227 596 c 0
 223 595 220 593 217 588 c 0
 215 584 211 579 208 577 c 2
 206 574 203 572 201 572 c 0
 200 572 198 571 197 569 c 0
 196 567 196 564 196 562 c 1
 197 561 195 558 192 555 c 0
 190 552 185 543 183 536 c 0
 180 528 177 518 176 513 c 1
 176 507 174 501 171 498 c 0
 169 495 168 492 168 491 c 1
 169 491 167 486 165 482 c 0
 162 477 160 472 160 470 c 0
 160 468 159 465 158 464 c 0
 157 463 155 455 155 447 c 0
 154 439 153 428 154 422 c 1
 154 400 l 2
 153 392 152 386 150 382 c 0
 147 378 147 374 147 365 c 0
 147 359 148 347 150 338 c 0
 151 329 152 313 153 303 c 0
 154 289 155 282 158 277 c 0
 160 273 161 267 161 254 c 0
 161 241 162 236 164 234 c 0
 166 232 168 228 170 226 c 1
 171 223 173 216 173 210 c 2
 174 205 175 196 175 191 c 0
 176 182 177 180 184 173 c 0
 188 168 195 161 198 157 c 2
 202 153 204 150 203 148 c 1
 203 146 203 142 204 139 c 0
 205 136 209 132 212 129 c 0
 215 127 222 121 227 115 c 1
 233 110 242 103 248 99 c 0
 254 96 260 91 262 90 c 1
 263 88 267 85 272 84 c 0
 276 83 280 82 281 81 c 1
 281 80 285 79 289 79 c 0
 294 79 298 78 301 75 c 1
 305 73 310 71 321 70 c 0
 330 69 338 69 341 69 c 1
 343 70 347 69 350 67 c 0
 353.75 64.75 356.938 63.625 365.047 63.625 c 0
 367.75 63.625 371 63.75 375 64 c 0
 386 65 398 65 403 65 c 1
 407 66 412 67 414 68 c 1
 416 70 420 71 423 71 c 2
 427 72 431 72 432 72 c 0
 433 72 437 71 441 71 c 0
 447 70 449 70 456 75 c 2
 461 77 467 82 470 85 c 0
 474 89 478 91 483 92 c 0
 486 92 491 94 492 96 c 1
 494 98 498 101 502 103 c 0
 506 105 510 109 512 112 c 0
 514 115 517 117 522 118 c 0
 529 120 530 121 536 132 c 0
 540 139 545 146 548 149 c 0
 552 152 555 157 557 166 c 0
 559 173 562 180 564 182 c 0
 565 183 566 187 566 190 c 0
 566 193 567 196 570 198 c 0
 572 200 573 204 574 210 c 1
 574 215 576 221 577 224 c 0
 579 228 582 235 584 241 c 0
 586 249 587 257 587 269 c 0
 587 283 588 290 591 298 c 0
 594 307 595 313 595 364 c 0
 595.25 377 595.375 387.125 595.375 395.203 c 0
 595.375 419.438 594.171 425.232 592 435 c 0
 590 444 588 457 588 465 c 0
 588 478 587 481 585 484 c 0
 582 487 582 489 582 498 c 0
 583 509 583 509 576 519 c 1
 571 524 567 530 566 533 c 0
 565 535 564 539 564 542 c 0
 564 544 563 547 562 548 c 1
 560 549 559 552 559 554 c 0
 559 557 556 562 553 566 c 0
 550 570 546 576 544 579 c 1
 543 582 538 587 534 590 c 1
 531 594 526 599 525 603 c 1
 523 607 520 610 516 612 c 2
 506 619 l 2
 504 621 499 623 496 624 c 0
 492 625 488 627 486 629 c 0
 484 631 481 632 478 631 c 1
 475 631 472 632 469 634 c 0
 467 635 463 638 461 638 c 1
 458 639 453 641 449 644 c 0
 445 646 437 648 432 649 c 0
 427 650 422 651 421 651 c 1
 420 652 410 652 398 652 c 0
322 714 m 0
 323.333 716.667 325.112 717.555 342.445 717.555 c 0
 351.112 717.555 363.668 717.332 382.001 716.999 c 0
 434.001 716.999 441.001 716.999 445.001 713.999 c 0
 447.001 712.999 451.001 710.999 453.001 710.999 c 0
 456.001 710.999 459.001 709.999 462.001 707.999 c 0
 464.001 705.999 467.001 704.999 469.001 704.999 c 1
 470.001 705.999 475.001 704.999 481.001 702.999 c 1
 487.001 701.999 491.001 698.999 493.001 695.999 c 0
 495.001 692.999 499.001 691.999 505.001 689.999 c 0
 510.001 688.999 517.001 685.999 521.001 682.999 c 0
 525.001 679.999 532.001 676.999 536.001 676.999 c 1
 540.001 675.999 544.001 673.999 547.001 670.999 c 0
 549.001 668.999 553.001 666.999 555.001 666.999 c 0
 557.001 666.999 561.001 664.999 565.001 661.999 c 1
 568.001 657.999 572.001 653.999 573.001 651.999 c 1
 575.001 649.999 578.001 647.999 580.001 647.999 c 0
 582.001 647.999 586.001 646.999 587.001 644.999 c 1
 589.001 642.999 591.001 640.999 591.001 638.999 c 0
 591.001 637.999 594.001 632.999 598.001 628.999 c 0
 603.001 624.999 607.001 618.999 609.001 615.999 c 0
 611.001 611.999 614.001 606.999 618.001 602.999 c 1
 621.001 598.999 625.001 593.999 626.001 589.999 c 1
 628.001 586.999 630.001 584.999 632.001 584.999 c 0
 633.001 584.999 636.001 580.999 638.001 576.999 c 0
 641.001 572.999 644.001 565.999 645.001 560.999 c 0
 646.001 555.999 646.001 549.999 646.001 546.999 c 1
 645.001 544.999 646.001 541.999 647.001 541.999 c 1
 648.001 540.999 652.001 535.999 655.001 530.999 c 0
 661.001 520.999 662.001 519.999 661.001 505.999 c 0
 661.001 492.999 661.001 489.999 667.001 479.999 c 0
 670.001 472.999 673.001 464.999 674.001 460.999 c 1
 674.001 456.999 676.001 451.999 678.001 449.999 c 0
 680.001 446.999 681.001 440.999 681.001 432.999 c 0
 681.001 425.999 682.001 413.999 682.001 405.999 c 2
 682.001 383.999 l 1
 682.001 355.999 l 2
 682.001 343.999 682.001 327.999 681.001 320.999 c 2
 681.001 313.999 680.001 304.999 679.001 300.999 c 0
 678.001 296.999 676.001 290.999 674.001 288.999 c 1
 673.001 286.999 670.001 282.999 669.001 280.999 c 1
 666.001 277.999 666.001 275.999 668.001 268.999 c 0
 669.001 263.999 669.001 258.999 669.001 257.999 c 1
 668.001 256.999 668.001 251.999 668.001 245.999 c 0
 668.001 237.999 667.001 235.999 663.001 230.999 c 0
 661.001 227.999 659.001 223.999 659.001 220.999 c 0
 659.001 217.999 658.001 212.999 656.001 209.999 c 0
 654.001 205.999 653.001 200.999 654.001 191.999 c 0
 654.001 179.999 653.001 177.999 649.001 173.999 c 0
 647.001 171.999 645.001 168.999 645.001 167.999 c 0
 645.001 165.999 643.001 162.999 642.001 160.999 c 0
 640.001 157.999 638.001 155.999 638.001 153.999 c 0
 638.001 152.999 635.001 146.999 632.001 139.999 c 0
 628.001 132.999 626.001 126.999 626.001 124.999 c 0
 626.001 123.999 625.001 121.999 623.001 121.999 c 1
 622.001 120.999 617.001 114.999 613.001 108.999 c 0
 608.001 102.999 601.001 94.999 597.001 91.999 c 0
 592.001 88.999 589.001 85.999 589.001 83.999 c 0
 589.001 82.999 588.001 79.999 586.001 78.999 c 1
 584.001 76.999 582.001 74.999 581.001 74.999 c 0
 580.001 74.999 575.001 70.999 570.001 65.999 c 0
 565.001 60.999 556.001 54.999 550.001 51.999 c 0
 542.001 47.999 539.001 44.999 538.001 42.999 c 1
 538.001 39.999 534.001 35.999 528.001 31.999 c 2
 518.001 25.999 l 1
 517.001 25.999 514.001 24.999 512.001 22.999 c 0
 508.001 19.999 504.001 18.999 500.001 18.999 c 1
 496.001 19.999 491.001 17.999 487.001 16.999 c 1
 484.001 14.999 479.001 13.999 477.001 13.999 c 0
 474.001 13.999 469.001 11.999 465.001 9.99902 c 0
 462.001 7.99902 457.001 6.99902 451.001 6.99902 c 0
 444.001 6.99902 440.001 5.99902 437.001 2.99902 c 0
 433.001 -0.000976562 430.001 -1.00098 382.001 -1.00098 c 0
 369.751 -1.25098 360.438 -1.37598 353.313 -1.37598 c 0
 331.938 -1.37598 330.251 -0.250977 328.001 1.99902 c 0
 324.001 4.99902 321.001 5.99902 309.001 5.99902 c 0
 298.001 5.99902 291.001 7.99902 284.001 10.999 c 0
 278.001 12.999 272.001 15.999 270.001 17.999 c 0
 267.001 19.999 265.001 20.999 257.001 19.999 c 0
 249.001 18.999 248.001 18.999 243.001 22.999 c 0
 239.001 25.999 235.001 27.999 231.001 27.999 c 0
 228.001 27.999 223.001 28.999 222.001 29.999 c 2
 220.001 30.999 217.001 33.999 216.001 35.999 c 0
 215.001 38.999 213.001 39.999 211.001 39.999 c 0
 208.001 39.999 205.001 41.999 202.001 45.999 c 0
 198.001 50.999 195.001 52.999 191.001 53.999 c 1
 187.001 53.999 183.001 55.999 181.001 57.999 c 1
 180.001 59.999 176.001 61.999 172.001 62.999 c 0
 167.001 64.999 164.001 66.999 164.001 68.999 c 0
 164.001 70.999 161.001 75.999 157.001 79.999 c 0
 153.001 83.999 149.001 87.999 147.001 87.999 c 0
 145.001 87.999 141.001 89.999 138.001 93.999 c 1
 134.001 97.999 132.001 102.999 131.001 107.999 c 0
 130.001 114.999 129.001 115.999 123.001 118.999 c 0
 118.001 120.999 114.001 123.999 113.001 126.999 c 0
 112.001 129.999 111.001 136.999 110.001 143.999 c 0
 109.001 151.999 107.001 160.999 105.001 165.999 c 1
 102.001 170.999 98.001 176.999 94.001 179.999 c 0
 89.001 183.999 88.001 184.999 88.001 191.999 c 1
 89.001 195.999 88.001 203.999 86.001 208.999 c 2
 85.001 213.999 82.001 220.999 80.001 222.999 c 0
 78.001 225.999 76.001 230.999 75.001 238.999 c 0
 75.001 244.999 73.001 255.999 71.001 262.999 c 0
 68.751 271.249 67.626 276.124 67.626 292.812 c 0
 67.626 298.374 67.751 305.249 68.001 313.999 c 0
 68.3564 326.444 68.5986 335.004 68.5986 341.052 c 0
 68.5986 351.526 67.9023 354.464 66 357 c 0
 65 359 64.5 360.25 64.5 361.375 c 0
 64.5 362.5 65 363.5 66 365 c 0
 68 369 68 377 68 409 c 0
 68 447 68 448 72 453 c 0
 74 456 76 461 76 463 c 0
 76 465 77 470 79 472 c 1
 80 475 81 480 81 483 c 0
 81 486 81 493 82 498 c 0
 83 503 85 508 86 510 c 0
 87 512 88 516 88 518 c 0
 88 521 89 524 91 526 c 1
 92 528 93 531 93 534 c 1
 94 536 95 540 96 543 c 0
 97 545 101 553 105 560 c 0
 108 567 114 575 116 577 c 0
 119 580 122 582 122 584 c 0
 122 585 125 589 129 593 c 0
 135 599 137 603 138 608 c 0
 139 613 142 617 150 626 c 0
 156 632 164 639 168 641 c 0
 172 643 178 647 180 650 c 0
 183 653 185 656 185 657 c 0
 185 658 188 659 191 660 c 0
 195 662 200 664 202 665 c 1
 203 666 207 667 210 668 c 0
 213 669 215 671 217 674 c 0
 218 676 221 679 223 681 c 1
 225 682 229 684 231 686 c 0
 233 688 237 690 240 690 c 0
 244 690 248 692 252 695 c 0
 257 699 261 701 266 701 c 0
 270 701 275 702 278 704 c 0
 281 707 284 707 287 707 c 1
 290 706 294 707 297 708 c 1
 300 710 306 711 311 711 c 0
 318 711 321 712 322 714 c 0
322.002 901.999 m 0
 323.002 902.999 324.003 903.997 325.003 903.997 c 2
 333.003 901.997 l 2
 337.003 900.997 343.003 897.997 346.003 895.997 c 0
 349.003 893.997 353.003 887.997 355.003 883.997 c 0
 357.003 878.997 361.003 872.997 364.003 870.997 c 1
 366.003 867.997 369.003 862.997 370.003 858.997 c 0
 371.003 854.997 374.003 851.997 377.003 849.997 c 0
 379.003 848.997 382.003 845.997 383.003 843.997 c 1
 383.003 841.997 386.003 836.997 389.003 832.997 c 0
 393.003 826.997 394.003 823.997 394.003 817.997 c 0
 394.003 809.997 394.003 808.997 399.003 807.997 c 0
 402.003 807.997 405.003 805.997 406.003 804.997 c 1
 406.003 803.997 407.003 799.997 407.003 796.997 c 0
 407.003 792.997 409.003 788.997 410.003 786.997 c 1
 411.654 785.346 412.396 784.301 412.396 783.528 c 0
 412.396 782.897 411.901 782.448 411.002 781.999 c 2
 410.002 780.999 407.002 779.999 405.002 778.999 c 0
 403.502 778.499 400.752 778.249 397.377 778.249 c 0
 394.002 778.249 390.002 778.499 386.002 778.999 c 0
 372.002 779.999 372.002 779.999 361.002 790.999 c 0
 354.002 797.999 350.002 803.999 349.002 806.999 c 0
 348.002 810.999 346.002 813.999 344.002 814.999 c 0
 342.002 815.999 338.002 818.999 335.002 821.999 c 0
 333.002 823.999 329.002 828.999 328.002 831.999 c 1
 326.002 834.999 321.002 839.999 317.002 842.999 c 0
 313.002 845.999 307.002 851.999 304.002 855.999 c 2
 300.002 859.999 296.002 865.999 295.002 869.999 c 0
 293.002 874.999 291.002 875.999 287.002 875.999 c 0
 284.002 875.999 280.002 877.999 278.002 879.999 c 0
 275.002 881.999 272.002 885.999 271.002 888.999 c 0
 270.002 890.999 269.502 892.499 269.502 893.624 c 0
 269.502 894.749 270.002 895.499 271.002 895.999 c 1
 272.002 896.999 281.002 898.999 292.002 898.999 c 0
 303.002 899.999 314.002 899.999 316.002 899.999 c 1
 318.002 898.999 320.002 899.999 322.002 901.999 c 0
EndSplineSet
Validated: 33
EndChar
StartChar: uni00D4
Encoding: 212 212 147
Width: 743
GlyphClass: 2
Flags: W
LayerCount: 2
Fore
SplineSet
409 656 m 1
 403 659 398 660 361 660 c 0
 318 660 318 660 310 654 c 0
 305 651 297 647 292 645 c 1
 286 644 279 641 276 638 c 0
 273 636 265 631 257 628 c 0
 249 624 242 620 240 619 c 1
 239 617 230 610 221 603 c 0
 211 596 203 589 203 587 c 2
 202 586 202 583 202 582 c 0
 202 580 200 577 198 575 c 0
 196 572 195 568 195 564 c 0
 195 560 193 556 187 550 c 0
 183 545 178 540 176 537 c 0
 175 535 173 531 173 529 c 0
 173 527 172 523 170 520 c 0
 168 517 167 511 166 502 c 0
 165 492 164 487 161 483 c 0
 159 480 157 475 157 472 c 0
 157 468 156 461 154 455 c 0
 152 450 151 441 151 436 c 0
 151 431 149 424 148 421 c 0
 146 417 145 413 146 406 c 0
 147 400 148 391 148 385 c 2
 149 379 148 369 147 362 c 0
 146 356 145 348 144 345 c 1
 144 341 144 337 147 333 c 0
 149 329 151 324 151 318 c 0
 151 312 152 304 153 298 c 0
 154 293 156 286 158 283 c 0
 159 281 161 276 163 274 c 0
 167 270 167 270 162 262 c 0
 158 254 158 252 159 242 c 0
 159 236 161 229 162 227 c 1
 164 225 165 221 165 219 c 0
 165 217 166 214 168 211 c 0
 170 209 172 204 173 200 c 1
 173 194 175 191 183 182 c 0
 193 172 193 172 193 162 c 0
 193 152 193 151 198 147 c 2
 209 140 l 1
 212 139 217 136 220 134 c 0
 223 131 224 127 224 124 c 0
 224 119 226 117 231 113 c 0
 235 109 240 107 241 107 c 0
 243 107 248 103 252 99 c 0
 256 95 261 91 263 91 c 0
 265 91 270 90 274 88 c 0
 278 86 285 84 289 84 c 0
 294 84 299 83 303 81 c 1
 305 79 310 77 312 77 c 0
 314 77 320 76 325 74 c 0
 335 70 336 70 340 73 c 0
 342 74 345 75 346 74 c 1
 347 74 351 72 356 71 c 0
 361 70 366 70 368 70 c 1
 370 71 377 72 385 72 c 0
 395 72 400 73 403 74 c 1
 405 76 408 77 410 77 c 0
 412 77 416 78 418 79 c 0
 421 81 425 81 432 79 c 0
 439 78 441 78 445 81 c 0
 448 83 452 84 455 84 c 0
 457 84 461 86 464 89 c 0
 467 91 471 93 475 93 c 0
 479 93 482 94 484 97 c 0
 485 99 488 102 491 102 c 1
 493 103 498 106 502 109 c 0
 505 112 511 117 515 120 c 0
 518 123 521 126 521 127 c 0
 521 129 525 134 529 138 c 0
 533 143 538 149 540 152 c 1
 541 156 546 162 549 166 c 1
 553 170 558 178 561 184 c 1
 563 191 567 199 569 203 c 0
 571 207 572 213 572 217 c 0
 572 220 573 223 575 225 c 0
 576 226 577 228 577 230 c 0
 577 232 579 236 582 239 c 0
 586 243 586 245 587 261 c 0
 587 275 587 280 585 281 c 1
 584 282 583 284 583 285 c 1
 583 285 585 289 588 292 c 0
 593 298 593 298 593 370 c 0
 592 442 592 442 588 447 c 0
 586 449 584 454 584 456 c 0
 584 458 583 462 581 465 c 0
 579 468 577 472 577 477 c 0
 577 480 578 486 579 489 c 0
 580 493 580 496 578 499 c 0
 577 501 576 505 576 507 c 0
 576 509 573 514 570 519 c 1
 564 526 563 529 563 537 c 0
 563 543 562 548 560 551 c 2
 559 554 556 558 553 561 c 0
 551 563 549 568 549 570 c 0
 549 572 548 577 547 580 c 0
 545 585 542 588 536 590 c 0
 532 592 528 596 527 597 c 1
 527 599 523 604 520 609 c 1
 515 614 510 618 506 619 c 0
 503 620 499 623 497 626 c 0
 495 628 489 631 485 633 c 0
 479 635 475 637 474 640 c 0
 473 643 470 645 468 646 c 0
 466 647 460 647 454 647 c 1
 447 646 443 647 439 650 c 0
 435 652 430 653 424 653 c 0
 419 653 413 655 409 656 c 1
340 724 m 2
 387.001 723.999 l 2
 432.001 723.999 435.001 723.999 451.001 718.999 c 0
 460.001 716.999 472.001 713.999 476.001 711.999 c 0
 481.001 709.999 488.001 706.999 491.001 705.999 c 2
 496.001 702.999 499.001 701.999 505.001 702.999 c 0
 514.001 703.999 514.001 703.999 517.001 698.999 c 0
 519.001 694.999 521.001 693.999 522.001 693.999 c 1
 524.001 694.999 527.001 693.999 530.001 691.999 c 0
 533.001 689.999 536.001 687.999 538.001 687.999 c 0
 539.001 687.999 542.001 686.999 545.001 683.999 c 0
 547.001 681.999 550.001 677.999 552.001 674.999 c 0
 554.001 672.999 556.001 670.999 557.001 670.999 c 0
 558.001 670.999 561.001 668.999 564.001 665.999 c 0
 566.001 663.999 570.001 660.999 574.001 658.999 c 0
 577.001 657.999 580.001 654.999 581.001 652.999 c 0
 582.001 650.999 587.001 646.999 592.001 643.999 c 0
 601.001 638.999 603.001 636.999 609.001 625.999 c 0
 613.001 618.999 616.001 610.999 616.001 608.999 c 0
 616.001 606.999 618.001 602.999 620.001 598.999 c 2
 621.001 594.999 625.001 590.999 627.001 588.999 c 1
 630.001 587.999 634.001 582.999 636.001 578.999 c 0
 638.001 573.999 640.001 569.999 641.001 569.999 c 1
 642.001 568.999 642.001 566.999 642.001 563.999 c 1
 643.001 560.999 644.001 556.999 646.001 554.999 c 0
 648.001 551.999 649.001 547.999 649.001 543.999 c 0
 649.001 539.999 651.001 535.999 654.001 532.999 c 1
 661.001 521.999 l 2
 663.001 517.999 663.001 511.999 663.001 499.999 c 0
 663.001 483.999 663.001 482.999 668.001 477.999 c 0
 670.001 474.999 672.001 469.999 672.001 467.999 c 0
 672.001 465.999 674.001 461.999 676.001 458.999 c 0
 678.001 454.999 679.001 450.999 679.001 440.999 c 0
 679.001 431.999 678.001 426.999 675.001 419.999 c 0
 671.001 412.999 671.001 410.999 673.001 404.999 c 0
 674.001 400.999 675.001 395.999 677.001 393.999 c 1
 677.708 392.585 678.415 385.671 678.415 369.367 c 0
 678.415 362.614 678.294 354.25 678.001 343.999 c 0
 678.001 304.999 678.001 295.999 675.001 289.999 c 0
 673.001 284.999 671.001 276.999 671.001 270.999 c 1
 670.001 264.999 668.001 257.999 666.001 254.999 c 1
 665.001 251.999 664.001 247.999 664.001 245.999 c 1
 665.001 243.999 664.001 241.999 662.001 239.999 c 0
 660.001 237.999 658.001 233.999 657.001 230.999 c 1
 657.001 227.999 656.001 219.999 656.001 213.999 c 0
 655.001 205.999 654.001 199.999 653.001 198.999 c 0
 651.001 196.999 649.001 192.999 647.001 189.999 c 0
 645.001 186.999 644.001 182.999 644.001 180.999 c 0
 644.001 179.999 642.001 172.999 639.001 166.999 c 0
 636.001 160.999 629.001 150.999 623.001 142.999 c 0
 617.001 135.999 612.001 127.999 612.001 125.999 c 1
 611.001 123.999 609.001 119.999 607.001 116.999 c 0
 604.001 113.999 600.001 106.999 597.001 100.999 c 0
 594.001 94.999 588.001 86.999 583.001 81.999 c 0
 579.001 77.999 572.001 71.999 568.001 69.999 c 0
 564.001 67.999 556.001 61.999 550.001 56.999 c 0
 545.001 51.999 539.001 46.999 538.001 46.999 c 0
 537.001 46.999 530.001 43.999 524.001 40.999 c 0
 516.001 36.999 507.001 33.999 498.001 32.999 c 0
 489.001 31.999 484.001 29.999 482.001 27.999 c 0
 480.001 25.999 475.001 22.999 471.001 20.999 c 0
 467.001 18.999 462.001 15.999 460.001 13.999 c 0
 456.001 10.999 454.001 9.99902 450.001 11.999 c 0
 448.001 12.999 444.001 13.999 442.001 13.999 c 0
 441.001 13.999 436.001 11.999 433.001 8.99902 c 1
 428.334 6.33203 426.778 5.44336 411.148 5.44336 c 0
 403.334 5.44336 392.001 5.66602 375.001 5.99902 c 0
 326.001 6.99902 323.001 6.99902 319.001 10.999 c 1
 314.001 13.999 311.001 13.999 289.001 14.999 c 0
 275.001 14.999 261.001 15.999 257.001 16.999 c 0
 253.001 17.999 247.001 19.999 244.001 21.999 c 2
 240.001 22.999 235.001 26.999 231.001 29.999 c 0
 228.001 32.999 224.001 34.999 222.001 34.999 c 0
 220.001 34.999 216.001 36.999 213.001 39.999 c 0
 210.001 42.999 207.001 44.999 206.001 44.999 c 0
 205.001 44.999 202.001 46.999 200.001 48.999 c 0
 197.001 50.999 194.001 54.999 192.001 56.999 c 1
 191.001 59.999 188.001 61.999 185.001 62.999 c 0
 182.001 63.999 176.001 65.999 171.001 67.999 c 0
 165.001 70.999 158.001 76.999 148.001 86.999 c 0
 140.001 95.999 131.001 106.999 128.001 110.999 c 0
 125.001 115.999 123.001 121.999 123.001 124.999 c 0
 123.001 126.999 121.001 130.999 119.001 132.999 c 0
 116.001 134.999 116.001 136.999 116.001 139.999 c 1
 117.001 142.999 116.001 143.999 112.001 145.999 c 0
 109.001 147.999 105.001 150.999 103.001 153.999 c 0
 100.001 157.999 100.001 159.999 101.001 166.999 c 0
 102.001 174.999 102.001 174.999 94.001 182.999 c 0
 85.001 190.999 85.001 190.999 87.001 203.999 c 0
 88.001 215.999 87.001 217.999 84.001 223.999 c 0
 82.001 226.999 80.001 230.999 80.001 231.999 c 0
 80.001 233.999 78.001 235.999 76.001 238.999 c 0
 73.001 241.999 72.001 243.999 73.001 248.999 c 0
 74.001 253.999 73.001 257.999 71.001 260.999 c 0
 69.001 263.999 67.001 270.999 67.001 282.999 c 0
 66.001 292.999 66.001 303.999 66.001 306.999 c 0
 66.001 310.999 67.001 323.999 67.001 335.999 c 0
 66.001 348.999 66.001 361.999 65.001 363.999 c 0
 64.501 365.499 64.251 367.749 64.251 370.749 c 0
 64.251 373.749 64.501 377.499 65.001 381.999 c 0
 67.001 388.999 67.001 396.999 66.001 398.999 c 1
 66.001 400.999 65.001 410.999 65.001 419.999 c 0
 64.7646 423.776 64.6396 426.773 64.6396 429.214 c 0
 64.6396 437.111 65.9443 439.181 69 443 c 0
 73 447 74 450 73 456 c 1
 73 461 73 470 75 478 c 0
 76 485 78 494 78 497 c 1
 79 501 81 506 83 507 c 1
 84 509 86 513 86 517 c 0
 86 521 87 525 89 528 c 0
 91 530 93 534 93 535 c 0
 93 537 95 543 98 548 c 0
 101 553 103 559 103 560 c 0
 103 561 106 567 110 573 c 0
 114 578 117 584 117 585 c 1
 117 585 120 588 122 591 c 1
 125 593 128 599 129 602 c 0
 131 607 133 610 136 611 c 0
 138 612 142 617 145 622 c 0
 148 626 151 631 151 633 c 0
 151 635 153 639 155 642 c 0
 158 645 161 648 163 648 c 0
 165 648 170 650 174 652 c 0
 179 655 182 658 182 660 c 0
 182 662 184 665 187 667 c 0
 189 668 192 669 194 668 c 1
 195 668 199 671 204 676 c 1
 208 682 212 685 215 685 c 0
 217 685 220 686 221 688 c 1
 223 690 225 690 232 689 c 0
 241 688 242 688 249 694 c 0
 253 698 258 702 260 704 c 0
 262 706 266 708 268 709 c 0
 270 710 274 711 277 710 c 1
 279 710 286 710 291 711 c 0
 298 712 303 714 308 718 c 0
 314 723 316 723 327 723 c 0
 334 723 339 724 340 724 c 2
386.001 910.999 m 0
 391.001 912.999 397.002 913.999 399.002 913.999 c 1
 401.002 912.999 404.002 911.999 405.002 911.999 c 1
 406.002 910.999 410.002 907.999 414.002 903.999 c 0
 418.002 899.999 423.002 892.999 427.002 884.999 c 0
 431.002 877.999 437.002 867.999 442.002 862.999 c 0
 446.002 857.999 451.002 852.999 452.002 852.999 c 0
 453.002 852.999 457.002 847.999 460.002 841.999 c 0
 463.002 834.999 469.002 826.999 473.002 822.999 c 0
 478.002 817.999 482.002 811.999 484.002 805.999 c 0
 485.002 800.999 488.002 795.999 490.002 794.999 c 0
 492.002 793.999 493.002 791.999 493.002 789.999 c 0
 493.002 786.999 492.002 785.999 481.002 786.999 c 0
 475.002 786.999 463.002 786.999 455.002 785.999 c 0
 451.162 785.725 448.375 785.525 446.208 785.525 c 0
 440.475 785.525 439.081 786.919 434.001 791.999 c 1
 431.001 795.999 427.001 798.999 426.001 798.999 c 0
 425.001 798.999 423.001 799.999 421.001 801.999 c 0
 418.001 803.999 418.001 806.999 418.001 814.999 c 0
 418.001 822.999 417.001 826.999 415.001 828.999 c 0
 413.001 830.999 411.001 831.999 410.001 831.999 c 0
 408.001 831.999 406.001 833.999 405.001 835.999 c 1
 404.001 836.999 400.001 839.999 398.001 841.999 c 0
 395.001 843.999 391.001 848.999 389.001 852.999 c 0
 387.001 856.999 386.001 862.999 386.001 864.999 c 0
 386.001 867.999 385.001 869.999 382.001 870.999 c 0
 380.001 871.999 374.001 871.999 368.001 869.999 c 1
 359.001 868.999 356.001 866.999 347.001 857.999 c 0
 342.001 852.999 336.001 845.999 334.001 841.999 c 0
 333.001 838.999 328.001 831.999 323.001 826.999 c 0
 318.001 821.999 314.001 815.999 314.001 813.999 c 0
 314.001 812.999 312.001 807.999 311.001 803.999 c 1
 308.001 799.999 305.001 796.999 301.001 794.999 c 0
 298.001 793.999 294.001 791.999 292.001 789.999 c 0
 289.001 786.999 285.001 786.999 270.001 785.999 c 0
 258.001 785.999 252.001 786.999 250.001 787.999 c 1
 249.001 788.999 248.501 789.749 248.501 790.874 c 0
 248.501 791.999 249.001 793.499 250.001 795.999 c 1
 252.001 798.999 255.001 801.999 257.001 802.999 c 1
 259.001 804.999 262.001 808.999 262.001 811.999 c 1
 263.001 814.999 265.001 818.999 268.001 821.999 c 0
 270.001 823.999 275.001 832.999 280.001 841.999 c 0
 285.001 852.999 290.001 859.999 298.001 866.999 c 2
 303.001 872.999 310.001 879.999 312.001 882.999 c 0
 314.001 885.999 319.001 889.999 322.001 891.999 c 0
 325.001 893.999 328.001 896.999 329.001 898.999 c 0
 330.001 900.999 333.001 903.999 337.001 905.999 c 0
 344.001 908.999 346.001 908.999 357.001 907.999 c 0
 364.001 906.999 371.001 905.999 373.001 906.999 c 2
 375.001 906.999 381.001 908.999 386.001 910.999 c 0
EndSplineSet
Validated: 33
EndChar
